<?xml version="1.0" standalone="no"?><!-- Generator: Gravit.io --><svg xmlns="http://www.w3.org/2000/svg" xmlns:xlink="http://www.w3.org/1999/xlink" style="isolation:isolate" viewBox="545.906 306.378 244.64 134.244" width="244.64" height="134.244"><path d=" M 718.693 414.467 L 718.693 409.278 L 723.758 409.278 L 723.758 414.467 L 718.693 414.467 L 718.693 414.467 Z  M 737.417 414.883 L 737.417 414.883 Q 734.22 414.883 731.854 413.45 L 731.854 413.45 L 731.854 413.45 Q 729.487 412.018 728.221 409.569 L 728.221 409.569 L 728.221 409.569 Q 726.955 407.119 726.955 404.172 L 726.955 404.172 L 726.955 404.172 Q 726.955 401.224 728.221 398.775 L 728.221 398.775 L 728.221 398.775 Q 729.487 396.325 731.854 394.893 L 731.854 394.893 L 731.854 394.893 Q 734.22 393.461 737.417 393.461 L 737.417 393.461 L 737.417 393.461 Q 740.655 393.461 743.021 394.893 L 743.021 394.893 L 743.021 394.893 Q 745.388 396.325 746.633 398.775 L 746.633 398.775 L 746.633 398.775 Q 747.878 401.224 747.878 404.172 L 747.878 404.172 L 747.878 404.172 Q 747.878 407.119 746.633 409.569 L 746.633 409.569 L 746.633 409.569 Q 745.388 412.018 743.021 413.45 L 743.021 413.45 L 743.021 413.45 Q 740.655 414.883 737.417 414.883 L 737.417 414.883 L 737.417 414.883 Z  M 737.417 410.98 L 737.417 410.98 Q 740.115 410.98 741.63 409.154 L 741.63 409.154 L 741.63 409.154 Q 743.146 407.327 743.146 404.172 L 743.146 404.172 L 743.146 404.172 Q 743.146 401.058 741.63 399.211 L 741.63 399.211 L 741.63 399.211 Q 740.115 397.363 737.417 397.363 L 737.417 397.363 L 737.417 397.363 Q 734.718 397.363 733.224 399.211 L 733.224 399.211 L 733.224 399.211 Q 731.729 401.058 731.729 404.172 L 731.729 404.172 L 731.729 404.172 Q 731.729 407.327 733.224 409.154 L 733.224 409.154 L 733.224 409.154 Q 734.718 410.98 737.417 410.98 L 737.417 410.98 L 737.417 410.98 Z  M 751.573 414.467 L 751.573 393.876 L 755.766 393.876 L 756.015 396.492 L 756.015 396.492 Q 757.136 395.122 758.589 394.291 L 758.589 394.291 L 758.589 394.291 Q 760.042 393.461 761.62 393.461 L 761.62 393.461 L 761.62 393.461 Q 762.035 393.461 762.533 393.544 L 762.533 393.544 L 762.16 398.277 L 762.16 398.277 Q 761.495 398.069 760.582 398.069 L 760.582 398.069 L 760.582 398.069 Q 759.212 398.069 758.008 398.713 L 758.008 398.713 L 758.008 398.713 Q 756.804 399.356 756.306 400.228 L 756.306 400.228 L 756.306 414.467 L 751.573 414.467 L 751.573 414.467 Z  M 773.286 424.888 L 773.286 424.888 Q 768.927 424.888 766.29 423.31 L 766.29 423.31 L 766.29 423.31 Q 763.654 421.733 763.654 418.91 L 763.654 418.91 L 763.654 418.91 Q 763.654 415.837 767.058 414.052 L 767.058 414.052 L 767.058 414.052 Q 765.19 412.973 765.19 411.271 L 765.19 411.271 L 765.19 411.271 Q 765.19 409.278 767.39 408.323 L 767.39 408.323 L 767.39 408.323 Q 765.771 407.244 764.92 405.5 L 764.92 405.5 L 764.92 405.5 Q 764.069 403.757 764.069 401.598 L 764.069 401.598 L 764.069 401.598 Q 764.069 399.315 765.066 397.467 L 765.066 397.467 L 765.066 397.467 Q 766.062 395.62 767.951 394.54 L 767.951 394.54 L 767.951 394.54 Q 769.84 393.461 772.455 393.461 L 772.455 393.461 L 772.455 393.461 Q 775.278 393.461 777.313 394.872 L 777.313 394.872 L 777.313 394.872 Q 778.101 394.416 779.326 394.125 L 779.326 394.125 L 779.326 394.125 Q 780.551 393.835 781.962 393.835 L 781.962 393.835 L 782.917 393.835 L 782.543 396.782 L 781.007 396.782 L 781.007 396.782 Q 780.219 396.782 779.43 396.948 L 779.43 396.948 L 779.43 396.948 Q 780.883 398.899 780.883 401.598 L 780.883 401.598 L 780.883 401.598 Q 780.883 403.881 779.886 405.749 L 779.886 405.749 L 779.886 405.749 Q 778.89 407.618 776.98 408.718 L 776.98 408.718 L 776.98 408.718 Q 775.071 409.818 772.455 409.818 L 772.455 409.818 L 772.455 409.818 Q 771.293 409.818 770.089 409.486 L 770.089 409.486 L 770.089 409.486 Q 769.425 409.735 769.425 410.316 L 769.425 410.316 L 769.425 410.316 Q 769.425 410.814 770.068 411.146 L 770.068 411.146 L 770.068 411.146 Q 770.712 411.478 772.082 411.644 L 772.082 411.644 L 776.316 412.267 L 776.316 412.267 Q 783.374 413.264 783.374 418.204 L 783.374 418.204 L 783.374 418.204 Q 783.374 421.359 780.696 423.123 L 780.696 423.123 L 780.696 423.123 Q 778.018 424.888 773.286 424.888 L 773.286 424.888 L 773.286 424.888 Z  M 772.455 406.289 L 772.455 406.289 Q 774.448 406.289 775.527 405.023 L 775.527 405.023 L 775.527 405.023 Q 776.607 403.757 776.607 401.598 L 776.607 401.598 L 776.607 401.598 Q 776.607 399.439 775.527 398.194 L 775.527 398.194 L 775.527 398.194 Q 774.448 396.948 772.455 396.948 L 772.455 396.948 L 772.455 396.948 Q 770.463 396.948 769.383 398.214 L 769.383 398.214 L 769.383 398.214 Q 768.304 399.481 768.304 401.598 L 768.304 401.598 L 768.304 401.598 Q 768.304 403.757 769.383 405.023 L 769.383 405.023 L 769.383 405.023 Q 770.463 406.289 772.455 406.289 L 772.455 406.289 L 772.455 406.289 Z  M 773.535 421.193 L 773.535 421.193 Q 779.098 421.193 779.098 418.494 L 779.098 418.494 L 779.098 418.494 Q 779.098 417.374 778.164 416.772 L 778.164 416.772 L 778.164 416.772 Q 777.229 416.17 775.195 415.837 L 775.195 415.837 L 770.213 415.049 L 770.213 415.049 Q 769.051 415.505 768.366 416.273 L 768.366 416.273 L 768.366 416.273 Q 767.681 417.041 767.681 418.079 L 767.681 418.079 L 767.681 418.079 Q 767.681 419.657 769.217 420.425 L 769.217 420.425 L 769.217 420.425 Q 770.753 421.193 773.535 421.193 L 773.535 421.193 L 773.535 421.193 Z  M 583.477 336.627 L 596.347 336.627 L 596.347 414.467 L 584.204 414.467 L 583.996 411.146 L 583.996 411.146 Q 580.986 413.326 577.717 414.416 L 577.717 414.416 L 577.717 414.416 Q 574.448 415.505 569.985 415.505 L 569.985 415.505 L 569.985 415.505 Q 562.408 415.505 556.959 411.873 L 556.959 411.873 L 556.959 411.873 Q 551.511 408.24 548.708 402.117 L 548.708 402.117 L 548.708 402.117 Q 545.906 395.993 545.906 388.624 L 545.906 388.624 L 545.906 388.624 Q 545.906 381.256 548.708 375.132 L 548.708 375.132 L 548.708 375.132 Q 551.511 369.009 556.959 365.376 L 556.959 365.376 L 556.959 365.376 Q 562.408 361.744 569.985 361.744 L 569.985 361.744 L 569.985 361.744 Q 577.561 361.744 583.477 365.895 L 583.477 365.895 L 583.477 336.627 L 583.477 336.627 Z  M 571.853 404.919 L 571.853 404.919 Q 577.976 404.919 581.038 400.56 L 581.038 400.56 L 581.038 400.56 Q 584.1 396.201 584.1 388.624 L 584.1 388.624 L 584.1 388.624 Q 584.1 381.048 581.038 376.689 L 581.038 376.689 L 581.038 376.689 Q 577.976 372.33 571.853 372.33 L 571.853 372.33 L 571.853 372.33 Q 565.833 372.33 562.46 376.793 L 562.46 376.793 L 562.46 376.793 Q 559.087 381.256 559.087 388.624 L 559.087 388.624 L 559.087 388.624 Q 559.087 395.993 562.46 400.456 L 562.46 400.456 L 562.46 400.456 Q 565.833 404.919 571.853 404.919 L 571.853 404.919 L 571.853 404.919 Z  M 603.379 354.686 L 603.379 341.816 L 616.248 341.816 L 616.248 354.686 L 603.379 354.686 L 603.379 354.686 Z  M 598.293 439.584 L 597.152 428.998 L 597.152 428.998 Q 600.784 428.998 602.081 427.233 L 602.081 427.233 L 602.081 427.233 Q 603.379 425.469 603.379 420.695 L 603.379 420.695 L 603.379 362.574 L 616.248 362.574 L 616.248 425.988 L 616.248 425.988 Q 616.248 433.772 612.875 436.678 L 612.875 436.678 L 612.875 436.678 Q 609.502 439.584 602.341 439.584 L 602.341 439.584 L 598.293 439.584 L 598.293 439.584 Z  M 643.934 440.622 L 643.934 440.622 Q 632.933 440.622 626.394 436.626 L 626.394 436.626 L 626.394 436.626 Q 619.856 432.63 619.856 425.78 L 619.856 425.78 L 619.856 425.78 Q 619.856 418.308 628.262 413.533 L 628.262 413.533 L 628.262 413.533 Q 623.696 410.731 623.696 406.165 L 623.696 406.165 L 623.696 406.165 Q 623.696 403.777 625.097 401.909 L 625.097 401.909 L 625.097 401.909 Q 626.498 400.041 628.885 398.899 L 628.885 398.899 L 628.885 398.899 Q 624.941 396.097 622.917 391.738 L 622.917 391.738 L 622.917 391.738 Q 620.894 387.379 620.894 382.19 L 620.894 382.19 L 620.894 382.19 Q 620.894 376.481 623.384 371.759 L 623.384 371.759 L 623.384 371.759 Q 625.875 367.037 630.65 364.286 L 630.65 364.286 L 630.65 364.286 Q 635.424 361.536 641.962 361.536 L 641.962 361.536 L 641.962 361.536 Q 648.812 361.536 653.794 364.857 L 653.794 364.857 L 653.794 364.857 Q 655.558 363.923 658.516 363.248 L 658.516 363.248 L 658.516 363.248 Q 661.474 362.574 664.899 362.574 L 664.899 362.574 L 668.221 362.574 L 667.39 370.669 L 662.72 370.669 L 662.72 370.669 Q 660.955 370.669 659.814 370.773 L 659.814 370.773 L 659.814 370.773 Q 662.927 375.547 662.927 382.19 L 662.927 382.19 L 662.927 382.19 Q 662.927 387.898 660.488 392.62 L 660.488 392.62 L 660.488 392.62 Q 658.049 397.343 653.275 400.093 L 653.275 400.093 L 653.275 400.093 Q 648.501 402.843 641.962 402.843 L 641.962 402.843 L 641.962 402.843 Q 639.575 402.843 636.462 402.117 L 636.462 402.117 L 636.462 402.117 Q 635.32 402.636 635.32 403.777 L 635.32 403.777 L 635.32 403.777 Q 635.32 405.127 636.929 405.905 L 636.929 405.905 L 636.929 405.905 Q 638.537 406.683 642.378 407.202 L 642.378 407.202 L 651.303 408.344 L 651.303 408.344 Q 669.155 410.731 669.155 423.393 L 669.155 423.393 L 669.155 423.393 Q 669.155 431.281 662.46 435.951 L 662.46 435.951 L 662.46 435.951 Q 655.766 440.622 643.934 440.622 L 643.934 440.622 L 643.934 440.622 Z  M 641.962 393.295 L 641.962 393.295 Q 646.425 393.295 648.864 390.337 L 648.864 390.337 L 648.864 390.337 Q 651.303 387.379 651.303 382.19 L 651.303 382.19 L 651.303 382.19 Q 651.303 377 648.864 374.042 L 648.864 374.042 L 648.864 374.042 Q 646.425 371.084 641.962 371.084 L 641.962 371.084 L 641.962 371.084 Q 637.396 371.084 634.957 374.042 L 634.957 374.042 L 634.957 374.042 Q 632.518 377 632.518 382.19 L 632.518 382.19 L 632.518 382.19 Q 632.518 387.379 634.957 390.337 L 634.957 390.337 L 634.957 390.337 Q 637.396 393.295 641.962 393.295 L 641.962 393.295 L 641.962 393.295 Z  M 644.453 430.866 L 644.453 430.866 Q 657.738 430.866 657.738 424.327 L 657.738 424.327 L 657.738 424.327 Q 657.738 421.421 655.455 420.02 L 655.455 420.02 L 655.455 420.02 Q 653.171 418.619 647.878 417.789 L 647.878 417.789 L 636.462 416.128 L 636.462 416.128 Q 630.546 418.515 630.546 423.393 L 630.546 423.393 L 630.546 423.393 Q 630.546 427.13 634.178 428.998 L 634.178 428.998 L 634.178 428.998 Q 637.811 430.866 644.453 430.866 L 644.453 430.866 L 644.453 430.866 Z  M 696.633 361.744 L 696.633 361.744 Q 706.493 361.744 711.319 368.126 L 711.319 368.126 L 711.319 368.126 Q 716.145 374.509 716.145 385.615 L 716.145 385.615 L 716.145 414.467 L 703.275 414.467 L 703.275 386.549 L 703.275 386.549 Q 703.275 379.18 700.888 375.755 L 700.888 375.755 L 700.888 375.755 Q 698.501 372.33 693.312 372.33 L 693.312 372.33 L 693.312 372.33 Q 687.188 372.33 683.244 376.793 L 683.244 376.793 L 683.244 414.467 L 670.375 414.467 L 670.375 336.627 L 683.244 336.627 L 683.244 365.895 L 683.244 365.895 Q 686.358 363.923 689.575 362.833 L 689.575 362.833 L 689.575 362.833 Q 692.793 361.744 696.633 361.744 L 696.633 361.744 L 696.633 361.744 Z " fill-rule="evenodd" fill="rgb(255,255,255)"/><linearGradient id="_lgradient_10" x1="0" y1="0.5" x2="1" y2="0.5" gradientTransform="matrix(-70.072,0,0,-44.398,790.546,376.392)" gradientUnits="userSpaceOnUse"><stop offset="1.7391304347826086%" stop-opacity="1" style="stop-color:rgb(0,170,255)"/><stop offset="96.08695652173913%" stop-opacity="1" style="stop-color:rgb(16,35,238)"/></linearGradient><path d=" M 755.881 376.385 C 757.874 376.301 759.842 375.499 761.362 373.979 L 788.134 347.207 C 791.35 343.991 791.35 338.769 788.134 335.553 L 786.986 334.405 C 783.771 331.189 778.549 331.189 775.333 334.405 L 755.51 354.228 L 735.688 334.405 C 732.472 331.189 727.25 331.189 724.034 334.405 L 722.886 335.553 C 719.67 338.769 719.67 343.991 722.886 347.207 L 749.659 373.979 C 751.179 375.499 753.147 376.301 755.139 376.385 C 755.387 376.394 755.634 376.394 755.881 376.385 Z " fill-rule="evenodd" fill="url(#_lgradient_10)"/><linearGradient id="_lgradient_11" x1="0" y1="0.5" x2="1" y2="0.5" gradientTransform="matrix(70.072,0,0,44.401,720.474,306.378)" gradientUnits="userSpaceOnUse"><stop offset="1.7391304347826086%" stop-opacity="1" style="stop-color:rgb(0,170,255)"/><stop offset="96.08695652173913%" stop-opacity="1" style="stop-color:rgb(16,35,238)"/></linearGradient><path d=" M 755.139 306.387 C 753.147 306.471 751.179 307.273 749.659 308.793 L 722.886 335.565 C 719.67 338.781 719.67 344.003 722.886 347.219 L 724.034 348.367 C 727.25 351.583 732.472 351.583 735.688 348.367 L 755.51 328.544 L 775.333 348.367 C 778.549 351.583 783.771 351.583 786.986 348.367 L 788.134 347.219 C 791.35 344.003 791.35 338.781 788.134 335.565 L 761.362 308.793 C 759.653 307.084 757.379 306.283 755.139 306.387 Z " fill-rule="evenodd" fill="url(#_lgradient_11)"/></svg>