<?xml version="1.0" standalone="no"?><!-- Generator: Gravit.io --><svg xmlns="http://www.w3.org/2000/svg" xmlns:xlink="http://www.w3.org/1999/xlink" style="isolation:isolate" viewBox="384.187 359.511 434.966 56.978" width="434.966" height="56.978"><g><linearGradient id="_lgradient_2" x1="0" y1="0.5" x2="1" y2="0.5" gradientTransform="matrix(-56.626,0,0,-37.751,440.813,416.489)" gradientUnits="userSpaceOnUse"><stop offset="1.3043478260869565%" stop-opacity="1" style="stop-color:rgb(75,174,231)"/><stop offset="97.82608695652173%" stop-opacity="1" style="stop-color:rgb(35,94,164)"/></linearGradient><path d=" M 421.876 407.051 L 440.813 388.114 L 431.437 378.738 L 412.5 397.675 L 393.563 378.738 L 384.187 388.114 L 403.124 407.051 L 403.062 407.113 L 412.438 416.489 L 412.5 416.427 L 412.562 416.489 L 421.938 407.113 L 421.876 407.051 Z " fill-rule="evenodd" fill="url(#_lgradient_2)"/><linearGradient id="_lgradient_3" x1="0" y1="0.5" x2="1" y2="0.5" gradientTransform="matrix(56.626,0,0,37.751,384.187,359.511)" gradientUnits="userSpaceOnUse"><stop offset="2.1739130434782608%" stop-opacity="1" style="stop-color:rgb(75,174,231)"/><stop offset="97.82608695652173%" stop-opacity="1" style="stop-color:rgb(35,94,164)"/></linearGradient><path d=" M 403.124 368.949 L 384.187 387.886 L 393.563 397.262 L 412.5 378.325 L 431.437 397.262 L 440.813 387.886 L 421.876 368.949 L 421.938 368.887 L 412.562 359.511 L 412.5 359.573 L 412.438 359.511 L 403.062 368.887 L 403.124 368.949 Z " fill-rule="evenodd" fill="url(#_lgradient_3)"/></g><path d=" M 740.313 400.87 L 740.313 375.67 L 744.309 375.67 L 744.309 397.198 L 753.201 397.198 L 753.201 400.87 L 740.313 400.87 L 740.313 400.87 Z  M 762.129 401.23 L 762.129 401.23 Q 759.717 401.23 757.935 399.988 L 757.935 399.988 L 757.935 399.988 Q 756.153 398.746 755.217 396.622 L 755.217 396.622 L 755.217 396.622 Q 754.281 394.498 754.281 391.942 L 754.281 391.942 L 754.281 391.942 Q 754.281 389.386 755.217 387.28 L 755.217 387.28 L 755.217 387.28 Q 756.153 385.174 757.935 383.932 L 757.935 383.932 L 757.935 383.932 Q 759.717 382.69 762.129 382.69 L 762.129 382.69 L 762.129 382.69 Q 764.541 382.69 766.323 383.932 L 766.323 383.932 L 766.323 383.932 Q 768.105 385.174 769.041 387.28 L 769.041 387.28 L 769.041 387.28 Q 769.977 389.386 769.977 391.942 L 769.977 391.942 L 769.977 391.942 Q 769.977 394.498 769.041 396.622 L 769.041 396.622 L 769.041 396.622 Q 768.105 398.746 766.323 399.988 L 766.323 399.988 L 766.323 399.988 Q 764.541 401.23 762.129 401.23 L 762.129 401.23 L 762.129 401.23 Z  M 762.129 397.954 L 762.129 397.954 Q 763.965 397.954 764.991 396.334 L 764.991 396.334 L 764.991 396.334 Q 766.017 394.714 766.017 391.942 L 766.017 391.942 L 766.017 391.942 Q 766.017 389.206 764.991 387.586 L 764.991 387.586 L 764.991 387.586 Q 763.965 385.966 762.129 385.966 L 762.129 385.966 L 762.129 385.966 Q 760.329 385.966 759.285 387.586 L 759.285 387.586 L 759.285 387.586 Q 758.241 389.206 758.241 391.942 L 758.241 391.942 L 758.241 391.942 Q 758.241 394.714 759.267 396.334 L 759.267 396.334 L 759.267 396.334 Q 760.293 397.954 762.129 397.954 L 762.129 397.954 L 762.129 397.954 Z  M 782.793 373.87 L 786.717 373.87 L 786.717 400.87 L 783.117 400.87 L 782.973 399.538 L 782.973 399.538 Q 781.209 401.23 778.689 401.23 L 778.689 401.23 L 778.689 401.23 Q 776.529 401.23 774.909 399.988 L 774.909 399.988 L 774.909 399.988 Q 773.289 398.746 772.425 396.64 L 772.425 396.64 L 772.425 396.64 Q 771.561 394.534 771.561 391.978 L 771.561 391.978 L 771.561 391.978 Q 771.561 389.422 772.407 387.316 L 772.407 387.316 L 772.407 387.316 Q 773.253 385.21 774.873 383.95 L 774.873 383.95 L 774.873 383.95 Q 776.493 382.69 778.689 382.69 L 778.689 382.69 L 778.689 382.69 Q 781.065 382.69 782.793 384.238 L 782.793 384.238 L 782.793 373.87 L 782.793 373.87 Z  M 779.229 397.954 L 779.229 397.954 Q 781.065 397.954 782.055 396.388 L 782.055 396.388 L 782.055 396.388 Q 783.045 394.822 783.045 391.978 L 783.045 391.978 L 783.045 391.978 Q 783.045 389.134 782.055 387.55 L 782.055 387.55 L 782.055 387.55 Q 781.065 385.966 779.229 385.966 L 779.229 385.966 L 779.229 385.966 Q 777.537 385.966 776.529 387.64 L 776.529 387.64 L 776.529 387.64 Q 775.521 389.314 775.521 391.978 L 775.521 391.978 L 775.521 391.978 Q 775.521 394.606 776.529 396.28 L 776.529 396.28 L 776.529 396.28 Q 777.537 397.954 779.229 397.954 L 779.229 397.954 L 779.229 397.954 Z  M 796.473 409.87 L 796.473 409.87 Q 793.269 409.87 791.307 408.556 L 791.307 408.556 L 791.307 408.556 Q 789.345 407.242 789.345 404.938 L 789.345 404.938 L 789.345 404.938 Q 789.345 402.382 792.081 400.654 L 792.081 400.654 L 792.081 400.654 Q 790.497 399.826 790.497 398.206 L 790.497 398.206 L 790.497 398.206 Q 790.497 396.586 792.261 395.686 L 792.261 395.686 L 792.261 395.686 Q 790.965 394.714 790.245 393.148 L 790.245 393.148 L 790.245 393.148 Q 789.525 391.582 789.525 389.71 L 789.525 389.71 L 789.525 389.71 Q 789.525 387.73 790.299 386.128 L 790.299 386.128 L 790.299 386.128 Q 791.073 384.526 792.513 383.608 L 792.513 383.608 L 792.513 383.608 Q 793.953 382.69 795.933 382.69 L 795.933 382.69 L 795.933 382.69 Q 798.273 382.69 799.857 383.986 L 799.857 383.986 L 799.857 383.986 Q 801.333 382.69 802.881 382.69 L 802.881 382.69 L 802.881 382.69 Q 803.349 382.69 803.781 382.762 L 803.781 382.762 L 803.457 385.426 L 803.457 385.426 Q 803.097 385.354 802.737 385.354 L 802.737 385.354 L 802.737 385.354 Q 802.053 385.354 801.297 385.678 L 801.297 385.678 L 801.297 385.678 Q 802.341 387.37 802.341 389.71 L 802.341 389.71 L 802.341 389.71 Q 802.341 391.654 801.567 393.274 L 801.567 393.274 L 801.567 393.274 Q 800.793 394.894 799.335 395.848 L 799.335 395.848 L 799.335 395.848 Q 797.877 396.802 795.933 396.802 L 795.933 396.802 L 795.933 396.802 Q 795.213 396.802 794.421 396.622 L 794.421 396.622 L 794.421 396.622 Q 793.953 396.91 793.953 397.306 L 793.953 397.306 L 793.953 397.306 Q 793.953 397.702 794.295 397.936 L 794.295 397.936 L 794.295 397.936 Q 794.637 398.17 795.429 398.386 L 795.429 398.386 L 798.705 399.214 L 798.705 399.214 Q 801.549 399.934 802.809 401.104 L 802.809 401.104 L 802.809 401.104 Q 804.069 402.274 804.069 404.398 L 804.069 404.398 L 804.069 404.398 Q 804.069 406.918 801.963 408.394 L 801.963 408.394 L 801.963 408.394 Q 799.857 409.87 796.473 409.87 L 796.473 409.87 L 796.473 409.87 Z  M 795.933 393.814 L 795.933 393.814 Q 797.265 393.814 797.985 392.698 L 797.985 392.698 L 797.985 392.698 Q 798.705 391.582 798.705 389.71 L 798.705 389.71 L 798.705 389.71 Q 798.705 387.91 797.985 386.794 L 797.985 386.794 L 797.985 386.794 Q 797.265 385.678 795.933 385.678 L 795.933 385.678 L 795.933 385.678 Q 794.601 385.678 793.881 386.794 L 793.881 386.794 L 793.881 386.794 Q 793.161 387.91 793.161 389.71 L 793.161 389.71 L 793.161 389.71 Q 793.161 391.582 793.881 392.698 L 793.881 392.698 L 793.881 392.698 Q 794.601 393.814 795.933 393.814 L 795.933 393.814 L 795.933 393.814 Z  M 796.617 406.882 L 796.617 406.882 Q 798.381 406.882 799.461 406.288 L 799.461 406.288 L 799.461 406.288 Q 800.541 405.694 800.541 404.614 L 800.541 404.614 L 800.541 404.614 Q 800.541 403.714 799.911 403.21 L 799.911 403.21 L 799.911 403.21 Q 799.281 402.706 797.733 402.274 L 797.733 402.274 L 794.709 401.482 L 794.709 401.482 Q 792.585 402.778 792.585 404.362 L 792.585 404.362 L 792.585 404.362 Q 792.585 405.586 793.683 406.234 L 793.683 406.234 L 793.683 406.234 Q 794.781 406.882 796.617 406.882 L 796.617 406.882 L 796.617 406.882 Z  M 813.321 401.23 L 813.321 401.23 Q 810.621 401.23 808.713 399.97 L 808.713 399.97 L 808.713 399.97 Q 806.805 398.71 805.851 396.586 L 805.851 396.586 L 805.851 396.586 Q 804.897 394.462 804.897 391.87 L 804.897 391.87 L 804.897 391.87 Q 804.897 389.278 805.797 387.19 L 805.797 387.19 L 805.797 387.19 Q 806.697 385.102 808.407 383.896 L 808.407 383.896 L 808.407 383.896 Q 810.117 382.69 812.529 382.69 L 812.529 382.69 L 812.529 382.69 Q 815.553 382.69 817.353 384.796 L 817.353 384.796 L 817.353 384.796 Q 819.153 386.902 819.153 390.466 L 819.153 390.466 L 819.153 390.466 Q 819.153 391.366 818.973 392.554 L 818.973 392.554 L 808.893 392.554 L 808.893 392.554 Q 809.109 395.254 810.405 396.604 L 810.405 396.604 L 810.405 396.604 Q 811.701 397.954 813.681 397.954 L 813.681 397.954 L 813.681 397.954 Q 816.057 397.954 818.289 396.658 L 818.289 396.658 L 818.469 400.078 L 818.469 400.078 Q 816.345 401.23 813.321 401.23 L 813.321 401.23 L 813.321 401.23 Z  M 809.001 389.818 L 815.193 389.818 L 815.193 389.818 Q 815.193 388.054 814.509 387.01 L 814.509 387.01 L 814.509 387.01 Q 813.825 385.966 812.349 385.966 L 812.349 385.966 L 812.349 385.966 Q 810.981 385.966 810.117 386.938 L 810.117 386.938 L 810.117 386.938 Q 809.253 387.91 809.001 389.818 L 809.001 389.818 L 809.001 389.818 Z  M 678.681 400.87 L 678.681 375.67 L 682.677 375.67 L 682.677 385.786 L 692.829 385.786 L 692.829 375.67 L 696.825 375.67 L 696.825 400.87 L 692.829 400.87 L 692.829 389.71 L 682.677 389.71 L 682.677 400.87 L 678.681 400.87 L 678.681 400.87 Z  M 704.529 401.23 L 704.529 401.23 Q 702.513 401.23 701.145 399.862 L 701.145 399.862 L 701.145 399.862 Q 699.777 398.494 699.777 396.19 L 699.777 396.19 L 699.777 396.19 Q 699.777 393.778 701.235 392.302 L 701.235 392.302 L 701.235 392.302 Q 702.693 390.826 704.673 390.214 L 704.673 390.214 L 704.673 390.214 Q 706.653 389.602 708.453 389.53 L 708.453 389.53 L 708.453 389.53 Q 708.453 387.73 707.841 386.956 L 707.841 386.956 L 707.841 386.956 Q 707.229 386.182 705.753 386.182 L 705.753 386.182 L 705.753 386.182 Q 704.673 386.182 703.665 386.542 L 703.665 386.542 L 703.665 386.542 Q 702.657 386.902 701.433 387.622 L 701.433 387.622 L 701.109 384.346 L 701.109 384.346 Q 703.809 382.69 706.725 382.69 L 706.725 382.69 L 706.725 382.69 Q 712.413 382.69 712.413 389.422 L 712.413 389.422 L 712.413 394.786 L 712.413 394.786 Q 712.413 396.154 712.521 396.802 L 712.521 396.802 L 712.521 396.802 Q 712.629 397.45 712.899 397.702 L 712.899 397.702 L 712.899 397.702 Q 713.169 397.954 713.745 397.954 L 713.745 397.954 L 714.249 397.954 L 713.925 401.23 L 712.449 401.23 L 712.449 401.23 Q 711.225 401.23 710.343 400.636 L 710.343 400.636 L 710.343 400.636 Q 709.461 400.042 708.993 398.962 L 708.993 398.962 L 708.993 398.962 Q 708.057 400.078 706.977 400.654 L 706.977 400.654 L 706.977 400.654 Q 705.897 401.23 704.529 401.23 L 704.529 401.23 L 704.529 401.23 Z  M 705.789 398.098 L 705.789 398.098 Q 707.301 398.098 708.489 396.406 L 708.489 396.406 L 708.489 392.266 L 708.489 392.266 Q 703.881 392.734 703.881 395.83 L 703.881 395.83 L 703.881 395.83 Q 703.881 398.098 705.789 398.098 L 705.789 398.098 L 705.789 398.098 Z  M 720.297 401.23 L 720.297 401.23 Q 718.317 401.23 717.327 399.988 L 717.327 399.988 L 717.327 399.988 Q 716.337 398.746 716.337 396.694 L 716.337 396.694 L 716.337 373.87 L 720.261 373.87 L 720.261 395.074 L 720.261 395.074 Q 720.261 396.298 720.387 396.892 L 720.387 396.892 L 720.387 396.892 Q 720.513 397.486 720.891 397.72 L 720.891 397.72 L 720.891 397.72 Q 721.269 397.954 722.097 397.954 L 722.097 397.954 L 721.737 401.23 L 720.297 401.23 L 720.297 401.23 Z  M 728.505 401.23 L 728.505 401.23 Q 726.525 401.23 725.535 399.988 L 725.535 399.988 L 725.535 399.988 Q 724.545 398.746 724.545 396.694 L 724.545 396.694 L 724.545 373.87 L 728.469 373.87 L 728.469 395.074 L 728.469 395.074 Q 728.469 396.298 728.595 396.892 L 728.595 396.892 L 728.595 396.892 Q 728.721 397.486 729.099 397.72 L 729.099 397.72 L 729.099 397.72 Q 729.477 397.954 730.305 397.954 L 730.305 397.954 L 729.945 401.23 L 728.505 401.23 L 728.505 401.23 Z  M 587.025 401.374 L 587.025 401.374 Q 583.569 401.374 580.977 399.736 L 580.977 399.736 L 580.977 399.736 Q 578.385 398.098 576.981 395.128 L 576.981 395.128 L 576.981 395.128 Q 575.577 392.158 575.577 388.27 L 575.577 388.27 L 575.577 388.27 Q 575.577 384.31 577.071 381.34 L 577.071 381.34 L 577.071 381.34 Q 578.565 378.37 581.175 376.768 L 581.175 376.768 L 581.175 376.768 Q 583.785 375.166 587.097 375.166 L 587.097 375.166 L 587.097 375.166 Q 590.301 375.166 592.893 376.318 L 592.893 376.318 L 592.425 380.242 L 592.425 380.242 Q 591.165 379.666 590.049 379.378 L 590.049 379.378 L 590.049 379.378 Q 588.933 379.09 587.565 379.09 L 587.565 379.09 L 587.565 379.09 Q 584.001 379.09 581.985 381.592 L 581.985 381.592 L 581.985 381.592 Q 579.969 384.094 579.969 388.27 L 579.969 388.27 L 579.969 388.27 Q 579.969 392.554 581.859 395.002 L 581.859 395.002 L 581.859 395.002 Q 583.749 397.45 587.349 397.45 L 587.349 397.45 L 587.349 397.45 Q 588.537 397.45 589.617 397.054 L 589.617 397.054 L 589.617 391.906 L 586.629 391.906 L 586.629 388.234 L 593.613 388.234 L 593.613 399.61 L 593.613 399.61 Q 592.425 400.438 590.679 400.906 L 590.679 400.906 L 590.679 400.906 Q 588.933 401.374 587.025 401.374 L 587.025 401.374 L 587.025 401.374 Z  M 596.817 400.87 L 596.817 383.014 L 600.165 383.014 L 600.489 385.282 L 600.489 385.282 Q 601.569 383.95 602.523 383.32 L 602.523 383.32 L 602.523 383.32 Q 603.477 382.69 604.665 382.69 L 604.665 382.69 L 604.665 382.69 Q 605.133 382.69 605.529 382.798 L 605.529 382.798 L 605.205 386.866 L 605.205 386.866 Q 604.773 386.722 604.089 386.722 L 604.089 386.722 L 604.089 386.722 Q 602.289 386.722 600.741 388.522 L 600.741 388.522 L 600.741 400.87 L 596.817 400.87 L 596.817 400.87 Z  M 607.257 379.81 L 607.257 375.67 L 611.145 375.67 L 611.145 379.81 L 607.257 379.81 L 607.257 379.81 Z  M 607.257 400.87 L 607.257 383.014 L 611.145 383.014 L 611.145 400.87 L 607.257 400.87 L 607.257 400.87 Z  M 615.681 400.87 L 615.681 386.254 L 613.485 386.254 L 613.845 383.014 L 615.681 383.014 L 615.681 378.874 L 615.681 378.874 Q 615.681 376.606 616.923 375.238 L 616.923 375.238 L 616.923 375.238 Q 618.165 373.87 620.577 373.87 L 620.577 373.87 L 620.577 373.87 Q 621.909 373.87 622.917 374.23 L 622.917 374.23 L 622.557 377.506 L 622.557 377.506 Q 621.909 377.29 621.405 377.29 L 621.405 377.29 L 621.405 377.29 Q 620.541 377.29 620.055 377.866 L 620.055 377.866 L 620.055 377.866 Q 619.569 378.442 619.569 379.45 L 619.569 379.45 L 619.569 383.014 L 622.953 383.014 L 622.953 386.254 L 619.569 386.254 L 619.569 400.87 L 615.681 400.87 L 615.681 400.87 Z  M 626.229 400.87 L 626.229 386.254 L 624.033 386.254 L 624.393 383.014 L 626.229 383.014 L 626.229 378.874 L 626.229 378.874 Q 626.229 376.606 627.471 375.238 L 627.471 375.238 L 627.471 375.238 Q 628.713 373.87 631.125 373.87 L 631.125 373.87 L 631.125 373.87 Q 632.457 373.87 633.465 374.23 L 633.465 374.23 L 633.105 377.506 L 633.105 377.506 Q 632.457 377.29 631.953 377.29 L 631.953 377.29 L 631.953 377.29 Q 631.089 377.29 630.603 377.866 L 630.603 377.866 L 630.603 377.866 Q 630.117 378.442 630.117 379.45 L 630.117 379.45 L 630.117 383.014 L 633.501 383.014 L 633.501 386.254 L 630.117 386.254 L 630.117 400.87 L 626.229 400.87 L 626.229 400.87 Z  M 635.805 379.81 L 635.805 375.67 L 639.693 375.67 L 639.693 379.81 L 635.805 379.81 L 635.805 379.81 Z  M 635.805 400.87 L 635.805 383.014 L 639.693 383.014 L 639.693 400.87 L 635.805 400.87 L 635.805 400.87 Z  M 648.441 401.23 L 648.441 401.23 Q 646.389 401.23 645.327 400.024 L 645.327 400.024 L 645.327 400.024 Q 644.265 398.818 644.265 396.694 L 644.265 396.694 L 644.265 386.254 L 642.069 386.254 L 642.429 383.014 L 644.265 383.014 L 644.265 378.91 L 648.153 378.478 L 648.153 383.014 L 651.537 383.014 L 651.537 386.254 L 648.153 386.254 L 648.153 395.542 L 648.153 395.542 Q 648.153 396.802 648.657 397.378 L 648.657 397.378 L 648.657 397.378 Q 649.161 397.954 650.313 397.954 L 650.313 397.954 L 651.537 397.954 L 651.177 401.23 L 648.441 401.23 L 648.441 401.23 Z  M 662.121 382.69 L 662.121 382.69 Q 664.821 382.69 666.261 384.598 L 666.261 384.598 L 666.261 384.598 Q 667.701 386.506 667.701 389.746 L 667.701 389.746 L 667.701 400.87 L 663.813 400.87 L 663.813 390.25 L 663.813 390.25 Q 663.813 385.966 661.077 385.966 L 661.077 385.966 L 661.077 385.966 Q 659.133 385.966 657.909 387.874 L 657.909 387.874 L 657.909 400.87 L 654.021 400.87 L 654.021 373.87 L 657.909 373.87 L 657.909 384.274 L 657.909 384.274 Q 659.565 382.69 662.121 382.69 L 662.121 382.69 L 662.121 382.69 Z  M 487.701 407.062 L 487.377 403.498 L 487.377 403.498 Q 488.745 403.498 489.285 402.94 L 489.285 402.94 L 489.285 402.94 Q 489.825 402.382 489.825 400.942 L 489.825 400.942 L 489.825 375.67 L 493.821 375.67 L 493.821 401.842 L 493.821 401.842 Q 493.821 404.434 492.399 405.748 L 492.399 405.748 L 492.399 405.748 Q 490.977 407.062 488.457 407.062 L 488.457 407.062 L 487.701 407.062 L 487.701 407.062 Z  M 501.525 401.23 L 501.525 401.23 Q 499.509 401.23 498.141 399.862 L 498.141 399.862 L 498.141 399.862 Q 496.773 398.494 496.773 396.19 L 496.773 396.19 L 496.773 396.19 Q 496.773 393.778 498.231 392.302 L 498.231 392.302 L 498.231 392.302 Q 499.689 390.826 501.669 390.214 L 501.669 390.214 L 501.669 390.214 Q 503.649 389.602 505.449 389.53 L 505.449 389.53 L 505.449 389.53 Q 505.449 387.73 504.837 386.956 L 504.837 386.956 L 504.837 386.956 Q 504.225 386.182 502.749 386.182 L 502.749 386.182 L 502.749 386.182 Q 501.669 386.182 500.661 386.542 L 500.661 386.542 L 500.661 386.542 Q 499.653 386.902 498.429 387.622 L 498.429 387.622 L 498.105 384.346 L 498.105 384.346 Q 500.805 382.69 503.721 382.69 L 503.721 382.69 L 503.721 382.69 Q 509.409 382.69 509.409 389.422 L 509.409 389.422 L 509.409 394.786 L 509.409 394.786 Q 509.409 396.154 509.517 396.802 L 509.517 396.802 L 509.517 396.802 Q 509.625 397.45 509.895 397.702 L 509.895 397.702 L 509.895 397.702 Q 510.165 397.954 510.741 397.954 L 510.741 397.954 L 511.245 397.954 L 510.921 401.23 L 509.445 401.23 L 509.445 401.23 Q 508.221 401.23 507.339 400.636 L 507.339 400.636 L 507.339 400.636 Q 506.457 400.042 505.989 398.962 L 505.989 398.962 L 505.989 398.962 Q 505.053 400.078 503.973 400.654 L 503.973 400.654 L 503.973 400.654 Q 502.893 401.23 501.525 401.23 L 501.525 401.23 L 501.525 401.23 Z  M 502.785 398.098 L 502.785 398.098 Q 504.297 398.098 505.485 396.406 L 505.485 396.406 L 505.485 392.266 L 505.485 392.266 Q 500.877 392.734 500.877 395.83 L 500.877 395.83 L 500.877 395.83 Q 500.877 398.098 502.785 398.098 L 502.785 398.098 L 502.785 398.098 Z  M 530.901 382.69 L 530.901 382.69 Q 533.853 382.69 535.329 384.58 L 535.329 384.58 L 535.329 384.58 Q 536.805 386.47 536.805 389.746 L 536.805 389.746 L 536.805 400.87 L 532.881 400.87 L 532.881 390.25 L 532.881 390.25 Q 532.881 388.09 532.233 387.028 L 532.233 387.028 L 532.233 387.028 Q 531.585 385.966 530.109 385.966 L 530.109 385.966 L 530.109 385.966 Q 528.633 385.966 527.841 386.938 L 527.841 386.938 L 527.841 386.938 Q 527.049 387.91 527.049 389.746 L 527.049 389.746 L 527.049 400.87 L 523.125 400.87 L 523.125 390.25 L 523.125 390.25 Q 523.125 385.966 520.425 385.966 L 520.425 385.966 L 520.425 385.966 Q 518.481 385.966 517.257 387.874 L 517.257 387.874 L 517.257 400.87 L 513.369 400.87 L 513.369 383.014 L 516.645 383.014 L 516.861 384.706 L 516.861 384.706 Q 518.481 382.69 521.325 382.69 L 521.325 382.69 L 521.325 382.69 Q 522.837 382.69 523.989 383.356 L 523.989 383.356 L 523.989 383.356 Q 525.141 384.022 525.825 385.246 L 525.825 385.246 L 525.825 385.246 Q 526.617 384.022 527.931 383.356 L 527.931 383.356 L 527.931 383.356 Q 529.245 382.69 530.901 382.69 L 530.901 382.69 L 530.901 382.69 Z  M 547.713 401.23 L 547.713 401.23 Q 545.013 401.23 543.105 399.97 L 543.105 399.97 L 543.105 399.97 Q 541.197 398.71 540.243 396.586 L 540.243 396.586 L 540.243 396.586 Q 539.289 394.462 539.289 391.87 L 539.289 391.87 L 539.289 391.87 Q 539.289 389.278 540.189 387.19 L 540.189 387.19 L 540.189 387.19 Q 541.089 385.102 542.799 383.896 L 542.799 383.896 L 542.799 383.896 Q 544.509 382.69 546.921 382.69 L 546.921 382.69 L 546.921 382.69 Q 549.945 382.69 551.745 384.796 L 551.745 384.796 L 551.745 384.796 Q 553.545 386.902 553.545 390.466 L 553.545 390.466 L 553.545 390.466 Q 553.545 391.366 553.365 392.554 L 553.365 392.554 L 543.285 392.554 L 543.285 392.554 Q 543.501 395.254 544.797 396.604 L 544.797 396.604 L 544.797 396.604 Q 546.093 397.954 548.073 397.954 L 548.073 397.954 L 548.073 397.954 Q 550.449 397.954 552.681 396.658 L 552.681 396.658 L 552.861 400.078 L 552.861 400.078 Q 550.737 401.23 547.713 401.23 L 547.713 401.23 L 547.713 401.23 Z  M 543.393 389.818 L 549.585 389.818 L 549.585 389.818 Q 549.585 388.054 548.901 387.01 L 548.901 387.01 L 548.901 387.01 Q 548.217 385.966 546.741 385.966 L 546.741 385.966 L 546.741 385.966 Q 545.373 385.966 544.509 386.938 L 544.509 386.938 L 544.509 386.938 Q 543.645 387.91 543.393 389.818 L 543.393 389.818 L 543.393 389.818 Z  M 560.709 401.23 L 560.709 401.23 Q 559.197 401.23 557.937 400.906 L 557.937 400.906 L 557.937 400.906 Q 556.677 400.582 555.453 399.898 L 555.453 399.898 L 555.849 396.334 L 555.849 396.334 Q 558.369 398.062 560.421 398.062 L 560.421 398.062 L 560.421 398.062 Q 561.645 398.062 562.329 397.576 L 562.329 397.576 L 562.329 397.576 Q 563.013 397.09 563.013 396.19 L 563.013 396.19 L 563.013 396.19 Q 563.013 395.218 562.365 394.642 L 562.365 394.642 L 562.365 394.642 Q 561.717 394.066 559.737 393.13 L 559.737 393.13 L 559.737 393.13 Q 557.577 392.122 556.587 390.952 L 556.587 390.952 L 556.587 390.952 Q 555.597 389.782 555.597 387.802 L 555.597 387.802 L 555.597 387.802 Q 555.597 385.534 557.199 384.112 L 557.199 384.112 L 557.199 384.112 Q 558.801 382.69 561.537 382.69 L 561.537 382.69 L 561.537 382.69 Q 564.093 382.69 566.181 383.95 L 566.181 383.95 L 565.785 387.37 L 565.785 387.37 Q 564.777 386.578 563.859 386.164 L 563.859 386.164 L 563.859 386.164 Q 562.941 385.75 561.789 385.75 L 561.789 385.75 L 561.789 385.75 Q 560.673 385.75 560.025 386.236 L 560.025 386.236 L 560.025 386.236 Q 559.377 386.722 559.377 387.586 L 559.377 387.586 L 559.377 387.586 Q 559.377 388.486 560.025 388.99 L 560.025 388.99 L 560.025 388.99 Q 560.673 389.494 562.617 390.466 L 562.617 390.466 L 562.617 390.466 Q 564.849 391.546 565.821 392.77 L 565.821 392.77 L 565.821 392.77 Q 566.793 393.994 566.793 395.938 L 566.793 395.938 L 566.793 395.938 Q 566.793 398.386 565.137 399.808 L 565.137 399.808 L 565.137 399.808 Q 563.481 401.23 560.709 401.23 L 560.709 401.23 L 560.709 401.23 Z  M 450.189 400.87 L 450.189 375.67 L 458.289 375.67 L 458.289 375.67 Q 461.385 375.67 463.815 377.182 L 463.815 377.182 L 463.815 377.182 Q 466.245 378.694 467.613 381.538 L 467.613 381.538 L 467.613 381.538 Q 468.981 384.382 468.981 388.27 L 468.981 388.27 L 468.981 388.27 Q 468.981 392.158 467.613 395.002 L 467.613 395.002 L 467.613 395.002 Q 466.245 397.846 463.815 399.358 L 463.815 399.358 L 463.815 399.358 Q 461.385 400.87 458.289 400.87 L 458.289 400.87 L 450.189 400.87 L 450.189 400.87 Z  M 454.185 397.198 L 458.073 397.198 L 458.073 397.198 Q 461.277 397.198 462.933 394.84 L 462.933 394.84 L 462.933 394.84 Q 464.589 392.482 464.589 388.27 L 464.589 388.27 L 464.589 388.27 Q 464.589 384.058 462.933 381.7 L 462.933 381.7 L 462.933 381.7 Q 461.277 379.342 458.073 379.342 L 458.073 379.342 L 454.185 379.342 L 454.185 397.198 L 454.185 397.198 Z  M 471.861 400.87 L 471.861 383.014 L 475.209 383.014 L 475.533 385.282 L 475.533 385.282 Q 476.613 383.95 477.567 383.32 L 477.567 383.32 L 477.567 383.32 Q 478.521 382.69 479.709 382.69 L 479.709 382.69 L 479.709 382.69 Q 480.177 382.69 480.573 382.798 L 480.573 382.798 L 480.249 386.866 L 480.249 386.866 Q 479.817 386.722 479.133 386.722 L 479.133 386.722 L 479.133 386.722 Q 477.333 386.722 475.785 388.522 L 475.785 388.522 L 475.785 400.87 L 471.861 400.87 L 471.861 400.87 Z " fill-rule="evenodd" fill="rgb(255,255,255)"/></svg>