<?xml version="1.0" standalone="no"?><!-- Generator: Gravit.io --><svg xmlns="http://www.w3.org/2000/svg" xmlns:xlink="http://www.w3.org/1999/xlink" style="isolation:isolate" viewBox="381.117 359.511 56.626 56.978" width="56.626" height="56.978"><g><linearGradient id="_lgradient_4" x1="0" y1="0.5" x2="1" y2="0.5" gradientTransform="matrix(-56.626,0,0,-37.751,437.743,416.489)" gradientUnits="userSpaceOnUse"><stop offset="1.3043478260869565%" stop-opacity="1" style="stop-color:rgb(75,174,231)"/><stop offset="97.82608695652173%" stop-opacity="1" style="stop-color:rgb(35,94,164)"/></linearGradient><path d=" M 418.806 407.051 L 437.743 388.114 L 428.367 378.738 L 409.43 397.675 L 390.493 378.738 L 381.117 388.114 L 400.054 407.051 L 399.992 407.113 L 409.368 416.489 L 409.43 416.427 L 409.491 416.489 L 418.868 407.113 L 418.806 407.051 Z " fill-rule="evenodd" fill="url(#_lgradient_4)"/><linearGradient id="_lgradient_5" x1="0" y1="0.5" x2="1" y2="0.5" gradientTransform="matrix(56.626,0,0,37.751,381.117,359.511)" gradientUnits="userSpaceOnUse"><stop offset="2.1739130434782608%" stop-opacity="1" style="stop-color:rgb(75,174,231)"/><stop offset="97.82608695652173%" stop-opacity="1" style="stop-color:rgb(35,94,164)"/></linearGradient><path d=" M 400.054 368.949 L 381.117 387.886 L 390.493 397.262 L 409.43 378.325 L 428.367 397.262 L 437.743 387.886 L 418.806 368.949 L 418.868 368.887 L 409.491 359.511 L 409.43 359.573 L 409.368 359.511 L 399.992 368.887 L 400.054 368.949 Z " fill-rule="evenodd" fill="url(#_lgradient_5)"/></g></svg>