<?xml version="1.0" standalone="no"?><!-- Generator: Gravit.io --><svg xmlns="http://www.w3.org/2000/svg" xmlns:xlink="http://www.w3.org/1999/xlink" style="isolation:isolate" viewBox="649.618 325.483 56.626 56.978" width="56.626" height="56.978"><g><linearGradient id="_lgradient_12" x1="0" y1="0.5" x2="1" y2="0.5" gradientTransform="matrix(-56.626,0,0,-37.751,706.244,382.461)" gradientUnits="userSpaceOnUse"><stop offset="1.3043478260869565%" stop-opacity="1" style="stop-color:rgb(75,174,231)"/><stop offset="97.82608695652173%" stop-opacity="1" style="stop-color:rgb(35,94,164)"/></linearGradient><path d=" M 687.307 373.023 L 706.244 354.086 L 696.868 344.71 L 677.931 363.647 L 658.994 344.71 L 649.618 354.086 L 668.555 373.023 L 668.493 373.085 L 677.869 382.461 L 677.931 382.399 L 677.993 382.461 L 687.369 373.085 L 687.307 373.023 Z " fill-rule="evenodd" fill="url(#_lgradient_12)"/><linearGradient id="_lgradient_13" x1="0" y1="0.5" x2="1" y2="0.5" gradientTransform="matrix(56.626,0,0,37.751,649.618,325.483)" gradientUnits="userSpaceOnUse"><stop offset="2.1739130434782608%" stop-opacity="1" style="stop-color:rgb(75,174,231)"/><stop offset="97.82608695652173%" stop-opacity="1" style="stop-color:rgb(35,94,164)"/></linearGradient><path d=" M 668.555 334.921 L 649.618 353.858 L 658.994 363.234 L 677.931 344.297 L 696.868 363.234 L 706.244 353.858 L 687.307 334.921 L 687.369 334.859 L 677.993 325.483 L 677.931 325.545 L 677.869 325.483 L 668.493 334.859 L 668.555 334.921 Z " fill-rule="evenodd" fill="url(#_lgradient_13)"/></g></svg>