<?xml version="1.0" standalone="no"?><!-- Generator: Gravit.io --><svg xmlns="http://www.w3.org/2000/svg" xmlns:xlink="http://www.w3.org/1999/xlink" style="isolation:isolate" viewBox="424.607 362.103 503.943 64.794" width="503.943" height="64.794"><path d=" M 467.733 416.098 L 489.402 394.43 L 478.673 383.701 L 457.005 405.369 L 435.336 383.701 L 424.607 394.43 L 446.276 416.098 L 446.206 416.169 L 456.934 426.897 L 457.005 426.827 L 457.075 426.897 L 467.804 416.169 L 467.733 416.098 Z " fill-rule="evenodd" fill="rgb(77,193,182)"/><path d=" M 446.276 372.902 L 424.607 394.57 L 435.336 405.299 L 457.005 383.631 L 478.673 405.299 L 489.402 394.57 L 467.733 372.902 L 467.804 372.831 L 457.075 362.103 L 457.005 362.173 L 456.934 362.103 L 446.206 372.831 L 446.276 372.902 Z " fill-rule="evenodd" fill="rgb(0,150,136)"/><path d=" M 850.338 411.66 L 850.338 378.06 L 856.482 378.06 L 856.482 391.356 L 871.842 391.356 L 871.842 378.06 L 877.986 378.06 L 877.986 411.66 L 871.842 411.66 L 871.842 397.116 L 856.482 397.116 L 856.482 411.66 L 850.338 411.66 L 850.338 411.66 Z  M 889.225 412.14 L 889.225 412.14 Q 886.249 412.14 884.257 410.196 L 884.257 410.196 L 884.257 410.196 Q 882.265 408.252 882.265 404.94 L 882.265 404.94 L 882.265 404.94 Q 882.265 401.82 884.521 399.924 L 884.521 399.924 L 884.521 399.924 Q 886.777 398.028 889.849 397.236 L 889.849 397.236 L 889.849 397.236 Q 892.921 396.444 895.753 396.348 L 895.753 396.348 L 895.753 396.348 Q 895.657 394.236 894.673 393.324 L 894.673 393.324 L 894.673 393.324 Q 893.689 392.412 891.433 392.412 L 891.433 392.412 L 891.433 392.412 Q 889.849 392.412 888.337 392.844 L 888.337 392.844 L 888.337 392.844 Q 886.825 393.276 884.857 394.236 L 884.857 394.236 L 884.329 389.388 L 884.329 389.388 Q 888.697 387.276 893.065 387.276 L 893.065 387.276 L 893.065 387.276 Q 897.289 387.276 899.521 389.58 L 899.521 389.58 L 899.521 389.58 Q 901.753 391.884 901.753 396.924 L 901.753 396.924 L 901.753 403.404 L 901.753 403.404 Q 901.753 405.228 901.921 406.02 L 901.921 406.02 L 901.921 406.02 Q 902.089 406.812 902.497 407.028 L 902.497 407.028 L 902.497 407.028 Q 902.905 407.244 903.865 407.244 L 903.865 407.244 L 904.633 407.244 L 904.105 412.14 L 901.945 412.14 L 901.945 412.14 Q 899.977 412.14 898.633 411.396 L 898.633 411.396 L 898.633 411.396 Q 897.289 410.652 896.569 409.356 L 896.569 409.356 L 896.569 409.356 Q 895.417 410.652 893.425 411.396 L 893.425 411.396 L 893.425 411.396 Q 891.433 412.14 889.225 412.14 L 889.225 412.14 L 889.225 412.14 Z  M 891.721 407.58 L 891.721 407.58 Q 892.633 407.58 893.785 407.124 L 893.785 407.124 L 893.785 407.124 Q 894.937 406.668 895.801 405.852 L 895.801 405.852 L 895.801 400.38 L 895.801 400.38 Q 892.921 400.524 890.713 401.628 L 890.713 401.628 L 890.713 401.628 Q 888.505 402.732 888.505 404.7 L 888.505 404.7 L 888.505 404.7 Q 888.505 406.188 889.273 406.884 L 889.273 406.884 L 889.273 406.884 Q 890.041 407.58 891.721 407.58 L 891.721 407.58 L 891.721 407.58 Z  M 913.663 412.14 L 913.663 412.14 Q 910.591 412.14 909.055 410.388 L 909.055 410.388 L 909.055 410.388 Q 907.519 408.636 907.519 405.852 L 907.519 405.852 L 907.519 375.66 L 913.471 375.66 L 913.471 403.404 L 913.471 403.404 Q 913.471 405.324 913.687 406.116 L 913.687 406.116 L 913.687 406.116 Q 913.903 406.908 914.455 407.076 L 914.455 407.076 L 914.455 407.076 Q 915.007 407.244 916.351 407.244 L 916.351 407.244 L 915.823 412.14 L 913.663 412.14 L 913.663 412.14 Z  M 925.862 412.14 L 925.862 412.14 Q 922.79 412.14 921.254 410.388 L 921.254 410.388 L 921.254 410.388 Q 919.718 408.636 919.718 405.852 L 919.718 405.852 L 919.718 375.66 L 925.67 375.66 L 925.67 403.404 L 925.67 403.404 Q 925.67 405.324 925.886 406.116 L 925.886 406.116 L 925.886 406.116 Q 926.102 406.908 926.654 407.076 L 926.654 407.076 L 926.654 407.076 Q 927.206 407.244 928.55 407.244 L 928.55 407.244 L 928.022 412.14 L 925.862 412.14 L 925.862 412.14 Z  M 711.941 412.332 L 711.941 412.332 Q 706.661 412.332 702.845 410.172 L 702.845 410.172 L 702.845 410.172 Q 699.029 408.012 697.013 404.052 L 697.013 404.052 L 697.013 404.052 Q 694.997 400.092 694.997 394.812 L 694.997 394.812 L 694.997 394.812 Q 694.997 389.628 697.229 385.668 L 697.229 385.668 L 697.229 385.668 Q 699.461 381.708 703.445 379.548 L 703.445 379.548 L 703.445 379.548 Q 707.429 377.388 712.565 377.388 L 712.565 377.388 L 712.565 377.388 Q 715.157 377.388 717.605 377.916 L 717.605 377.916 L 717.605 377.916 Q 720.053 378.444 721.829 379.356 L 721.829 379.356 L 721.157 385.212 L 721.157 385.212 Q 716.981 383.292 712.565 383.292 L 712.565 383.292 L 712.565 383.292 Q 707.189 383.292 704.453 386.436 L 704.453 386.436 L 704.453 386.436 Q 701.717 389.58 701.717 394.716 L 701.717 394.716 L 701.717 394.716 Q 701.717 400.044 704.405 403.236 L 704.405 403.236 L 704.405 403.236 Q 707.093 406.428 712.181 406.428 L 712.181 406.428 L 712.181 406.428 Q 714.245 406.428 716.789 405.9 L 716.789 405.9 L 716.789 399.9 L 712.181 399.9 L 712.181 394.812 L 722.933 394.812 L 722.933 409.788 L 722.933 409.788 Q 721.061 410.892 718.157 411.612 L 718.157 411.612 L 718.157 411.612 Q 715.253 412.332 711.941 412.332 L 711.941 412.332 L 711.941 412.332 Z  M 727.547 411.66 L 727.547 387.66 L 733.115 387.66 L 733.259 390.204 L 733.259 390.204 Q 734.315 389.004 735.971 388.092 L 735.971 388.092 L 735.971 388.092 Q 737.627 387.18 739.451 387.18 L 739.451 387.18 L 739.451 387.18 Q 740.027 387.18 740.507 387.276 L 740.507 387.276 L 740.075 393.132 L 740.075 393.132 Q 739.163 392.892 738.011 392.892 L 738.011 392.892 L 738.011 392.892 Q 736.523 392.892 735.275 393.588 L 735.275 393.588 L 735.275 393.588 Q 734.027 394.284 733.499 395.292 L 733.499 395.292 L 733.499 411.66 L 727.547 411.66 L 727.547 411.66 Z  M 742.962 384.012 L 742.962 378.06 L 748.914 378.06 L 748.914 384.012 L 742.962 384.012 L 742.962 384.012 Z  M 742.962 411.66 L 742.962 387.66 L 748.914 387.66 L 748.914 411.66 L 742.962 411.66 L 742.962 411.66 Z  M 755.497 411.66 L 755.497 392.556 L 752.089 392.556 L 752.617 387.66 L 755.497 387.66 L 755.497 382.572 L 755.497 382.572 Q 755.497 379.356 757.393 377.508 L 757.393 377.508 L 757.393 377.508 Q 759.289 375.66 762.793 375.66 L 762.793 375.66 L 762.793 375.66 Q 764.761 375.66 766.681 376.092 L 766.681 376.092 L 766.153 380.892 L 766.153 380.892 Q 765.337 380.652 764.281 380.652 L 764.281 380.652 L 764.281 380.652 Q 761.449 380.652 761.449 383.628 L 761.449 383.628 L 761.449 387.66 L 766.729 387.66 L 766.729 392.556 L 761.449 392.556 L 761.449 411.66 L 755.497 411.66 L 755.497 411.66 Z  M 771.392 411.66 L 771.392 392.556 L 767.984 392.556 L 768.512 387.66 L 771.392 387.66 L 771.392 382.572 L 771.392 382.572 Q 771.392 379.356 773.288 377.508 L 773.288 377.508 L 773.288 377.508 Q 775.184 375.66 778.688 375.66 L 778.688 375.66 L 778.688 375.66 Q 780.656 375.66 782.576 376.092 L 782.576 376.092 L 782.048 380.892 L 782.048 380.892 Q 781.232 380.652 780.176 380.652 L 780.176 380.652 L 780.176 380.652 Q 777.344 380.652 777.344 383.628 L 777.344 383.628 L 777.344 387.66 L 782.624 387.66 L 782.624 392.556 L 777.344 392.556 L 777.344 411.66 L 771.392 411.66 L 771.392 411.66 Z  M 785.847 384.012 L 785.847 378.06 L 791.799 378.06 L 791.799 384.012 L 785.847 384.012 L 785.847 384.012 Z  M 785.847 411.66 L 785.847 387.66 L 791.799 387.66 L 791.799 411.66 L 785.847 411.66 L 785.847 411.66 Z  M 804.765 412.14 L 804.765 412.14 Q 801.597 412.14 799.965 410.292 L 799.965 410.292 L 799.965 410.292 Q 798.333 408.444 798.333 405.852 L 798.333 405.852 L 798.333 392.556 L 794.925 392.556 L 795.453 387.66 L 798.333 387.66 L 798.333 382.38 L 804.285 381.756 L 804.285 387.66 L 809.565 387.66 L 809.565 392.556 L 804.285 392.556 L 804.285 403.404 L 804.285 403.404 Q 804.285 405.324 804.501 406.068 L 804.501 406.068 L 804.501 406.068 Q 804.717 406.812 805.413 407.028 L 805.413 407.028 L 805.413 407.028 Q 806.109 407.244 807.933 407.244 L 807.933 407.244 L 809.565 407.244 L 809.037 412.14 L 804.765 412.14 L 804.765 412.14 Z  M 825.124 387.276 L 825.124 387.276 Q 829.684 387.276 831.916 390.228 L 831.916 390.228 L 831.916 390.228 Q 834.148 393.18 834.148 398.316 L 834.148 398.316 L 834.148 411.66 L 828.196 411.66 L 828.196 398.748 L 828.196 398.748 Q 828.196 395.34 827.092 393.756 L 827.092 393.756 L 827.092 393.756 Q 825.988 392.172 823.588 392.172 L 823.588 392.172 L 823.588 392.172 Q 820.756 392.172 818.932 394.236 L 818.932 394.236 L 818.932 411.66 L 812.98 411.66 L 812.98 375.66 L 818.932 375.66 L 818.932 389.196 L 818.932 389.196 Q 820.372 388.284 821.86 387.78 L 821.86 387.78 L 821.86 387.78 Q 823.348 387.276 825.124 387.276 L 825.124 387.276 L 825.124 387.276 Z  M 561.228 419.916 L 560.7 414.636 L 560.7 414.636 Q 562.812 414.636 563.7 413.724 L 563.7 413.724 L 563.7 413.724 Q 564.588 412.812 564.588 410.508 L 564.588 410.508 L 564.588 378.06 L 570.732 378.06 L 570.732 411.852 L 570.732 411.852 Q 570.732 416.076 568.716 417.996 L 568.716 417.996 L 568.716 417.996 Q 566.7 419.916 562.956 419.916 L 562.956 419.916 L 561.228 419.916 L 561.228 419.916 Z  M 581.971 412.14 L 581.971 412.14 Q 578.995 412.14 577.003 410.196 L 577.003 410.196 L 577.003 410.196 Q 575.011 408.252 575.011 404.94 L 575.011 404.94 L 575.011 404.94 Q 575.011 401.82 577.267 399.924 L 577.267 399.924 L 577.267 399.924 Q 579.523 398.028 582.595 397.236 L 582.595 397.236 L 582.595 397.236 Q 585.667 396.444 588.499 396.348 L 588.499 396.348 L 588.499 396.348 Q 588.403 394.236 587.419 393.324 L 587.419 393.324 L 587.419 393.324 Q 586.435 392.412 584.179 392.412 L 584.179 392.412 L 584.179 392.412 Q 582.595 392.412 581.083 392.844 L 581.083 392.844 L 581.083 392.844 Q 579.571 393.276 577.603 394.236 L 577.603 394.236 L 577.075 389.388 L 577.075 389.388 Q 581.443 387.276 585.811 387.276 L 585.811 387.276 L 585.811 387.276 Q 590.035 387.276 592.267 389.58 L 592.267 389.58 L 592.267 389.58 Q 594.499 391.884 594.499 396.924 L 594.499 396.924 L 594.499 403.404 L 594.499 403.404 Q 594.499 405.228 594.667 406.02 L 594.667 406.02 L 594.667 406.02 Q 594.835 406.812 595.243 407.028 L 595.243 407.028 L 595.243 407.028 Q 595.651 407.244 596.611 407.244 L 596.611 407.244 L 597.379 407.244 L 596.851 412.14 L 594.691 412.14 L 594.691 412.14 Q 592.723 412.14 591.379 411.396 L 591.379 411.396 L 591.379 411.396 Q 590.035 410.652 589.315 409.356 L 589.315 409.356 L 589.315 409.356 Q 588.163 410.652 586.171 411.396 L 586.171 411.396 L 586.171 411.396 Q 584.179 412.14 581.971 412.14 L 581.971 412.14 L 581.971 412.14 Z  M 584.467 407.58 L 584.467 407.58 Q 585.379 407.58 586.531 407.124 L 586.531 407.124 L 586.531 407.124 Q 587.683 406.668 588.547 405.852 L 588.547 405.852 L 588.547 400.38 L 588.547 400.38 Q 585.667 400.524 583.459 401.628 L 583.459 401.628 L 583.459 401.628 Q 581.251 402.732 581.251 404.7 L 581.251 404.7 L 581.251 404.7 Q 581.251 406.188 582.019 406.884 L 582.019 406.884 L 582.019 406.884 Q 582.787 407.58 584.467 407.58 L 584.467 407.58 L 584.467 407.58 Z  M 627.193 387.276 L 627.193 387.276 Q 631.993 387.276 634.321 390.18 L 634.321 390.18 L 634.321 390.18 Q 636.649 393.084 636.649 398.316 L 636.649 398.316 L 636.649 411.66 L 630.697 411.66 L 630.697 398.748 L 630.697 398.748 Q 630.697 395.34 629.641 393.756 L 629.641 393.756 L 629.641 393.756 Q 628.585 392.172 626.185 392.172 L 626.185 392.172 L 626.185 392.172 Q 623.833 392.172 622.633 393.78 L 622.633 393.78 L 622.633 393.78 Q 621.433 395.388 621.433 398.316 L 621.433 398.316 L 621.433 411.66 L 615.481 411.66 L 615.481 398.748 L 615.481 398.748 Q 615.481 395.34 614.377 393.756 L 614.377 393.756 L 614.377 393.756 Q 613.273 392.172 610.873 392.172 L 610.873 392.172 L 610.873 392.172 Q 608.041 392.172 606.217 394.236 L 606.217 394.236 L 606.217 411.66 L 600.265 411.66 L 600.265 387.66 L 605.353 387.66 L 605.545 389.58 L 605.545 389.58 Q 608.809 387.276 612.601 387.276 L 612.601 387.276 L 612.601 387.276 Q 617.209 387.276 619.465 390.588 L 619.465 390.588 L 619.465 390.588 Q 620.713 389.004 622.729 388.14 L 622.729 388.14 L 622.729 388.14 Q 624.745 387.276 627.193 387.276 L 627.193 387.276 L 627.193 387.276 Z  M 653.12 412.14 L 653.12 412.14 Q 648.944 412.14 645.992 410.436 L 645.992 410.436 L 645.992 410.436 Q 643.04 408.732 641.576 405.876 L 641.576 405.876 L 641.576 405.876 Q 640.112 403.02 640.112 399.516 L 640.112 399.516 L 640.112 399.516 Q 640.112 396.156 641.504 393.372 L 641.504 393.372 L 641.504 393.372 Q 642.896 390.588 645.536 388.932 L 645.536 388.932 L 645.536 388.932 Q 648.176 387.276 651.824 387.276 L 651.824 387.276 L 651.824 387.276 Q 655.184 387.276 657.512 388.668 L 657.512 388.668 L 657.512 388.668 Q 659.84 390.06 661.016 392.412 L 661.016 392.412 L 661.016 392.412 Q 662.192 394.764 662.192 397.692 L 662.192 397.692 L 662.192 397.692 Q 662.192 399.132 661.808 400.956 L 661.808 400.956 L 646.304 400.956 L 646.304 400.956 Q 646.784 404.124 648.8 405.684 L 648.8 405.684 L 648.8 405.684 Q 650.816 407.244 653.648 407.244 L 653.648 407.244 L 653.648 407.244 Q 657.536 407.244 660.848 405.276 L 660.848 405.276 L 661.136 410.316 L 661.136 410.316 Q 659.6 411.132 657.56 411.636 L 657.56 411.636 L 657.56 411.636 Q 655.52 412.14 653.12 412.14 L 653.12 412.14 L 653.12 412.14 Z  M 646.448 396.924 L 656.144 396.924 L 656.144 396.924 Q 656.144 395.052 655.088 393.612 L 655.088 393.612 L 655.088 393.612 Q 654.032 392.172 651.824 392.172 L 651.824 392.172 L 651.824 392.172 Q 649.616 392.172 648.272 393.468 L 648.272 393.468 L 648.272 393.468 Q 646.928 394.764 646.448 396.924 L 646.448 396.924 L 646.448 396.924 Z  M 672.663 412.14 L 672.663 412.14 Q 670.359 412.14 668.463 411.708 L 668.463 411.708 L 668.463 411.708 Q 666.567 411.276 664.551 410.364 L 664.551 410.364 L 665.079 405.276 L 665.079 405.276 Q 667.095 406.476 668.847 407.076 L 668.847 407.076 L 668.847 407.076 Q 670.599 407.676 672.471 407.676 L 672.471 407.676 L 672.471 407.676 Q 676.119 407.676 676.119 405.276 L 676.119 405.276 L 676.119 405.276 Q 676.119 403.98 675.159 403.284 L 675.159 403.284 L 675.159 403.284 Q 674.199 402.588 671.703 401.628 L 671.703 401.628 L 671.703 401.628 Q 668.151 400.332 666.471 398.676 L 666.471 398.676 L 666.471 398.676 Q 664.791 397.02 664.791 394.188 L 664.791 394.188 L 664.791 394.188 Q 664.791 391.068 667.191 389.124 L 667.191 389.124 L 667.191 389.124 Q 669.591 387.18 673.671 387.18 L 673.671 387.18 L 673.671 387.18 Q 677.751 387.18 681.111 389.052 L 681.111 389.052 L 680.583 394.14 L 680.583 394.14 Q 678.759 392.892 677.151 392.22 L 677.151 392.22 L 677.151 392.22 Q 675.543 391.548 673.767 391.548 L 673.767 391.548 L 673.767 391.548 Q 672.231 391.548 671.391 392.172 L 671.391 392.172 L 671.391 392.172 Q 670.551 392.796 670.551 393.948 L 670.551 393.948 L 670.551 393.948 Q 670.551 394.86 671.055 395.436 L 671.055 395.436 L 671.055 395.436 Q 671.559 396.012 672.471 396.468 L 672.471 396.468 L 672.471 396.468 Q 673.383 396.924 675.495 397.74 L 675.495 397.74 L 675.495 397.74 Q 678.999 399.084 680.535 400.692 L 680.535 400.692 L 680.535 400.692 Q 682.071 402.3 682.071 404.988 L 682.071 404.988 L 682.071 404.988 Q 682.071 408.396 679.623 410.268 L 679.623 410.268 L 679.623 410.268 Q 677.175 412.14 672.663 412.14 L 672.663 412.14 L 672.663 412.14 Z  M 504.663 411.66 L 504.663 378.06 L 517.239 378.06 L 517.239 378.06 Q 522.039 378.06 525.807 380.076 L 525.807 380.076 L 525.807 380.076 Q 529.575 382.092 531.687 385.884 L 531.687 385.884 L 531.687 385.884 Q 533.799 389.676 533.799 394.86 L 533.799 394.86 L 533.799 394.86 Q 533.799 400.044 531.687 403.836 L 531.687 403.836 L 531.687 403.836 Q 529.575 407.628 525.807 409.644 L 525.807 409.644 L 525.807 409.644 Q 522.039 411.66 517.239 411.66 L 517.239 411.66 L 504.663 411.66 L 504.663 411.66 Z  M 510.807 406.188 L 517.239 406.188 L 517.239 406.188 Q 522.039 406.188 524.559 403.188 L 524.559 403.188 L 524.559 403.188 Q 527.079 400.188 527.079 394.86 L 527.079 394.86 L 527.079 394.86 Q 527.079 389.532 524.559 386.532 L 524.559 386.532 L 524.559 386.532 Q 522.039 383.532 517.239 383.532 L 517.239 383.532 L 510.807 383.532 L 510.807 406.188 L 510.807 406.188 Z  M 537.886 411.66 L 537.886 387.66 L 543.454 387.66 L 543.598 390.204 L 543.598 390.204 Q 544.654 389.004 546.31 388.092 L 546.31 388.092 L 546.31 388.092 Q 547.966 387.18 549.79 387.18 L 549.79 387.18 L 549.79 387.18 Q 550.366 387.18 550.846 387.276 L 550.846 387.276 L 550.414 393.132 L 550.414 393.132 Q 549.502 392.892 548.35 392.892 L 548.35 392.892 L 548.35 392.892 Q 546.862 392.892 545.614 393.588 L 545.614 393.588 L 545.614 393.588 Q 544.366 394.284 543.838 395.292 L 543.838 395.292 L 543.838 411.66 L 537.886 411.66 L 537.886 411.66 Z " fill-rule="evenodd" fill="rgb(68,68,68)"/></svg>