<?xml version="1.0" standalone="no"?><!-- Generator: Gravit.io --><svg xmlns="http://www.w3.org/2000/svg" xmlns:xlink="http://www.w3.org/1999/xlink" style="isolation:isolate" viewBox="381.117 359.511 441.063 56.978" width="441.063" height="56.978"><g><linearGradient id="_lgradient_2" x1="0" y1="0.5" x2="1" y2="0.5" gradientTransform="matrix(-56.626,0,0,-37.751,437.743,416.489)" gradientUnits="userSpaceOnUse"><stop offset="1.3043478260869565%" stop-opacity="1" style="stop-color:rgb(75,174,231)"/><stop offset="97.82608695652173%" stop-opacity="1" style="stop-color:rgb(35,94,164)"/></linearGradient><path d=" M 418.806 407.051 L 437.743 388.114 L 428.367 378.738 L 409.43 397.675 L 390.493 378.738 L 381.117 388.114 L 400.054 407.051 L 399.992 407.113 L 409.368 416.489 L 409.43 416.427 L 409.491 416.489 L 418.868 407.113 L 418.806 407.051 Z " fill-rule="evenodd" fill="url(#_lgradient_2)"/><linearGradient id="_lgradient_3" x1="0" y1="0.5" x2="1" y2="0.5" gradientTransform="matrix(56.626,0,0,37.751,381.117,359.511)" gradientUnits="userSpaceOnUse"><stop offset="2.1739130434782608%" stop-opacity="1" style="stop-color:rgb(75,174,231)"/><stop offset="97.82608695652173%" stop-opacity="1" style="stop-color:rgb(35,94,164)"/></linearGradient><path d=" M 400.054 368.949 L 381.117 387.886 L 390.493 397.262 L 409.43 378.325 L 428.367 397.262 L 437.743 387.886 L 418.806 368.949 L 418.868 368.887 L 409.491 359.511 L 409.43 359.573 L 409.368 359.511 L 399.992 368.887 L 400.054 368.949 Z " fill-rule="evenodd" fill="url(#_lgradient_3)"/></g><path d=" M 742.944 402 L 742.944 376.8 L 747.336 376.8 L 747.336 397.968 L 755.832 397.968 L 755.832 402 L 742.944 402 Z  M 764.868 402.36 L 764.868 402.36 Q 762.42 402.36 760.62 401.1 L 760.62 401.1 L 760.62 401.1 Q 758.82 399.84 757.866 397.716 L 757.866 397.716 L 757.866 397.716 Q 756.912 395.592 756.912 393.036 L 756.912 393.036 L 756.912 393.036 Q 756.912 390.48 757.866 388.356 L 757.866 388.356 L 757.866 388.356 Q 758.82 386.232 760.62 384.972 L 760.62 384.972 L 760.62 384.972 Q 762.42 383.712 764.868 383.712 L 764.868 383.712 L 764.868 383.712 Q 767.316 383.712 769.134 384.972 L 769.134 384.972 L 769.134 384.972 Q 770.952 386.232 771.906 388.356 L 771.906 388.356 L 771.906 388.356 Q 772.86 390.48 772.86 393.036 L 772.86 393.036 L 772.86 393.036 Q 772.86 395.592 771.906 397.716 L 771.906 397.716 L 771.906 397.716 Q 770.952 399.84 769.134 401.1 L 769.134 401.1 L 769.134 401.1 Q 767.316 402.36 764.868 402.36 L 764.868 402.36 Z  M 764.868 398.832 L 764.868 398.832 Q 766.56 398.832 767.514 397.248 L 767.514 397.248 L 767.514 397.248 Q 768.468 395.664 768.468 393.036 L 768.468 393.036 L 768.468 393.036 Q 768.468 390.408 767.514 388.824 L 767.514 388.824 L 767.514 388.824 Q 766.56 387.24 764.868 387.24 L 764.868 387.24 L 764.868 387.24 Q 763.212 387.24 762.258 388.842 L 762.258 388.842 L 762.258 388.842 Q 761.304 390.444 761.304 393.036 L 761.304 393.036 L 761.304 393.036 Q 761.304 395.628 762.258 397.23 L 762.258 397.23 L 762.258 397.23 Q 763.212 398.832 764.868 398.832 L 764.868 398.832 Z  M 785.352 375 L 789.672 375 L 789.672 402 L 785.604 402 L 785.532 400.848 L 785.532 400.848 Q 784.668 401.604 783.678 401.982 L 783.678 401.982 L 783.678 401.982 Q 782.688 402.36 781.392 402.36 L 781.392 402.36 L 781.392 402.36 Q 779.16 402.36 777.54 401.1 L 777.54 401.1 L 777.54 401.1 Q 775.92 399.84 775.092 397.716 L 775.092 397.716 L 775.092 397.716 Q 774.264 395.592 774.264 393.036 L 774.264 393.036 L 774.264 393.036 Q 774.264 390.48 775.092 388.356 L 775.092 388.356 L 775.092 388.356 Q 775.92 386.232 777.54 384.972 L 777.54 384.972 L 777.54 384.972 Q 779.16 383.712 781.392 383.712 L 781.392 383.712 L 781.392 383.712 Q 783.732 383.712 785.352 385.116 L 785.352 385.116 L 785.352 375 Z  M 782.04 398.832 L 782.04 398.832 Q 783.804 398.832 784.686 397.266 L 784.686 397.266 L 784.686 397.266 Q 785.568 395.7 785.568 393.036 L 785.568 393.036 L 785.568 393.036 Q 785.568 390.372 784.686 388.806 L 784.686 388.806 L 784.686 388.806 Q 783.804 387.24 782.04 387.24 L 782.04 387.24 L 782.04 387.24 Q 780.456 387.24 779.556 388.824 L 779.556 388.824 L 779.556 388.824 Q 778.656 390.408 778.656 393.036 L 778.656 393.036 L 778.656 393.036 Q 778.656 395.664 779.556 397.248 L 779.556 397.248 L 779.556 397.248 Q 780.456 398.832 782.04 398.832 L 782.04 398.832 Z  M 799.392 411 L 799.392 411 Q 796.152 411 794.19 409.668 L 794.19 409.668 L 794.19 409.668 Q 792.228 408.336 792.228 405.96 L 792.228 405.96 L 792.228 405.96 Q 792.228 404.628 792.912 403.62 L 792.912 403.62 L 792.912 403.62 Q 793.596 402.612 794.928 401.82 L 794.928 401.82 L 794.928 401.82 Q 793.38 400.92 793.38 399.336 L 793.38 399.336 L 793.38 399.336 Q 793.38 397.788 795.072 396.78 L 795.072 396.78 L 795.072 396.78 Q 793.776 395.808 793.056 394.242 L 793.056 394.242 L 793.056 394.242 Q 792.336 392.676 792.336 390.804 L 792.336 390.804 L 792.336 390.804 Q 792.336 388.824 793.11 387.204 L 793.11 387.204 L 793.11 387.204 Q 793.884 385.584 795.36 384.648 L 795.36 384.648 L 795.36 384.648 Q 796.836 383.712 798.816 383.712 L 798.816 383.712 L 798.816 383.712 Q 801.156 383.712 802.776 385.008 L 802.776 385.008 L 802.776 385.008 Q 804.252 383.712 805.8 383.712 L 805.8 383.712 L 805.8 383.712 Q 806.268 383.712 806.7 383.784 L 806.7 383.784 L 806.376 386.556 L 806.376 386.556 Q 806.016 386.484 805.656 386.484 L 805.656 386.484 L 805.656 386.484 Q 804.9 386.484 804.288 386.772 L 804.288 386.772 L 804.288 386.772 Q 805.296 388.5 805.296 390.804 L 805.296 390.804 L 805.296 390.804 Q 805.296 392.784 804.522 394.404 L 804.522 394.404 L 804.522 394.404 Q 803.748 396.024 802.272 396.978 L 802.272 396.978 L 802.272 396.978 Q 800.796 397.932 798.816 397.932 L 798.816 397.932 L 798.816 397.932 Q 798.024 397.932 797.448 397.788 L 797.448 397.788 L 797.448 397.788 Q 797.124 398.04 797.124 398.4 L 797.124 398.4 L 797.124 398.4 Q 797.124 398.76 797.376 398.958 L 797.376 398.958 L 797.376 398.958 Q 797.628 399.156 798.24 399.3 L 798.24 399.3 L 801.948 400.164 L 801.948 400.164 Q 804.576 400.776 805.764 401.982 L 805.764 401.982 L 805.764 401.982 Q 806.952 403.188 806.952 405.348 L 806.952 405.348 L 806.952 405.348 Q 806.952 407.04 805.998 408.318 L 805.998 408.318 L 805.998 408.318 Q 805.044 409.596 803.316 410.298 L 803.316 410.298 L 803.316 410.298 Q 801.588 411 799.392 411 L 799.392 411 Z  M 798.816 394.692 L 798.816 394.692 Q 800.004 394.692 800.67 393.63 L 800.67 393.63 L 800.67 393.63 Q 801.336 392.568 801.336 390.804 L 801.336 390.804 L 801.336 390.804 Q 801.336 389.076 800.67 388.014 L 800.67 388.014 L 800.67 388.014 Q 800.004 386.952 798.816 386.952 L 798.816 386.952 L 798.816 386.952 Q 797.592 386.952 796.944 388.014 L 796.944 388.014 L 796.944 388.014 Q 796.296 389.076 796.296 390.804 L 796.296 390.804 L 796.296 390.804 Q 796.296 392.568 796.944 393.63 L 796.944 393.63 L 796.944 393.63 Q 797.592 394.692 798.816 394.692 L 798.816 394.692 Z  M 799.5 407.76 L 799.5 407.76 Q 801.156 407.76 802.182 407.202 L 802.182 407.202 L 802.182 407.202 Q 803.208 406.644 803.208 405.6 L 803.208 405.6 L 803.208 405.6 Q 803.208 404.736 802.65 404.25 L 802.65 404.25 L 802.65 404.25 Q 802.092 403.764 800.724 403.44 L 800.724 403.44 L 797.628 402.684 L 797.628 402.684 Q 796.656 403.26 796.17 403.89 L 796.17 403.89 L 796.17 403.89 Q 795.684 404.52 795.684 405.348 L 795.684 405.348 L 795.684 405.348 Q 795.684 406.5 796.728 407.13 L 796.728 407.13 L 796.728 407.13 Q 797.772 407.76 799.5 407.76 L 799.5 407.76 Z  M 816.276 402.36 L 816.276 402.36 Q 813.54 402.36 811.632 401.1 L 811.632 401.1 L 811.632 401.1 Q 809.724 399.84 808.77 397.716 L 808.77 397.716 L 808.77 397.716 Q 807.816 395.592 807.816 393 L 807.816 393 L 807.816 393 Q 807.816 390.336 808.716 388.23 L 808.716 388.23 L 808.716 388.23 Q 809.616 386.124 811.38 384.918 L 811.38 384.918 L 811.38 384.918 Q 813.144 383.712 815.592 383.712 L 815.592 383.712 L 815.592 383.712 Q 818.652 383.712 820.416 385.872 L 820.416 385.872 L 820.416 385.872 Q 822.18 388.032 822.18 391.668 L 822.18 391.668 L 822.18 391.668 Q 822.18 392.712 821.964 393.972 L 821.964 393.972 L 812.28 393.972 L 812.28 393.972 Q 812.496 396.42 813.72 397.626 L 813.72 397.626 L 813.72 397.626 Q 814.944 398.832 816.744 398.832 L 816.744 398.832 L 816.744 398.832 Q 819.192 398.832 821.388 397.392 L 821.388 397.392 L 821.496 401.172 L 821.496 401.172 Q 819.3 402.36 816.276 402.36 L 816.276 402.36 Z  M 812.316 390.948 L 817.824 390.948 L 817.824 390.948 Q 817.824 387.24 815.304 387.24 L 815.304 387.24 L 815.304 387.24 Q 812.82 387.24 812.316 390.948 L 812.316 390.948 Z  M 681.456 402 L 681.456 376.8 L 685.848 376.8 L 685.848 386.772 L 695.208 386.772 L 695.208 376.8 L 699.6 376.8 L 699.6 402 L 695.208 402 L 695.208 391.092 L 685.848 391.092 L 685.848 402 L 681.456 402 Z  M 707.196 402.36 L 707.196 402.36 Q 705.18 402.36 703.794 401.046 L 703.794 401.046 L 703.794 401.046 Q 702.408 399.732 702.408 397.356 L 702.408 397.356 L 702.408 397.356 Q 702.408 394.872 703.902 393.378 L 703.902 393.378 L 703.902 393.378 Q 705.396 391.884 707.358 391.236 L 707.358 391.236 L 707.358 391.236 Q 709.32 390.588 710.94 390.516 L 710.94 390.516 L 710.94 390.516 Q 710.94 388.932 710.364 388.248 L 710.364 388.248 L 710.364 388.248 Q 709.788 387.564 708.384 387.564 L 708.384 387.564 L 708.384 387.564 Q 707.304 387.564 706.296 387.906 L 706.296 387.906 L 706.296 387.906 Q 705.288 388.248 704.028 388.932 L 704.028 388.932 L 703.74 385.296 L 703.74 385.296 Q 706.62 383.712 709.536 383.712 L 709.536 383.712 L 709.536 383.712 Q 712.236 383.712 713.766 385.314 L 713.766 385.314 L 713.766 385.314 Q 715.296 386.916 715.296 390.372 L 715.296 390.372 L 715.296 395.808 L 715.296 395.808 Q 715.296 397.14 715.404 397.752 L 715.404 397.752 L 715.404 397.752 Q 715.512 398.364 715.746 398.526 L 715.746 398.526 L 715.746 398.526 Q 715.98 398.688 716.484 398.688 L 716.484 398.688 L 717.06 398.688 L 716.772 402.36 L 714.864 402.36 L 714.864 402.36 Q 713.856 402.36 712.938 401.784 L 712.938 401.784 L 712.938 401.784 Q 712.02 401.208 711.588 400.272 L 711.588 400.272 L 711.588 400.272 Q 710.616 401.316 709.608 401.838 L 709.608 401.838 L 709.608 401.838 Q 708.6 402.36 707.196 402.36 L 707.196 402.36 Z  M 708.672 398.94 L 708.672 398.94 Q 709.896 398.94 710.976 397.644 L 710.976 397.644 L 710.976 393.54 L 710.976 393.54 Q 709.248 393.756 708.096 394.566 L 708.096 394.566 L 708.096 394.566 Q 706.944 395.376 706.944 396.924 L 706.944 396.924 L 706.944 396.924 Q 706.944 397.968 707.412 398.454 L 707.412 398.454 L 707.412 398.454 Q 707.88 398.94 708.672 398.94 L 708.672 398.94 Z  M 722.82 402.36 L 722.82 402.36 Q 720.84 402.36 719.85 401.1 L 719.85 401.1 L 719.85 401.1 Q 718.86 399.84 718.86 397.644 L 718.86 397.644 L 718.86 375 L 723.18 375 L 723.18 396.168 L 723.18 396.168 Q 723.18 397.68 723.486 398.184 L 723.486 398.184 L 723.486 398.184 Q 723.792 398.688 724.8 398.688 L 724.8 398.688 L 724.44 402.36 L 722.82 402.36 Z  M 731.028 402.36 L 731.028 402.36 Q 729.048 402.36 728.058 401.1 L 728.058 401.1 L 728.058 401.1 Q 727.068 399.84 727.068 397.644 L 727.068 397.644 L 727.068 375 L 731.388 375 L 731.388 396.168 L 731.388 396.168 Q 731.388 397.68 731.694 398.184 L 731.694 398.184 L 731.694 398.184 Q 732 398.688 733.008 398.688 L 733.008 398.688 L 732.648 402.36 L 731.028 402.36 Z  M 589.62 402.504 L 589.62 402.504 Q 586.272 402.504 583.734 400.884 L 583.734 400.884 L 583.734 400.884 Q 581.196 399.264 579.792 396.294 L 579.792 396.294 L 579.792 396.294 Q 578.388 393.324 578.388 389.4 L 578.388 389.4 L 578.388 389.4 Q 578.388 385.44 579.864 382.47 L 579.864 382.47 L 579.864 382.47 Q 581.34 379.5 583.932 377.898 L 583.932 377.898 L 583.932 377.898 Q 586.524 376.296 589.8 376.296 L 589.8 376.296 L 589.8 376.296 Q 593.004 376.296 595.704 377.484 L 595.704 377.484 L 595.2 381.876 L 595.2 381.876 Q 593.796 381.3 592.734 381.012 L 592.734 381.012 L 592.734 381.012 Q 591.672 380.724 590.376 380.724 L 590.376 380.724 L 590.376 380.724 Q 586.992 380.724 585.102 383.028 L 585.102 383.028 L 585.102 383.028 Q 583.212 385.332 583.212 389.4 L 583.212 389.4 L 583.212 389.4 Q 583.212 393.54 584.958 395.808 L 584.958 395.808 L 584.958 395.808 Q 586.704 398.076 590.016 398.076 L 590.016 398.076 L 590.016 398.076 Q 591.132 398.076 592.032 397.752 L 592.032 397.752 L 592.032 393.396 L 589.152 393.396 L 589.152 389.364 L 596.424 389.364 L 596.424 400.668 L 596.424 400.668 Q 595.2 401.532 593.436 402.018 L 593.436 402.018 L 593.436 402.018 Q 591.672 402.504 589.62 402.504 L 589.62 402.504 Z  M 599.484 402 L 599.484 384 L 603.264 384 L 603.552 385.908 L 603.552 385.908 Q 604.56 384.792 605.442 384.252 L 605.442 384.252 L 605.442 384.252 Q 606.324 383.712 607.512 383.712 L 607.512 383.712 L 607.512 383.712 Q 608.016 383.712 608.448 383.82 L 608.448 383.82 L 608.124 388.176 L 608.124 388.176 Q 607.584 387.996 606.972 387.996 L 606.972 387.996 L 606.972 387.996 Q 606.108 387.996 605.424 388.392 L 605.424 388.392 L 605.424 388.392 Q 604.74 388.788 603.804 389.724 L 603.804 389.724 L 603.804 402 L 599.484 402 Z  M 609.78 381.264 L 609.78 376.8 L 614.1 376.8 L 614.1 381.264 L 609.78 381.264 Z  M 609.78 402 L 609.78 384 L 614.1 384 L 614.1 402 L 609.78 402 Z  M 618.276 402 L 618.276 387.672 L 616.26 387.672 L 616.584 384 L 618.276 384 L 618.276 380.184 L 618.276 380.184 Q 618.276 377.844 619.554 376.422 L 619.554 376.422 L 619.554 376.422 Q 620.832 375 623.352 375 L 623.352 375 L 623.352 375 Q 624.72 375 625.728 375.36 L 625.728 375.36 L 625.404 378.924 L 625.404 378.924 Q 624.936 378.744 624.396 378.744 L 624.396 378.744 L 624.396 378.744 Q 623.532 378.744 623.064 379.302 L 623.064 379.302 L 623.064 379.302 Q 622.596 379.86 622.596 380.832 L 622.596 380.832 L 622.596 384 L 625.692 384 L 625.692 387.672 L 622.596 387.672 L 622.596 402 L 618.276 402 Z  M 628.824 402 L 628.824 387.672 L 626.808 387.672 L 627.132 384 L 628.824 384 L 628.824 380.184 L 628.824 380.184 Q 628.824 377.844 630.102 376.422 L 630.102 376.422 L 630.102 376.422 Q 631.38 375 633.9 375 L 633.9 375 L 633.9 375 Q 635.268 375 636.276 375.36 L 636.276 375.36 L 635.952 378.924 L 635.952 378.924 Q 635.484 378.744 634.944 378.744 L 634.944 378.744 L 634.944 378.744 Q 634.08 378.744 633.612 379.302 L 633.612 379.302 L 633.612 379.302 Q 633.144 379.86 633.144 380.832 L 633.144 380.832 L 633.144 384 L 636.24 384 L 636.24 387.672 L 633.144 387.672 L 633.144 402 L 628.824 402 Z  M 638.364 381.264 L 638.364 376.8 L 642.684 376.8 L 642.684 381.264 L 638.364 381.264 Z  M 638.364 402 L 638.364 384 L 642.684 384 L 642.684 402 L 638.364 402 Z  M 651.108 402.36 L 651.108 402.36 Q 649.056 402.36 647.958 401.172 L 647.958 401.172 L 647.958 401.172 Q 646.86 399.984 646.86 397.644 L 646.86 397.644 L 646.86 387.672 L 644.844 387.672 L 645.24 384 L 646.86 384 L 646.86 380.04 L 651.18 379.572 L 651.18 384 L 654.312 384 L 654.312 387.672 L 651.18 387.672 L 651.18 396.528 L 651.18 396.528 Q 651.18 397.644 651.63 398.166 L 651.63 398.166 L 651.63 398.166 Q 652.08 398.688 653.052 398.688 L 653.052 398.688 L 654.348 398.688 L 653.952 402.36 L 651.108 402.36 Z  M 664.932 383.712 L 664.932 383.712 Q 667.632 383.712 669.054 385.494 L 669.054 385.494 L 669.054 385.494 Q 670.476 387.276 670.476 390.3 L 670.476 390.3 L 670.476 402 L 666.156 402 L 666.156 390.876 L 666.156 390.876 Q 666.156 387.24 663.708 387.24 L 663.708 387.24 L 663.708 387.24 Q 662.016 387.24 660.936 388.788 L 660.936 388.788 L 660.936 402 L 656.616 402 L 656.616 375 L 660.936 375 L 660.936 385.044 L 660.936 385.044 Q 662.556 383.712 664.932 383.712 L 664.932 383.712 Z  M 490.368 408.192 L 490.044 404.304 L 490.044 404.304 Q 491.232 404.304 491.754 403.782 L 491.754 403.782 L 491.754 403.782 Q 492.276 403.26 492.276 402.036 L 492.276 402.036 L 492.276 376.8 L 496.668 376.8 L 496.668 402.864 L 496.668 402.864 Q 496.668 405.528 495.192 406.86 L 495.192 406.86 L 495.192 406.86 Q 493.716 408.192 491.124 408.192 L 491.124 408.192 L 490.368 408.192 Z  M 504.12 402.36 L 504.12 402.36 Q 502.104 402.36 500.718 401.046 L 500.718 401.046 L 500.718 401.046 Q 499.332 399.732 499.332 397.356 L 499.332 397.356 L 499.332 397.356 Q 499.332 394.872 500.826 393.378 L 500.826 393.378 L 500.826 393.378 Q 502.32 391.884 504.282 391.236 L 504.282 391.236 L 504.282 391.236 Q 506.244 390.588 507.864 390.516 L 507.864 390.516 L 507.864 390.516 Q 507.864 388.932 507.288 388.248 L 507.288 388.248 L 507.288 388.248 Q 506.712 387.564 505.308 387.564 L 505.308 387.564 L 505.308 387.564 Q 504.228 387.564 503.22 387.906 L 503.22 387.906 L 503.22 387.906 Q 502.212 388.248 500.952 388.932 L 500.952 388.932 L 500.664 385.296 L 500.664 385.296 Q 503.544 383.712 506.46 383.712 L 506.46 383.712 L 506.46 383.712 Q 509.16 383.712 510.69 385.314 L 510.69 385.314 L 510.69 385.314 Q 512.22 386.916 512.22 390.372 L 512.22 390.372 L 512.22 395.808 L 512.22 395.808 Q 512.22 397.14 512.328 397.752 L 512.328 397.752 L 512.328 397.752 Q 512.436 398.364 512.67 398.526 L 512.67 398.526 L 512.67 398.526 Q 512.904 398.688 513.408 398.688 L 513.408 398.688 L 513.984 398.688 L 513.696 402.36 L 511.788 402.36 L 511.788 402.36 Q 510.78 402.36 509.862 401.784 L 509.862 401.784 L 509.862 401.784 Q 508.944 401.208 508.512 400.272 L 508.512 400.272 L 508.512 400.272 Q 507.54 401.316 506.532 401.838 L 506.532 401.838 L 506.532 401.838 Q 505.524 402.36 504.12 402.36 L 504.12 402.36 Z  M 505.596 398.94 L 505.596 398.94 Q 506.82 398.94 507.9 397.644 L 507.9 397.644 L 507.9 393.54 L 507.9 393.54 Q 506.172 393.756 505.02 394.566 L 505.02 394.566 L 505.02 394.566 Q 503.868 395.376 503.868 396.924 L 503.868 396.924 L 503.868 396.924 Q 503.868 397.968 504.336 398.454 L 504.336 398.454 L 504.336 398.454 Q 504.804 398.94 505.596 398.94 L 505.596 398.94 Z  M 533.424 383.712 L 533.424 383.712 Q 536.304 383.712 537.816 385.494 L 537.816 385.494 L 537.816 385.494 Q 539.328 387.276 539.328 390.3 L 539.328 390.3 L 539.328 402 L 535.008 402 L 535.008 390.876 L 535.008 390.876 Q 535.008 389.112 534.432 388.176 L 534.432 388.176 L 534.432 388.176 Q 533.856 387.24 532.524 387.24 L 532.524 387.24 L 532.524 387.24 Q 531.192 387.24 530.49 388.014 L 530.49 388.014 L 530.49 388.014 Q 529.788 388.788 529.788 390.3 L 529.788 390.3 L 529.788 402 L 525.468 402 L 525.468 390.876 L 525.468 390.876 Q 525.468 387.24 523.02 387.24 L 523.02 387.24 L 523.02 387.24 Q 521.328 387.24 520.248 388.788 L 520.248 388.788 L 520.248 402 L 515.928 402 L 515.928 384 L 519.6 384 L 519.78 385.44 L 519.78 385.44 Q 521.436 383.712 523.992 383.712 L 523.992 383.712 L 523.992 383.712 Q 525.468 383.712 526.62 384.324 L 526.62 384.324 L 526.62 384.324 Q 527.772 384.936 528.42 386.052 L 528.42 386.052 L 528.42 386.052 Q 529.284 384.936 530.562 384.324 L 530.562 384.324 L 530.562 384.324 Q 531.84 383.712 533.424 383.712 L 533.424 383.712 Z  M 550.272 402.36 L 550.272 402.36 Q 547.536 402.36 545.628 401.1 L 545.628 401.1 L 545.628 401.1 Q 543.72 399.84 542.766 397.716 L 542.766 397.716 L 542.766 397.716 Q 541.812 395.592 541.812 393 L 541.812 393 L 541.812 393 Q 541.812 390.336 542.712 388.23 L 542.712 388.23 L 542.712 388.23 Q 543.612 386.124 545.376 384.918 L 545.376 384.918 L 545.376 384.918 Q 547.14 383.712 549.588 383.712 L 549.588 383.712 L 549.588 383.712 Q 552.648 383.712 554.412 385.872 L 554.412 385.872 L 554.412 385.872 Q 556.176 388.032 556.176 391.668 L 556.176 391.668 L 556.176 391.668 Q 556.176 392.712 555.96 393.972 L 555.96 393.972 L 546.276 393.972 L 546.276 393.972 Q 546.492 396.42 547.716 397.626 L 547.716 397.626 L 547.716 397.626 Q 548.94 398.832 550.74 398.832 L 550.74 398.832 L 550.74 398.832 Q 553.188 398.832 555.384 397.392 L 555.384 397.392 L 555.492 401.172 L 555.492 401.172 Q 553.296 402.36 550.272 402.36 L 550.272 402.36 Z  M 546.312 390.948 L 551.82 390.948 L 551.82 390.948 Q 551.82 387.24 549.3 387.24 L 549.3 387.24 L 549.3 387.24 Q 546.816 387.24 546.312 390.948 L 546.312 390.948 Z  M 563.268 402.36 L 563.268 402.36 Q 561.792 402.36 560.586 402.054 L 560.586 402.054 L 560.586 402.054 Q 559.38 401.748 558.12 401.1 L 558.12 401.1 L 558.516 397.284 L 558.516 397.284 Q 561.036 399.012 562.944 399.012 L 562.944 399.012 L 562.944 399.012 Q 564.168 399.012 564.816 398.544 L 564.816 398.544 L 564.816 398.544 Q 565.464 398.076 565.464 397.248 L 565.464 397.248 L 565.464 397.248 Q 565.464 396.384 564.87 395.826 L 564.87 395.826 L 564.87 395.826 Q 564.276 395.268 562.548 394.44 L 562.548 394.44 L 562.548 394.44 Q 560.244 393.324 559.218 392.154 L 559.218 392.154 L 559.218 392.154 Q 558.192 390.984 558.192 388.932 L 558.192 388.932 L 558.192 388.932 Q 558.192 386.592 559.848 385.152 L 559.848 385.152 L 559.848 385.152 Q 561.504 383.712 564.312 383.712 L 564.312 383.712 L 564.312 383.712 Q 566.832 383.712 569.028 385.044 L 569.028 385.044 L 568.632 388.752 L 568.632 388.752 Q 567.588 387.852 566.634 387.384 L 566.634 387.384 L 566.634 387.384 Q 565.68 386.916 564.6 386.916 L 564.6 386.916 L 564.6 386.916 Q 563.556 386.916 562.926 387.366 L 562.926 387.366 L 562.926 387.366 Q 562.296 387.816 562.296 388.644 L 562.296 388.644 L 562.296 388.644 Q 562.296 389.472 562.962 389.994 L 562.962 389.994 L 562.962 389.994 Q 563.628 390.516 565.644 391.56 L 565.644 391.56 L 565.644 391.56 Q 567.66 392.604 568.614 393.846 L 568.614 393.846 L 568.614 393.846 Q 569.568 395.088 569.568 397.068 L 569.568 397.068 L 569.568 397.068 Q 569.568 399.516 567.858 400.938 L 567.858 400.938 L 567.858 400.938 Q 566.148 402.36 563.268 402.36 L 563.268 402.36 Z  M 453 402 L 453 376.8 L 461.136 376.8 L 461.136 376.8 Q 464.232 376.8 466.644 378.312 L 466.644 378.312 L 466.644 378.312 Q 469.056 379.824 470.424 382.668 L 470.424 382.668 L 470.424 382.668 Q 471.792 385.512 471.792 389.4 L 471.792 389.4 L 471.792 389.4 Q 471.792 393.288 470.424 396.132 L 470.424 396.132 L 470.424 396.132 Q 469.056 398.976 466.644 400.488 L 466.644 400.488 L 466.644 400.488 Q 464.232 402 461.136 402 L 461.136 402 L 453 402 Z  M 457.392 397.968 L 461.136 397.968 L 461.136 397.968 Q 464.016 397.968 465.492 395.7 L 465.492 395.7 L 465.492 395.7 Q 466.968 393.432 466.968 389.4 L 466.968 389.4 L 466.968 389.4 Q 466.968 385.368 465.492 383.1 L 465.492 383.1 L 465.492 383.1 Q 464.016 380.832 461.136 380.832 L 461.136 380.832 L 457.392 380.832 L 457.392 397.968 Z  M 474.528 402 L 474.528 384 L 478.308 384 L 478.596 385.908 L 478.596 385.908 Q 479.604 384.792 480.486 384.252 L 480.486 384.252 L 480.486 384.252 Q 481.368 383.712 482.556 383.712 L 482.556 383.712 L 482.556 383.712 Q 483.06 383.712 483.492 383.82 L 483.492 383.82 L 483.168 388.176 L 483.168 388.176 Q 482.628 387.996 482.016 387.996 L 482.016 387.996 L 482.016 387.996 Q 481.152 387.996 480.468 388.392 L 480.468 388.392 L 480.468 388.392 Q 479.784 388.788 478.848 389.724 L 478.848 389.724 L 478.848 402 L 474.528 402 Z " fill-rule="evenodd" fill="rgb(255,255,255)"/></svg>