<?xml version="1.0" standalone="no"?><!-- Generator: Gravit.io --><svg xmlns="http://www.w3.org/2000/svg" xmlns:xlink="http://www.w3.org/1999/xlink" style="isolation:isolate" viewBox="424.607 362.103 505.279 64.794" width="505.279" height="64.794"><path d=" M 467.733 416.098 L 489.402 394.43 L 478.673 383.701 L 457.005 405.369 L 435.336 383.701 L 424.607 394.43 L 446.276 416.098 L 446.206 416.169 L 456.934 426.897 L 457.005 426.827 L 457.075 426.897 L 467.804 416.169 L 467.733 416.098 Z " fill-rule="evenodd" fill="rgb(77,193,182)"/><path d=" M 446.276 372.902 L 424.607 394.57 L 435.336 405.299 L 457.005 383.631 L 478.673 405.299 L 489.402 394.57 L 467.733 372.902 L 467.804 372.831 L 457.075 362.103 L 457.005 362.173 L 456.934 362.103 L 446.206 372.831 L 446.276 372.902 Z " fill-rule="evenodd" fill="rgb(0,150,136)"/><path d=" M 851.674 411.744 L 851.674 378.144 L 857.818 378.144 L 857.818 391.44 L 873.178 391.44 L 873.178 378.144 L 879.322 378.144 L 879.322 411.744 L 873.178 411.744 L 873.178 397.2 L 857.818 397.2 L 857.818 411.744 L 851.674 411.744 Z  M 890.561 412.224 L 890.561 412.224 Q 887.585 412.224 885.593 410.28 L 885.593 410.28 L 885.593 410.28 Q 883.601 408.336 883.601 405.024 L 883.601 405.024 L 883.601 405.024 Q 883.601 401.904 885.857 400.008 L 885.857 400.008 L 885.857 400.008 Q 888.113 398.112 891.185 397.32 L 891.185 397.32 L 891.185 397.32 Q 894.257 396.528 897.089 396.432 L 897.089 396.432 L 897.089 396.432 Q 896.993 394.32 896.009 393.408 L 896.009 393.408 L 896.009 393.408 Q 895.025 392.496 892.769 392.496 L 892.769 392.496 L 892.769 392.496 Q 891.185 392.496 889.673 392.928 L 889.673 392.928 L 889.673 392.928 Q 888.161 393.36 886.193 394.32 L 886.193 394.32 L 885.665 389.472 L 885.665 389.472 Q 890.033 387.36 894.401 387.36 L 894.401 387.36 L 894.401 387.36 Q 898.625 387.36 900.857 389.664 L 900.857 389.664 L 900.857 389.664 Q 903.089 391.968 903.089 397.008 L 903.089 397.008 L 903.089 403.488 L 903.089 403.488 Q 903.089 405.312 903.257 406.104 L 903.257 406.104 L 903.257 406.104 Q 903.425 406.896 903.833 407.112 L 903.833 407.112 L 903.833 407.112 Q 904.241 407.328 905.201 407.328 L 905.201 407.328 L 905.969 407.328 L 905.441 412.224 L 903.281 412.224 L 903.281 412.224 Q 901.313 412.224 899.969 411.48 L 899.969 411.48 L 899.969 411.48 Q 898.625 410.736 897.905 409.44 L 897.905 409.44 L 897.905 409.44 Q 896.753 410.736 894.761 411.48 L 894.761 411.48 L 894.761 411.48 Q 892.769 412.224 890.561 412.224 L 890.561 412.224 Z  M 893.057 407.664 L 893.057 407.664 Q 893.969 407.664 895.121 407.208 L 895.121 407.208 L 895.121 407.208 Q 896.273 406.752 897.137 405.936 L 897.137 405.936 L 897.137 400.464 L 897.137 400.464 Q 894.257 400.608 892.049 401.712 L 892.049 401.712 L 892.049 401.712 Q 889.841 402.816 889.841 404.784 L 889.841 404.784 L 889.841 404.784 Q 889.841 406.272 890.609 406.968 L 890.609 406.968 L 890.609 406.968 Q 891.377 407.664 893.057 407.664 L 893.057 407.664 Z  M 915 412.224 L 915 412.224 Q 911.928 412.224 910.392 410.472 L 910.392 410.472 L 910.392 410.472 Q 908.856 408.72 908.856 405.936 L 908.856 405.936 L 908.856 375.744 L 914.808 375.744 L 914.808 403.488 L 914.808 403.488 Q 914.808 405.408 915.024 406.2 L 915.024 406.2 L 915.024 406.2 Q 915.24 406.992 915.792 407.16 L 915.792 407.16 L 915.792 407.16 Q 916.344 407.328 917.688 407.328 L 917.688 407.328 L 917.16 412.224 L 915 412.224 Z  M 927.199 412.224 L 927.199 412.224 Q 924.127 412.224 922.591 410.472 L 922.591 410.472 L 922.591 410.472 Q 921.055 408.72 921.055 405.936 L 921.055 405.936 L 921.055 375.744 L 927.007 375.744 L 927.007 403.488 L 927.007 403.488 Q 927.007 405.408 927.223 406.2 L 927.223 406.2 L 927.223 406.2 Q 927.439 406.992 927.991 407.16 L 927.991 407.16 L 927.991 407.16 Q 928.543 407.328 929.887 407.328 L 929.887 407.328 L 929.359 412.224 L 927.199 412.224 Z  M 713.277 412.416 L 713.277 412.416 Q 707.997 412.416 704.181 410.256 L 704.181 410.256 L 704.181 410.256 Q 700.365 408.096 698.349 404.136 L 698.349 404.136 L 698.349 404.136 Q 696.333 400.176 696.333 394.896 L 696.333 394.896 L 696.333 394.896 Q 696.333 389.712 698.565 385.752 L 698.565 385.752 L 698.565 385.752 Q 700.797 381.792 704.781 379.632 L 704.781 379.632 L 704.781 379.632 Q 708.765 377.472 713.901 377.472 L 713.901 377.472 L 713.901 377.472 Q 716.493 377.472 718.941 378 L 718.941 378 L 718.941 378 Q 721.389 378.528 723.165 379.44 L 723.165 379.44 L 722.493 385.296 L 722.493 385.296 Q 718.317 383.376 713.901 383.376 L 713.901 383.376 L 713.901 383.376 Q 708.525 383.376 705.789 386.52 L 705.789 386.52 L 705.789 386.52 Q 703.053 389.664 703.053 394.8 L 703.053 394.8 L 703.053 394.8 Q 703.053 400.128 705.741 403.32 L 705.741 403.32 L 705.741 403.32 Q 708.429 406.512 713.517 406.512 L 713.517 406.512 L 713.517 406.512 Q 715.581 406.512 718.125 405.984 L 718.125 405.984 L 718.125 399.984 L 713.517 399.984 L 713.517 394.896 L 724.269 394.896 L 724.269 409.872 L 724.269 409.872 Q 722.397 410.976 719.493 411.696 L 719.493 411.696 L 719.493 411.696 Q 716.589 412.416 713.277 412.416 L 713.277 412.416 Z  M 728.884 411.744 L 728.884 387.744 L 734.452 387.744 L 734.596 390.288 L 734.596 390.288 Q 735.652 389.088 737.308 388.176 L 737.308 388.176 L 737.308 388.176 Q 738.964 387.264 740.788 387.264 L 740.788 387.264 L 740.788 387.264 Q 741.364 387.264 741.844 387.36 L 741.844 387.36 L 741.412 393.216 L 741.412 393.216 Q 740.5 392.976 739.348 392.976 L 739.348 392.976 L 739.348 392.976 Q 737.86 392.976 736.612 393.672 L 736.612 393.672 L 736.612 393.672 Q 735.364 394.368 734.836 395.376 L 734.836 395.376 L 734.836 411.744 L 728.884 411.744 Z  M 744.299 384.096 L 744.299 378.144 L 750.251 378.144 L 750.251 384.096 L 744.299 384.096 Z  M 744.299 411.744 L 744.299 387.744 L 750.251 387.744 L 750.251 411.744 L 744.299 411.744 Z  M 756.834 411.744 L 756.834 392.64 L 753.426 392.64 L 753.954 387.744 L 756.834 387.744 L 756.834 382.656 L 756.834 382.656 Q 756.834 379.44 758.73 377.592 L 758.73 377.592 L 758.73 377.592 Q 760.626 375.744 764.13 375.744 L 764.13 375.744 L 764.13 375.744 Q 766.098 375.744 768.018 376.176 L 768.018 376.176 L 767.49 380.976 L 767.49 380.976 Q 766.674 380.736 765.618 380.736 L 765.618 380.736 L 765.618 380.736 Q 762.786 380.736 762.786 383.712 L 762.786 383.712 L 762.786 387.744 L 768.066 387.744 L 768.066 392.64 L 762.786 392.64 L 762.786 411.744 L 756.834 411.744 Z  M 772.728 411.744 L 772.728 392.64 L 769.32 392.64 L 769.848 387.744 L 772.728 387.744 L 772.728 382.656 L 772.728 382.656 Q 772.728 379.44 774.624 377.592 L 774.624 377.592 L 774.624 377.592 Q 776.52 375.744 780.024 375.744 L 780.024 375.744 L 780.024 375.744 Q 781.992 375.744 783.912 376.176 L 783.912 376.176 L 783.384 380.976 L 783.384 380.976 Q 782.568 380.736 781.512 380.736 L 781.512 380.736 L 781.512 380.736 Q 778.68 380.736 778.68 383.712 L 778.68 383.712 L 778.68 387.744 L 783.96 387.744 L 783.96 392.64 L 778.68 392.64 L 778.68 411.744 L 772.728 411.744 Z  M 787.183 384.096 L 787.183 378.144 L 793.135 378.144 L 793.135 384.096 L 787.183 384.096 Z  M 787.183 411.744 L 787.183 387.744 L 793.135 387.744 L 793.135 411.744 L 787.183 411.744 Z  M 806.102 412.224 L 806.102 412.224 Q 802.934 412.224 801.302 410.376 L 801.302 410.376 L 801.302 410.376 Q 799.67 408.528 799.67 405.936 L 799.67 405.936 L 799.67 392.64 L 796.262 392.64 L 796.79 387.744 L 799.67 387.744 L 799.67 382.464 L 805.622 381.84 L 805.622 387.744 L 810.902 387.744 L 810.902 392.64 L 805.622 392.64 L 805.622 403.488 L 805.622 403.488 Q 805.622 405.408 805.838 406.152 L 805.838 406.152 L 805.838 406.152 Q 806.054 406.896 806.75 407.112 L 806.75 407.112 L 806.75 407.112 Q 807.446 407.328 809.27 407.328 L 809.27 407.328 L 810.902 407.328 L 810.374 412.224 L 806.102 412.224 Z  M 826.461 387.36 L 826.461 387.36 Q 831.021 387.36 833.253 390.312 L 833.253 390.312 L 833.253 390.312 Q 835.485 393.264 835.485 398.4 L 835.485 398.4 L 835.485 411.744 L 829.533 411.744 L 829.533 398.832 L 829.533 398.832 Q 829.533 395.424 828.429 393.84 L 828.429 393.84 L 828.429 393.84 Q 827.325 392.256 824.925 392.256 L 824.925 392.256 L 824.925 392.256 Q 822.093 392.256 820.269 394.32 L 820.269 394.32 L 820.269 411.744 L 814.317 411.744 L 814.317 375.744 L 820.269 375.744 L 820.269 389.28 L 820.269 389.28 Q 821.709 388.368 823.197 387.864 L 823.197 387.864 L 823.197 387.864 Q 824.685 387.36 826.461 387.36 L 826.461 387.36 Z  M 562.564 420 L 562.036 414.72 L 562.036 414.72 Q 564.148 414.72 565.036 413.808 L 565.036 413.808 L 565.036 413.808 Q 565.924 412.896 565.924 410.592 L 565.924 410.592 L 565.924 378.144 L 572.068 378.144 L 572.068 411.936 L 572.068 411.936 Q 572.068 416.16 570.052 418.08 L 570.052 418.08 L 570.052 418.08 Q 568.036 420 564.292 420 L 564.292 420 L 562.564 420 Z  M 583.307 412.224 L 583.307 412.224 Q 580.331 412.224 578.339 410.28 L 578.339 410.28 L 578.339 410.28 Q 576.347 408.336 576.347 405.024 L 576.347 405.024 L 576.347 405.024 Q 576.347 401.904 578.603 400.008 L 578.603 400.008 L 578.603 400.008 Q 580.859 398.112 583.931 397.32 L 583.931 397.32 L 583.931 397.32 Q 587.003 396.528 589.835 396.432 L 589.835 396.432 L 589.835 396.432 Q 589.739 394.32 588.755 393.408 L 588.755 393.408 L 588.755 393.408 Q 587.771 392.496 585.515 392.496 L 585.515 392.496 L 585.515 392.496 Q 583.931 392.496 582.419 392.928 L 582.419 392.928 L 582.419 392.928 Q 580.907 393.36 578.939 394.32 L 578.939 394.32 L 578.411 389.472 L 578.411 389.472 Q 582.779 387.36 587.147 387.36 L 587.147 387.36 L 587.147 387.36 Q 591.371 387.36 593.603 389.664 L 593.603 389.664 L 593.603 389.664 Q 595.835 391.968 595.835 397.008 L 595.835 397.008 L 595.835 403.488 L 595.835 403.488 Q 595.835 405.312 596.003 406.104 L 596.003 406.104 L 596.003 406.104 Q 596.171 406.896 596.579 407.112 L 596.579 407.112 L 596.579 407.112 Q 596.987 407.328 597.947 407.328 L 597.947 407.328 L 598.715 407.328 L 598.187 412.224 L 596.027 412.224 L 596.027 412.224 Q 594.059 412.224 592.715 411.48 L 592.715 411.48 L 592.715 411.48 Q 591.371 410.736 590.651 409.44 L 590.651 409.44 L 590.651 409.44 Q 589.499 410.736 587.507 411.48 L 587.507 411.48 L 587.507 411.48 Q 585.515 412.224 583.307 412.224 L 583.307 412.224 Z  M 585.803 407.664 L 585.803 407.664 Q 586.715 407.664 587.867 407.208 L 587.867 407.208 L 587.867 407.208 Q 589.019 406.752 589.883 405.936 L 589.883 405.936 L 589.883 400.464 L 589.883 400.464 Q 587.003 400.608 584.795 401.712 L 584.795 401.712 L 584.795 401.712 Q 582.587 402.816 582.587 404.784 L 582.587 404.784 L 582.587 404.784 Q 582.587 406.272 583.355 406.968 L 583.355 406.968 L 583.355 406.968 Q 584.123 407.664 585.803 407.664 L 585.803 407.664 Z  M 628.53 387.36 L 628.53 387.36 Q 633.33 387.36 635.658 390.264 L 635.658 390.264 L 635.658 390.264 Q 637.986 393.168 637.986 398.4 L 637.986 398.4 L 637.986 411.744 L 632.034 411.744 L 632.034 398.832 L 632.034 398.832 Q 632.034 395.424 630.978 393.84 L 630.978 393.84 L 630.978 393.84 Q 629.922 392.256 627.522 392.256 L 627.522 392.256 L 627.522 392.256 Q 625.17 392.256 623.97 393.864 L 623.97 393.864 L 623.97 393.864 Q 622.77 395.472 622.77 398.4 L 622.77 398.4 L 622.77 411.744 L 616.818 411.744 L 616.818 398.832 L 616.818 398.832 Q 616.818 395.424 615.714 393.84 L 615.714 393.84 L 615.714 393.84 Q 614.61 392.256 612.21 392.256 L 612.21 392.256 L 612.21 392.256 Q 609.378 392.256 607.554 394.32 L 607.554 394.32 L 607.554 411.744 L 601.602 411.744 L 601.602 387.744 L 606.69 387.744 L 606.882 389.664 L 606.882 389.664 Q 610.146 387.36 613.938 387.36 L 613.938 387.36 L 613.938 387.36 Q 618.546 387.36 620.802 390.672 L 620.802 390.672 L 620.802 390.672 Q 622.05 389.088 624.066 388.224 L 624.066 388.224 L 624.066 388.224 Q 626.082 387.36 628.53 387.36 L 628.53 387.36 Z  M 654.457 412.224 L 654.457 412.224 Q 650.281 412.224 647.329 410.52 L 647.329 410.52 L 647.329 410.52 Q 644.377 408.816 642.913 405.96 L 642.913 405.96 L 642.913 405.96 Q 641.449 403.104 641.449 399.6 L 641.449 399.6 L 641.449 399.6 Q 641.449 396.24 642.841 393.456 L 642.841 393.456 L 642.841 393.456 Q 644.233 390.672 646.873 389.016 L 646.873 389.016 L 646.873 389.016 Q 649.513 387.36 653.161 387.36 L 653.161 387.36 L 653.161 387.36 Q 656.521 387.36 658.849 388.752 L 658.849 388.752 L 658.849 388.752 Q 661.177 390.144 662.353 392.496 L 662.353 392.496 L 662.353 392.496 Q 663.529 394.848 663.529 397.776 L 663.529 397.776 L 663.529 397.776 Q 663.529 399.216 663.145 401.04 L 663.145 401.04 L 647.641 401.04 L 647.641 401.04 Q 648.121 404.208 650.137 405.768 L 650.137 405.768 L 650.137 405.768 Q 652.153 407.328 654.985 407.328 L 654.985 407.328 L 654.985 407.328 Q 658.873 407.328 662.185 405.36 L 662.185 405.36 L 662.473 410.4 L 662.473 410.4 Q 660.937 411.216 658.897 411.72 L 658.897 411.72 L 658.897 411.72 Q 656.857 412.224 654.457 412.224 L 654.457 412.224 Z  M 647.785 397.008 L 657.481 397.008 L 657.481 397.008 Q 657.481 395.136 656.425 393.696 L 656.425 393.696 L 656.425 393.696 Q 655.369 392.256 653.161 392.256 L 653.161 392.256 L 653.161 392.256 Q 650.953 392.256 649.609 393.552 L 649.609 393.552 L 649.609 393.552 Q 648.265 394.848 647.785 397.008 L 647.785 397.008 Z  M 674 412.224 L 674 412.224 Q 671.696 412.224 669.8 411.792 L 669.8 411.792 L 669.8 411.792 Q 667.904 411.36 665.888 410.448 L 665.888 410.448 L 666.416 405.36 L 666.416 405.36 Q 668.432 406.56 670.184 407.16 L 670.184 407.16 L 670.184 407.16 Q 671.936 407.76 673.808 407.76 L 673.808 407.76 L 673.808 407.76 Q 677.456 407.76 677.456 405.36 L 677.456 405.36 L 677.456 405.36 Q 677.456 404.064 676.496 403.368 L 676.496 403.368 L 676.496 403.368 Q 675.536 402.672 673.04 401.712 L 673.04 401.712 L 673.04 401.712 Q 669.488 400.416 667.808 398.76 L 667.808 398.76 L 667.808 398.76 Q 666.128 397.104 666.128 394.272 L 666.128 394.272 L 666.128 394.272 Q 666.128 391.152 668.528 389.208 L 668.528 389.208 L 668.528 389.208 Q 670.928 387.264 675.008 387.264 L 675.008 387.264 L 675.008 387.264 Q 679.088 387.264 682.448 389.136 L 682.448 389.136 L 681.92 394.224 L 681.92 394.224 Q 680.096 392.976 678.488 392.304 L 678.488 392.304 L 678.488 392.304 Q 676.88 391.632 675.104 391.632 L 675.104 391.632 L 675.104 391.632 Q 673.568 391.632 672.728 392.256 L 672.728 392.256 L 672.728 392.256 Q 671.888 392.88 671.888 394.032 L 671.888 394.032 L 671.888 394.032 Q 671.888 394.944 672.392 395.52 L 672.392 395.52 L 672.392 395.52 Q 672.896 396.096 673.808 396.552 L 673.808 396.552 L 673.808 396.552 Q 674.72 397.008 676.832 397.824 L 676.832 397.824 L 676.832 397.824 Q 680.336 399.168 681.872 400.776 L 681.872 400.776 L 681.872 400.776 Q 683.408 402.384 683.408 405.072 L 683.408 405.072 L 683.408 405.072 Q 683.408 408.48 680.96 410.352 L 680.96 410.352 L 680.96 410.352 Q 678.512 412.224 674 412.224 L 674 412.224 Z  M 506 411.744 L 506 378.144 L 518.576 378.144 L 518.576 378.144 Q 523.376 378.144 527.144 380.16 L 527.144 380.16 L 527.144 380.16 Q 530.912 382.176 533.024 385.968 L 533.024 385.968 L 533.024 385.968 Q 535.136 389.76 535.136 394.944 L 535.136 394.944 L 535.136 394.944 Q 535.136 400.128 533.024 403.92 L 533.024 403.92 L 533.024 403.92 Q 530.912 407.712 527.144 409.728 L 527.144 409.728 L 527.144 409.728 Q 523.376 411.744 518.576 411.744 L 518.576 411.744 L 506 411.744 Z  M 512.144 406.272 L 518.576 406.272 L 518.576 406.272 Q 523.376 406.272 525.896 403.272 L 525.896 403.272 L 525.896 403.272 Q 528.416 400.272 528.416 394.944 L 528.416 394.944 L 528.416 394.944 Q 528.416 389.616 525.896 386.616 L 525.896 386.616 L 525.896 386.616 Q 523.376 383.616 518.576 383.616 L 518.576 383.616 L 512.144 383.616 L 512.144 406.272 Z  M 539.223 411.744 L 539.223 387.744 L 544.791 387.744 L 544.935 390.288 L 544.935 390.288 Q 545.991 389.088 547.647 388.176 L 547.647 388.176 L 547.647 388.176 Q 549.303 387.264 551.127 387.264 L 551.127 387.264 L 551.127 387.264 Q 551.703 387.264 552.183 387.36 L 552.183 387.36 L 551.751 393.216 L 551.751 393.216 Q 550.839 392.976 549.687 392.976 L 549.687 392.976 L 549.687 392.976 Q 548.199 392.976 546.951 393.672 L 546.951 393.672 L 546.951 393.672 Q 545.703 394.368 545.175 395.376 L 545.175 395.376 L 545.175 411.744 L 539.223 411.744 Z " fill-rule="evenodd" fill="rgb(255,255,255)"/></svg>