<?xml version="1.0" standalone="no"?><!-- Generator: Gravit.io --><svg xmlns="http://www.w3.org/2000/svg" xmlns:xlink="http://www.w3.org/1999/xlink" style="isolation:isolate" viewBox="493.376 325.483 369.18 111.786" width="369.18" height="111.786"><g><linearGradient id="_lgradient_8" x1="0" y1="0.5" x2="1" y2="0.5" gradientTransform="matrix(-56.626,0,0,-37.751,706.244,382.461)" gradientUnits="userSpaceOnUse"><stop offset="1.3043478260869565%" stop-opacity="1" style="stop-color:rgb(75,174,231)"/><stop offset="97.82608695652173%" stop-opacity="1" style="stop-color:rgb(35,94,164)"/></linearGradient><path d=" M 687.307 373.023 L 706.244 354.086 L 696.868 344.71 L 677.931 363.647 L 658.994 344.71 L 649.618 354.086 L 668.555 373.023 L 668.493 373.085 L 677.869 382.461 L 677.931 382.399 L 677.993 382.461 L 687.369 373.085 L 687.307 373.023 Z " fill-rule="evenodd" fill="url(#_lgradient_8)"/><linearGradient id="_lgradient_9" x1="0" y1="0.5" x2="1" y2="0.5" gradientTransform="matrix(56.626,0,0,37.751,649.618,325.483)" gradientUnits="userSpaceOnUse"><stop offset="2.1739130434782608%" stop-opacity="1" style="stop-color:rgb(75,174,231)"/><stop offset="97.82608695652173%" stop-opacity="1" style="stop-color:rgb(35,94,164)"/></linearGradient><path d=" M 668.555 334.921 L 649.618 353.858 L 658.994 363.234 L 677.931 344.297 L 696.868 363.234 L 706.244 353.858 L 687.307 334.921 L 687.369 334.859 L 677.993 325.483 L 677.931 325.545 L 677.869 325.483 L 668.493 334.859 L 668.555 334.921 Z " fill-rule="evenodd" fill="url(#_lgradient_9)"/></g><path d=" M 783.32 415.575 L 783.32 390.375 L 787.712 390.375 L 787.712 411.543 L 796.208 411.543 L 796.208 415.575 L 783.32 415.575 L 783.32 415.575 Z  M 805.244 415.935 L 805.244 415.935 Q 802.796 415.935 800.996 414.675 L 800.996 414.675 L 800.996 414.675 Q 799.196 413.415 798.242 411.291 L 798.242 411.291 L 798.242 411.291 Q 797.288 409.167 797.288 406.611 L 797.288 406.611 L 797.288 406.611 Q 797.288 404.055 798.242 401.931 L 798.242 401.931 L 798.242 401.931 Q 799.196 399.807 800.996 398.547 L 800.996 398.547 L 800.996 398.547 Q 802.796 397.287 805.244 397.287 L 805.244 397.287 L 805.244 397.287 Q 807.692 397.287 809.51 398.547 L 809.51 398.547 L 809.51 398.547 Q 811.328 399.807 812.282 401.931 L 812.282 401.931 L 812.282 401.931 Q 813.236 404.055 813.236 406.611 L 813.236 406.611 L 813.236 406.611 Q 813.236 409.167 812.282 411.291 L 812.282 411.291 L 812.282 411.291 Q 811.328 413.415 809.51 414.675 L 809.51 414.675 L 809.51 414.675 Q 807.692 415.935 805.244 415.935 L 805.244 415.935 L 805.244 415.935 Z  M 805.244 412.407 L 805.244 412.407 Q 806.936 412.407 807.89 410.823 L 807.89 410.823 L 807.89 410.823 Q 808.844 409.239 808.844 406.611 L 808.844 406.611 L 808.844 406.611 Q 808.844 403.983 807.89 402.399 L 807.89 402.399 L 807.89 402.399 Q 806.936 400.815 805.244 400.815 L 805.244 400.815 L 805.244 400.815 Q 803.588 400.815 802.634 402.417 L 802.634 402.417 L 802.634 402.417 Q 801.68 404.019 801.68 406.611 L 801.68 406.611 L 801.68 406.611 Q 801.68 409.203 802.634 410.805 L 802.634 410.805 L 802.634 410.805 Q 803.588 412.407 805.244 412.407 L 805.244 412.407 L 805.244 412.407 Z  M 825.728 388.575 L 830.048 388.575 L 830.048 415.575 L 825.98 415.575 L 825.908 414.423 L 825.908 414.423 Q 825.044 415.179 824.054 415.557 L 824.054 415.557 L 824.054 415.557 Q 823.064 415.935 821.768 415.935 L 821.768 415.935 L 821.768 415.935 Q 819.536 415.935 817.916 414.675 L 817.916 414.675 L 817.916 414.675 Q 816.296 413.415 815.468 411.291 L 815.468 411.291 L 815.468 411.291 Q 814.64 409.167 814.64 406.611 L 814.64 406.611 L 814.64 406.611 Q 814.64 404.055 815.468 401.931 L 815.468 401.931 L 815.468 401.931 Q 816.296 399.807 817.916 398.547 L 817.916 398.547 L 817.916 398.547 Q 819.536 397.287 821.768 397.287 L 821.768 397.287 L 821.768 397.287 Q 824.108 397.287 825.728 398.691 L 825.728 398.691 L 825.728 388.575 L 825.728 388.575 Z  M 822.416 412.407 L 822.416 412.407 Q 824.18 412.407 825.062 410.841 L 825.062 410.841 L 825.062 410.841 Q 825.944 409.275 825.944 406.611 L 825.944 406.611 L 825.944 406.611 Q 825.944 403.947 825.062 402.381 L 825.062 402.381 L 825.062 402.381 Q 824.18 400.815 822.416 400.815 L 822.416 400.815 L 822.416 400.815 Q 820.832 400.815 819.932 402.399 L 819.932 402.399 L 819.932 402.399 Q 819.032 403.983 819.032 406.611 L 819.032 406.611 L 819.032 406.611 Q 819.032 409.239 819.932 410.823 L 819.932 410.823 L 819.932 410.823 Q 820.832 412.407 822.416 412.407 L 822.416 412.407 L 822.416 412.407 Z  M 839.768 424.575 L 839.768 424.575 Q 836.528 424.575 834.566 423.243 L 834.566 423.243 L 834.566 423.243 Q 832.604 421.911 832.604 419.535 L 832.604 419.535 L 832.604 419.535 Q 832.604 418.203 833.288 417.195 L 833.288 417.195 L 833.288 417.195 Q 833.972 416.187 835.304 415.395 L 835.304 415.395 L 835.304 415.395 Q 833.756 414.495 833.756 412.911 L 833.756 412.911 L 833.756 412.911 Q 833.756 411.363 835.448 410.355 L 835.448 410.355 L 835.448 410.355 Q 834.152 409.383 833.432 407.817 L 833.432 407.817 L 833.432 407.817 Q 832.712 406.251 832.712 404.379 L 832.712 404.379 L 832.712 404.379 Q 832.712 402.399 833.486 400.779 L 833.486 400.779 L 833.486 400.779 Q 834.26 399.159 835.736 398.223 L 835.736 398.223 L 835.736 398.223 Q 837.212 397.287 839.192 397.287 L 839.192 397.287 L 839.192 397.287 Q 841.532 397.287 843.152 398.583 L 843.152 398.583 L 843.152 398.583 Q 844.628 397.287 846.176 397.287 L 846.176 397.287 L 846.176 397.287 Q 846.644 397.287 847.076 397.359 L 847.076 397.359 L 846.752 400.131 L 846.752 400.131 Q 846.392 400.059 846.032 400.059 L 846.032 400.059 L 846.032 400.059 Q 845.276 400.059 844.664 400.347 L 844.664 400.347 L 844.664 400.347 Q 845.672 402.075 845.672 404.379 L 845.672 404.379 L 845.672 404.379 Q 845.672 406.359 844.898 407.979 L 844.898 407.979 L 844.898 407.979 Q 844.124 409.599 842.648 410.553 L 842.648 410.553 L 842.648 410.553 Q 841.172 411.507 839.192 411.507 L 839.192 411.507 L 839.192 411.507 Q 838.4 411.507 837.824 411.363 L 837.824 411.363 L 837.824 411.363 Q 837.5 411.615 837.5 411.975 L 837.5 411.975 L 837.5 411.975 Q 837.5 412.335 837.752 412.533 L 837.752 412.533 L 837.752 412.533 Q 838.004 412.731 838.616 412.875 L 838.616 412.875 L 842.324 413.739 L 842.324 413.739 Q 844.952 414.351 846.14 415.557 L 846.14 415.557 L 846.14 415.557 Q 847.328 416.763 847.328 418.923 L 847.328 418.923 L 847.328 418.923 Q 847.328 420.615 846.374 421.893 L 846.374 421.893 L 846.374 421.893 Q 845.42 423.171 843.692 423.873 L 843.692 423.873 L 843.692 423.873 Q 841.964 424.575 839.768 424.575 L 839.768 424.575 L 839.768 424.575 Z  M 839.192 408.267 L 839.192 408.267 Q 840.38 408.267 841.046 407.205 L 841.046 407.205 L 841.046 407.205 Q 841.712 406.143 841.712 404.379 L 841.712 404.379 L 841.712 404.379 Q 841.712 402.651 841.046 401.589 L 841.046 401.589 L 841.046 401.589 Q 840.38 400.527 839.192 400.527 L 839.192 400.527 L 839.192 400.527 Q 837.968 400.527 837.32 401.589 L 837.32 401.589 L 837.32 401.589 Q 836.672 402.651 836.672 404.379 L 836.672 404.379 L 836.672 404.379 Q 836.672 406.143 837.32 407.205 L 837.32 407.205 L 837.32 407.205 Q 837.968 408.267 839.192 408.267 L 839.192 408.267 L 839.192 408.267 Z  M 839.876 421.335 L 839.876 421.335 Q 841.532 421.335 842.558 420.777 L 842.558 420.777 L 842.558 420.777 Q 843.584 420.219 843.584 419.175 L 843.584 419.175 L 843.584 419.175 Q 843.584 418.311 843.026 417.825 L 843.026 417.825 L 843.026 417.825 Q 842.468 417.339 841.1 417.015 L 841.1 417.015 L 838.004 416.259 L 838.004 416.259 Q 837.032 416.835 836.546 417.465 L 836.546 417.465 L 836.546 417.465 Q 836.06 418.095 836.06 418.923 L 836.06 418.923 L 836.06 418.923 Q 836.06 420.075 837.104 420.705 L 837.104 420.705 L 837.104 420.705 Q 838.148 421.335 839.876 421.335 L 839.876 421.335 L 839.876 421.335 Z  M 856.652 415.935 L 856.652 415.935 Q 853.916 415.935 852.008 414.675 L 852.008 414.675 L 852.008 414.675 Q 850.1 413.415 849.146 411.291 L 849.146 411.291 L 849.146 411.291 Q 848.192 409.167 848.192 406.575 L 848.192 406.575 L 848.192 406.575 Q 848.192 403.911 849.092 401.805 L 849.092 401.805 L 849.092 401.805 Q 849.992 399.699 851.756 398.493 L 851.756 398.493 L 851.756 398.493 Q 853.52 397.287 855.968 397.287 L 855.968 397.287 L 855.968 397.287 Q 859.028 397.287 860.792 399.447 L 860.792 399.447 L 860.792 399.447 Q 862.556 401.607 862.556 405.243 L 862.556 405.243 L 862.556 405.243 Q 862.556 406.287 862.34 407.547 L 862.34 407.547 L 852.656 407.547 L 852.656 407.547 Q 852.872 409.995 854.096 411.201 L 854.096 411.201 L 854.096 411.201 Q 855.32 412.407 857.12 412.407 L 857.12 412.407 L 857.12 412.407 Q 859.568 412.407 861.764 410.967 L 861.764 410.967 L 861.872 414.747 L 861.872 414.747 Q 859.676 415.935 856.652 415.935 L 856.652 415.935 L 856.652 415.935 Z  M 852.692 404.523 L 858.2 404.523 L 858.2 404.523 Q 858.2 400.815 855.68 400.815 L 855.68 400.815 L 855.68 400.815 Q 853.196 400.815 852.692 404.523 L 852.692 404.523 L 852.692 404.523 Z  M 721.832 415.575 L 721.832 390.375 L 726.224 390.375 L 726.224 400.347 L 735.584 400.347 L 735.584 390.375 L 739.976 390.375 L 739.976 415.575 L 735.584 415.575 L 735.584 404.667 L 726.224 404.667 L 726.224 415.575 L 721.832 415.575 L 721.832 415.575 Z  M 747.572 415.935 L 747.572 415.935 Q 745.556 415.935 744.17 414.621 L 744.17 414.621 L 744.17 414.621 Q 742.784 413.307 742.784 410.931 L 742.784 410.931 L 742.784 410.931 Q 742.784 408.447 744.278 406.953 L 744.278 406.953 L 744.278 406.953 Q 745.772 405.459 747.734 404.811 L 747.734 404.811 L 747.734 404.811 Q 749.696 404.163 751.316 404.091 L 751.316 404.091 L 751.316 404.091 Q 751.316 402.507 750.74 401.823 L 750.74 401.823 L 750.74 401.823 Q 750.164 401.139 748.76 401.139 L 748.76 401.139 L 748.76 401.139 Q 747.68 401.139 746.672 401.481 L 746.672 401.481 L 746.672 401.481 Q 745.664 401.823 744.404 402.507 L 744.404 402.507 L 744.116 398.871 L 744.116 398.871 Q 746.996 397.287 749.912 397.287 L 749.912 397.287 L 749.912 397.287 Q 752.612 397.287 754.142 398.889 L 754.142 398.889 L 754.142 398.889 Q 755.672 400.491 755.672 403.947 L 755.672 403.947 L 755.672 409.383 L 755.672 409.383 Q 755.672 410.715 755.78 411.327 L 755.78 411.327 L 755.78 411.327 Q 755.888 411.939 756.122 412.101 L 756.122 412.101 L 756.122 412.101 Q 756.356 412.263 756.86 412.263 L 756.86 412.263 L 757.436 412.263 L 757.148 415.935 L 755.24 415.935 L 755.24 415.935 Q 754.232 415.935 753.314 415.359 L 753.314 415.359 L 753.314 415.359 Q 752.396 414.783 751.964 413.847 L 751.964 413.847 L 751.964 413.847 Q 750.992 414.891 749.984 415.413 L 749.984 415.413 L 749.984 415.413 Q 748.976 415.935 747.572 415.935 L 747.572 415.935 L 747.572 415.935 Z  M 749.048 412.515 L 749.048 412.515 Q 750.272 412.515 751.352 411.219 L 751.352 411.219 L 751.352 407.115 L 751.352 407.115 Q 749.624 407.331 748.472 408.141 L 748.472 408.141 L 748.472 408.141 Q 747.32 408.951 747.32 410.499 L 747.32 410.499 L 747.32 410.499 Q 747.32 411.543 747.788 412.029 L 747.788 412.029 L 747.788 412.029 Q 748.256 412.515 749.048 412.515 L 749.048 412.515 L 749.048 412.515 Z  M 763.196 415.935 L 763.196 415.935 Q 761.216 415.935 760.226 414.675 L 760.226 414.675 L 760.226 414.675 Q 759.236 413.415 759.236 411.219 L 759.236 411.219 L 759.236 388.575 L 763.556 388.575 L 763.556 409.743 L 763.556 409.743 Q 763.556 411.255 763.862 411.759 L 763.862 411.759 L 763.862 411.759 Q 764.168 412.263 765.176 412.263 L 765.176 412.263 L 764.816 415.935 L 763.196 415.935 L 763.196 415.935 Z  M 771.404 415.935 L 771.404 415.935 Q 769.424 415.935 768.434 414.675 L 768.434 414.675 L 768.434 414.675 Q 767.444 413.415 767.444 411.219 L 767.444 411.219 L 767.444 388.575 L 771.764 388.575 L 771.764 409.743 L 771.764 409.743 Q 771.764 411.255 772.07 411.759 L 772.07 411.759 L 772.07 411.759 Q 772.376 412.263 773.384 412.263 L 773.384 412.263 L 773.024 415.935 L 771.404 415.935 L 771.404 415.935 Z  M 629.996 416.079 L 629.996 416.079 Q 626.648 416.079 624.11 414.459 L 624.11 414.459 L 624.11 414.459 Q 621.572 412.839 620.168 409.869 L 620.168 409.869 L 620.168 409.869 Q 618.764 406.899 618.764 402.975 L 618.764 402.975 L 618.764 402.975 Q 618.764 399.015 620.24 396.045 L 620.24 396.045 L 620.24 396.045 Q 621.716 393.075 624.308 391.473 L 624.308 391.473 L 624.308 391.473 Q 626.9 389.871 630.176 389.871 L 630.176 389.871 L 630.176 389.871 Q 633.38 389.871 636.08 391.059 L 636.08 391.059 L 635.576 395.451 L 635.576 395.451 Q 634.172 394.875 633.11 394.587 L 633.11 394.587 L 633.11 394.587 Q 632.048 394.299 630.752 394.299 L 630.752 394.299 L 630.752 394.299 Q 627.368 394.299 625.478 396.603 L 625.478 396.603 L 625.478 396.603 Q 623.588 398.907 623.588 402.975 L 623.588 402.975 L 623.588 402.975 Q 623.588 407.115 625.334 409.383 L 625.334 409.383 L 625.334 409.383 Q 627.08 411.651 630.392 411.651 L 630.392 411.651 L 630.392 411.651 Q 631.508 411.651 632.408 411.327 L 632.408 411.327 L 632.408 406.971 L 629.528 406.971 L 629.528 402.939 L 636.8 402.939 L 636.8 414.243 L 636.8 414.243 Q 635.576 415.107 633.812 415.593 L 633.812 415.593 L 633.812 415.593 Q 632.048 416.079 629.996 416.079 L 629.996 416.079 L 629.996 416.079 Z  M 639.86 415.575 L 639.86 397.575 L 643.64 397.575 L 643.928 399.483 L 643.928 399.483 Q 644.936 398.367 645.818 397.827 L 645.818 397.827 L 645.818 397.827 Q 646.7 397.287 647.888 397.287 L 647.888 397.287 L 647.888 397.287 Q 648.392 397.287 648.824 397.395 L 648.824 397.395 L 648.5 401.751 L 648.5 401.751 Q 647.96 401.571 647.348 401.571 L 647.348 401.571 L 647.348 401.571 Q 646.484 401.571 645.8 401.967 L 645.8 401.967 L 645.8 401.967 Q 645.116 402.363 644.18 403.299 L 644.18 403.299 L 644.18 415.575 L 639.86 415.575 L 639.86 415.575 Z  M 650.156 394.839 L 650.156 390.375 L 654.476 390.375 L 654.476 394.839 L 650.156 394.839 L 650.156 394.839 Z  M 650.156 415.575 L 650.156 397.575 L 654.476 397.575 L 654.476 415.575 L 650.156 415.575 L 650.156 415.575 Z  M 658.652 415.575 L 658.652 401.247 L 656.636 401.247 L 656.96 397.575 L 658.652 397.575 L 658.652 393.759 L 658.652 393.759 Q 658.652 391.419 659.93 389.997 L 659.93 389.997 L 659.93 389.997 Q 661.208 388.575 663.728 388.575 L 663.728 388.575 L 663.728 388.575 Q 665.096 388.575 666.104 388.935 L 666.104 388.935 L 665.78 392.499 L 665.78 392.499 Q 665.312 392.319 664.772 392.319 L 664.772 392.319 L 664.772 392.319 Q 663.908 392.319 663.44 392.877 L 663.44 392.877 L 663.44 392.877 Q 662.972 393.435 662.972 394.407 L 662.972 394.407 L 662.972 397.575 L 666.068 397.575 L 666.068 401.247 L 662.972 401.247 L 662.972 415.575 L 658.652 415.575 L 658.652 415.575 Z  M 669.2 415.575 L 669.2 401.247 L 667.184 401.247 L 667.508 397.575 L 669.2 397.575 L 669.2 393.759 L 669.2 393.759 Q 669.2 391.419 670.478 389.997 L 670.478 389.997 L 670.478 389.997 Q 671.756 388.575 674.276 388.575 L 674.276 388.575 L 674.276 388.575 Q 675.644 388.575 676.652 388.935 L 676.652 388.935 L 676.328 392.499 L 676.328 392.499 Q 675.86 392.319 675.32 392.319 L 675.32 392.319 L 675.32 392.319 Q 674.456 392.319 673.988 392.877 L 673.988 392.877 L 673.988 392.877 Q 673.52 393.435 673.52 394.407 L 673.52 394.407 L 673.52 397.575 L 676.616 397.575 L 676.616 401.247 L 673.52 401.247 L 673.52 415.575 L 669.2 415.575 L 669.2 415.575 Z  M 678.74 394.839 L 678.74 390.375 L 683.06 390.375 L 683.06 394.839 L 678.74 394.839 L 678.74 394.839 Z  M 678.74 415.575 L 678.74 397.575 L 683.06 397.575 L 683.06 415.575 L 678.74 415.575 L 678.74 415.575 Z  M 691.484 415.935 L 691.484 415.935 Q 689.432 415.935 688.334 414.747 L 688.334 414.747 L 688.334 414.747 Q 687.236 413.559 687.236 411.219 L 687.236 411.219 L 687.236 401.247 L 685.22 401.247 L 685.616 397.575 L 687.236 397.575 L 687.236 393.615 L 691.556 393.147 L 691.556 397.575 L 694.688 397.575 L 694.688 401.247 L 691.556 401.247 L 691.556 410.103 L 691.556 410.103 Q 691.556 411.219 692.006 411.741 L 692.006 411.741 L 692.006 411.741 Q 692.456 412.263 693.428 412.263 L 693.428 412.263 L 694.724 412.263 L 694.328 415.935 L 691.484 415.935 L 691.484 415.935 Z  M 705.308 397.287 L 705.308 397.287 Q 708.008 397.287 709.43 399.069 L 709.43 399.069 L 709.43 399.069 Q 710.852 400.851 710.852 403.875 L 710.852 403.875 L 710.852 415.575 L 706.532 415.575 L 706.532 404.451 L 706.532 404.451 Q 706.532 400.815 704.084 400.815 L 704.084 400.815 L 704.084 400.815 Q 702.392 400.815 701.312 402.363 L 701.312 402.363 L 701.312 415.575 L 696.992 415.575 L 696.992 388.575 L 701.312 388.575 L 701.312 398.619 L 701.312 398.619 Q 702.932 397.287 705.308 397.287 L 705.308 397.287 L 705.308 397.287 Z  M 530.744 421.767 L 530.42 417.879 L 530.42 417.879 Q 531.608 417.879 532.13 417.357 L 532.13 417.357 L 532.13 417.357 Q 532.652 416.835 532.652 415.611 L 532.652 415.611 L 532.652 390.375 L 537.044 390.375 L 537.044 416.439 L 537.044 416.439 Q 537.044 419.103 535.568 420.435 L 535.568 420.435 L 535.568 420.435 Q 534.092 421.767 531.5 421.767 L 531.5 421.767 L 530.744 421.767 L 530.744 421.767 Z  M 544.496 415.935 L 544.496 415.935 Q 542.48 415.935 541.094 414.621 L 541.094 414.621 L 541.094 414.621 Q 539.708 413.307 539.708 410.931 L 539.708 410.931 L 539.708 410.931 Q 539.708 408.447 541.202 406.953 L 541.202 406.953 L 541.202 406.953 Q 542.696 405.459 544.658 404.811 L 544.658 404.811 L 544.658 404.811 Q 546.62 404.163 548.24 404.091 L 548.24 404.091 L 548.24 404.091 Q 548.24 402.507 547.664 401.823 L 547.664 401.823 L 547.664 401.823 Q 547.088 401.139 545.684 401.139 L 545.684 401.139 L 545.684 401.139 Q 544.604 401.139 543.596 401.481 L 543.596 401.481 L 543.596 401.481 Q 542.588 401.823 541.328 402.507 L 541.328 402.507 L 541.04 398.871 L 541.04 398.871 Q 543.92 397.287 546.836 397.287 L 546.836 397.287 L 546.836 397.287 Q 549.536 397.287 551.066 398.889 L 551.066 398.889 L 551.066 398.889 Q 552.596 400.491 552.596 403.947 L 552.596 403.947 L 552.596 409.383 L 552.596 409.383 Q 552.596 410.715 552.704 411.327 L 552.704 411.327 L 552.704 411.327 Q 552.812 411.939 553.046 412.101 L 553.046 412.101 L 553.046 412.101 Q 553.28 412.263 553.784 412.263 L 553.784 412.263 L 554.36 412.263 L 554.072 415.935 L 552.164 415.935 L 552.164 415.935 Q 551.156 415.935 550.238 415.359 L 550.238 415.359 L 550.238 415.359 Q 549.32 414.783 548.888 413.847 L 548.888 413.847 L 548.888 413.847 Q 547.916 414.891 546.908 415.413 L 546.908 415.413 L 546.908 415.413 Q 545.9 415.935 544.496 415.935 L 544.496 415.935 L 544.496 415.935 Z  M 545.972 412.515 L 545.972 412.515 Q 547.196 412.515 548.276 411.219 L 548.276 411.219 L 548.276 407.115 L 548.276 407.115 Q 546.548 407.331 545.396 408.141 L 545.396 408.141 L 545.396 408.141 Q 544.244 408.951 544.244 410.499 L 544.244 410.499 L 544.244 410.499 Q 544.244 411.543 544.712 412.029 L 544.712 412.029 L 544.712 412.029 Q 545.18 412.515 545.972 412.515 L 545.972 412.515 L 545.972 412.515 Z  M 573.8 397.287 L 573.8 397.287 Q 576.68 397.287 578.192 399.069 L 578.192 399.069 L 578.192 399.069 Q 579.704 400.851 579.704 403.875 L 579.704 403.875 L 579.704 415.575 L 575.384 415.575 L 575.384 404.451 L 575.384 404.451 Q 575.384 402.687 574.808 401.751 L 574.808 401.751 L 574.808 401.751 Q 574.232 400.815 572.9 400.815 L 572.9 400.815 L 572.9 400.815 Q 571.568 400.815 570.866 401.589 L 570.866 401.589 L 570.866 401.589 Q 570.164 402.363 570.164 403.875 L 570.164 403.875 L 570.164 415.575 L 565.844 415.575 L 565.844 404.451 L 565.844 404.451 Q 565.844 400.815 563.396 400.815 L 563.396 400.815 L 563.396 400.815 Q 561.704 400.815 560.624 402.363 L 560.624 402.363 L 560.624 415.575 L 556.304 415.575 L 556.304 397.575 L 559.976 397.575 L 560.156 399.015 L 560.156 399.015 Q 561.812 397.287 564.368 397.287 L 564.368 397.287 L 564.368 397.287 Q 565.844 397.287 566.996 397.899 L 566.996 397.899 L 566.996 397.899 Q 568.148 398.511 568.796 399.627 L 568.796 399.627 L 568.796 399.627 Q 569.66 398.511 570.938 397.899 L 570.938 397.899 L 570.938 397.899 Q 572.216 397.287 573.8 397.287 L 573.8 397.287 L 573.8 397.287 Z  M 590.648 415.935 L 590.648 415.935 Q 587.912 415.935 586.004 414.675 L 586.004 414.675 L 586.004 414.675 Q 584.096 413.415 583.142 411.291 L 583.142 411.291 L 583.142 411.291 Q 582.188 409.167 582.188 406.575 L 582.188 406.575 L 582.188 406.575 Q 582.188 403.911 583.088 401.805 L 583.088 401.805 L 583.088 401.805 Q 583.988 399.699 585.752 398.493 L 585.752 398.493 L 585.752 398.493 Q 587.516 397.287 589.964 397.287 L 589.964 397.287 L 589.964 397.287 Q 593.024 397.287 594.788 399.447 L 594.788 399.447 L 594.788 399.447 Q 596.552 401.607 596.552 405.243 L 596.552 405.243 L 596.552 405.243 Q 596.552 406.287 596.336 407.547 L 596.336 407.547 L 586.652 407.547 L 586.652 407.547 Q 586.868 409.995 588.092 411.201 L 588.092 411.201 L 588.092 411.201 Q 589.316 412.407 591.116 412.407 L 591.116 412.407 L 591.116 412.407 Q 593.564 412.407 595.76 410.967 L 595.76 410.967 L 595.868 414.747 L 595.868 414.747 Q 593.672 415.935 590.648 415.935 L 590.648 415.935 L 590.648 415.935 Z  M 586.688 404.523 L 592.196 404.523 L 592.196 404.523 Q 592.196 400.815 589.676 400.815 L 589.676 400.815 L 589.676 400.815 Q 587.192 400.815 586.688 404.523 L 586.688 404.523 L 586.688 404.523 Z  M 603.644 415.935 L 603.644 415.935 Q 602.168 415.935 600.962 415.629 L 600.962 415.629 L 600.962 415.629 Q 599.756 415.323 598.496 414.675 L 598.496 414.675 L 598.892 410.859 L 598.892 410.859 Q 601.412 412.587 603.32 412.587 L 603.32 412.587 L 603.32 412.587 Q 604.544 412.587 605.192 412.119 L 605.192 412.119 L 605.192 412.119 Q 605.84 411.651 605.84 410.823 L 605.84 410.823 L 605.84 410.823 Q 605.84 409.959 605.246 409.401 L 605.246 409.401 L 605.246 409.401 Q 604.652 408.843 602.924 408.015 L 602.924 408.015 L 602.924 408.015 Q 600.62 406.899 599.594 405.729 L 599.594 405.729 L 599.594 405.729 Q 598.568 404.559 598.568 402.507 L 598.568 402.507 L 598.568 402.507 Q 598.568 400.167 600.224 398.727 L 600.224 398.727 L 600.224 398.727 Q 601.88 397.287 604.688 397.287 L 604.688 397.287 L 604.688 397.287 Q 607.208 397.287 609.404 398.619 L 609.404 398.619 L 609.008 402.327 L 609.008 402.327 Q 607.964 401.427 607.01 400.959 L 607.01 400.959 L 607.01 400.959 Q 606.056 400.491 604.976 400.491 L 604.976 400.491 L 604.976 400.491 Q 603.932 400.491 603.302 400.941 L 603.302 400.941 L 603.302 400.941 Q 602.672 401.391 602.672 402.219 L 602.672 402.219 L 602.672 402.219 Q 602.672 403.047 603.338 403.569 L 603.338 403.569 L 603.338 403.569 Q 604.004 404.091 606.02 405.135 L 606.02 405.135 L 606.02 405.135 Q 608.036 406.179 608.99 407.421 L 608.99 407.421 L 608.99 407.421 Q 609.944 408.663 609.944 410.643 L 609.944 410.643 L 609.944 410.643 Q 609.944 413.091 608.234 414.513 L 608.234 414.513 L 608.234 414.513 Q 606.524 415.935 603.644 415.935 L 603.644 415.935 L 603.644 415.935 Z  M 493.376 415.575 L 493.376 390.375 L 501.512 390.375 L 501.512 390.375 Q 504.608 390.375 507.02 391.887 L 507.02 391.887 L 507.02 391.887 Q 509.432 393.399 510.8 396.243 L 510.8 396.243 L 510.8 396.243 Q 512.168 399.087 512.168 402.975 L 512.168 402.975 L 512.168 402.975 Q 512.168 406.863 510.8 409.707 L 510.8 409.707 L 510.8 409.707 Q 509.432 412.551 507.02 414.063 L 507.02 414.063 L 507.02 414.063 Q 504.608 415.575 501.512 415.575 L 501.512 415.575 L 493.376 415.575 L 493.376 415.575 Z  M 497.768 411.543 L 501.512 411.543 L 501.512 411.543 Q 504.392 411.543 505.868 409.275 L 505.868 409.275 L 505.868 409.275 Q 507.344 407.007 507.344 402.975 L 507.344 402.975 L 507.344 402.975 Q 507.344 398.943 505.868 396.675 L 505.868 396.675 L 505.868 396.675 Q 504.392 394.407 501.512 394.407 L 501.512 394.407 L 497.768 394.407 L 497.768 411.543 L 497.768 411.543 Z  M 514.904 415.575 L 514.904 397.575 L 518.684 397.575 L 518.972 399.483 L 518.972 399.483 Q 519.98 398.367 520.862 397.827 L 520.862 397.827 L 520.862 397.827 Q 521.744 397.287 522.932 397.287 L 522.932 397.287 L 522.932 397.287 Q 523.436 397.287 523.868 397.395 L 523.868 397.395 L 523.544 401.751 L 523.544 401.751 Q 523.004 401.571 522.392 401.571 L 522.392 401.571 L 522.392 401.571 Q 521.528 401.571 520.844 401.967 L 520.844 401.967 L 520.844 401.967 Q 520.16 402.363 519.224 403.299 L 519.224 403.299 L 519.224 415.575 L 514.904 415.575 L 514.904 415.575 Z " fill-rule="evenodd" fill="rgb(68,68,68)"/><path d=" M 683.86 430.357 L 683.86 430.357 Q 684.904 430.699 685.507 431.491 L 685.507 431.491 L 685.507 431.491 Q 686.11 432.283 686.11 433.435 L 686.11 433.435 L 686.11 433.435 Q 686.11 435.253 684.895 436.261 L 684.895 436.261 L 684.895 436.261 Q 683.68 437.269 681.628 437.269 L 681.628 437.269 L 681.628 437.269 Q 680.584 437.269 679.657 437.035 L 679.657 437.035 L 679.657 437.035 Q 678.73 436.801 678.082 436.459 L 678.082 436.459 L 678.64 434.515 L 678.64 434.515 Q 680.188 435.289 681.628 435.289 L 681.628 435.289 L 681.628 435.289 Q 682.636 435.289 683.221 434.821 L 683.221 434.821 L 683.221 434.821 Q 683.806 434.353 683.806 433.435 L 683.806 433.435 L 683.806 433.435 Q 683.806 431.527 681.484 431.527 L 681.484 431.527 L 680.206 431.527 L 680.206 429.367 L 681.466 429.367 L 681.466 429.367 Q 682.438 429.367 682.951 428.926 L 682.951 428.926 L 682.951 428.926 Q 683.464 428.485 683.464 427.675 L 683.464 427.675 L 683.464 427.675 Q 683.464 426.973 682.987 426.559 L 682.987 426.559 L 682.987 426.559 Q 682.51 426.145 681.628 426.145 L 681.628 426.145 L 681.628 426.145 Q 680.908 426.145 680.233 426.361 L 680.233 426.361 L 680.233 426.361 Q 679.558 426.577 678.838 426.991 L 678.838 426.991 L 678.496 424.957 L 678.496 424.957 Q 680.008 424.165 681.862 424.165 L 681.862 424.165 L 681.862 424.165 Q 683.662 424.165 684.661 425.056 L 684.661 425.056 L 684.661 425.056 Q 685.66 425.947 685.66 427.387 L 685.66 427.387 L 685.66 427.387 Q 685.66 428.413 685.192 429.178 L 685.192 429.178 L 685.192 429.178 Q 684.724 429.943 683.86 430.357 L 683.86 430.357 L 683.86 430.357 Z  M 689.338 437.017 L 689.338 427.675 L 689.338 427.675 Q 688.582 428.179 687.754 428.323 L 687.754 428.323 L 687.556 426.379 L 687.556 426.379 Q 688.15 426.253 688.888 425.65 L 688.888 425.65 L 688.888 425.65 Q 689.626 425.047 689.878 424.417 L 689.878 424.417 L 691.642 424.417 L 691.642 437.017 L 689.338 437.017 L 689.338 437.017 Z  M 698.633 429.439 L 698.633 429.439 Q 699.677 429.439 700.523 429.925 L 700.523 429.925 L 700.523 429.925 Q 701.369 430.411 701.846 431.275 L 701.846 431.275 L 701.846 431.275 Q 702.323 432.139 702.323 433.237 L 702.323 433.237 L 702.323 433.237 Q 702.323 434.425 701.819 435.343 L 701.819 435.343 L 701.819 435.343 Q 701.315 436.261 700.379 436.765 L 700.379 436.765 L 700.379 436.765 Q 699.443 437.269 698.183 437.269 L 698.183 437.269 L 698.183 437.269 Q 696.887 437.269 695.897 436.684 L 695.897 436.684 L 695.897 436.684 Q 694.907 436.099 694.367 435.037 L 694.367 435.037 L 694.367 435.037 Q 693.827 433.975 693.827 432.571 L 693.827 432.571 L 693.827 432.571 Q 693.827 430.663 694.691 428.989 L 694.691 428.989 L 694.691 428.989 Q 695.555 427.315 696.878 426.091 L 696.878 426.091 L 696.878 426.091 Q 698.201 424.867 699.587 424.165 L 699.587 424.165 L 701.189 425.425 L 701.189 425.425 Q 699.875 426.073 698.453 427.288 L 698.453 427.288 L 698.453 427.288 Q 697.031 428.503 696.365 430.051 L 696.365 430.051 L 696.365 430.051 Q 697.301 429.439 698.633 429.439 L 698.633 429.439 L 698.633 429.439 Z  M 698.219 435.361 L 698.219 435.361 Q 699.083 435.361 699.659 434.776 L 699.659 434.776 L 699.659 434.776 Q 700.235 434.191 700.235 433.327 L 700.235 433.327 L 700.235 433.327 Q 700.235 432.481 699.659 431.914 L 699.659 431.914 L 699.659 431.914 Q 699.083 431.347 698.219 431.347 L 698.219 431.347 L 698.219 431.347 Q 697.337 431.347 696.77 431.914 L 696.77 431.914 L 696.77 431.914 Q 696.203 432.481 696.203 433.327 L 696.203 433.327 L 696.203 433.327 Q 696.203 434.191 696.779 434.776 L 696.779 434.776 L 696.779 434.776 Q 697.355 435.361 698.219 435.361 L 698.219 435.361 L 698.219 435.361 Z  M 705.246 437.017 L 705.246 427.675 L 705.246 427.675 Q 704.49 428.179 703.662 428.323 L 703.662 428.323 L 703.464 426.379 L 703.464 426.379 Q 704.058 426.253 704.796 425.65 L 704.796 425.65 L 704.796 425.65 Q 705.534 425.047 705.786 424.417 L 705.786 424.417 L 707.55 424.417 L 707.55 437.017 L 705.246 437.017 L 705.246 437.017 Z  M 646.104 437.017 L 646.104 424.417 L 648.372 424.417 L 653.754 432.553 L 653.754 424.417 L 656.058 424.417 L 656.058 437.017 L 654.168 437.017 L 648.408 428.377 L 648.408 437.017 L 646.104 437.017 L 646.104 437.017 Z  M 663.859 437.269 L 663.859 437.269 Q 662.077 437.269 660.664 436.45 L 660.664 436.45 L 660.664 436.45 Q 659.251 435.631 658.45 434.146 L 658.45 434.146 L 658.45 434.146 Q 657.649 432.661 657.649 430.717 L 657.649 430.717 L 657.649 430.717 Q 657.649 428.773 658.45 427.288 L 658.45 427.288 L 658.45 427.288 Q 659.251 425.803 660.664 424.984 L 660.664 424.984 L 660.664 424.984 Q 662.077 424.165 663.859 424.165 L 663.859 424.165 L 663.859 424.165 Q 665.641 424.165 667.054 424.984 L 667.054 424.984 L 667.054 424.984 Q 668.467 425.803 669.268 427.288 L 669.268 427.288 L 669.268 427.288 Q 670.069 428.773 670.069 430.717 L 670.069 430.717 L 670.069 430.717 Q 670.069 432.661 669.268 434.146 L 669.268 434.146 L 669.268 434.146 Q 668.467 435.631 667.054 436.45 L 667.054 436.45 L 667.054 436.45 Q 665.641 437.269 663.859 437.269 L 663.859 437.269 L 663.859 437.269 Z  M 663.859 435.037 L 663.859 435.037 Q 665.695 435.037 666.676 433.849 L 666.676 433.849 L 666.676 433.849 Q 667.657 432.661 667.657 430.717 L 667.657 430.717 L 667.657 430.717 Q 667.657 428.773 666.676 427.585 L 666.676 427.585 L 666.676 427.585 Q 665.695 426.397 663.859 426.397 L 663.859 426.397 L 663.859 426.397 Q 662.023 426.397 661.042 427.585 L 661.042 427.585 L 661.042 427.585 Q 660.061 428.773 660.061 430.717 L 660.061 430.717 L 660.061 430.717 Q 660.061 432.661 661.042 433.849 L 661.042 433.849 L 661.042 433.849 Q 662.023 435.037 663.859 435.037 L 663.859 435.037 L 663.859 435.037 Z  M 671.102 437.017 L 671.102 434.569 L 673.442 434.569 L 673.442 437.017 L 671.102 437.017 L 671.102 437.017 Z " fill-rule="evenodd" fill="rgb(68,68,68)"/></svg>