<?xml version="1.0" standalone="no"?><!-- Generator: Gravit.io --><svg xmlns="http://www.w3.org/2000/svg" xmlns:xlink="http://www.w3.org/1999/xlink" style="isolation:isolate" viewBox="381.117 359.511 441.323 56.978" width="441.323" height="56.978"><g><linearGradient id="_lgradient_0" x1="0" y1="0.5" x2="1" y2="0.5" gradientTransform="matrix(-56.626,0,0,-37.751,437.743,416.489)" gradientUnits="userSpaceOnUse"><stop offset="1.3043478260869565%" stop-opacity="1" style="stop-color:rgb(75,174,231)"/><stop offset="97.82608695652173%" stop-opacity="1" style="stop-color:rgb(35,94,164)"/></linearGradient><path d=" M 418.806 407.051 L 437.743 388.114 L 428.367 378.738 L 409.43 397.675 L 390.493 378.738 L 381.117 388.114 L 400.054 407.051 L 399.992 407.113 L 409.368 416.489 L 409.43 416.427 L 409.491 416.489 L 418.868 407.113 L 418.806 407.051 Z " fill-rule="evenodd" fill="url(#_lgradient_0)"/><linearGradient id="_lgradient_1" x1="0" y1="0.5" x2="1" y2="0.5" gradientTransform="matrix(56.626,0,0,37.751,381.117,359.511)" gradientUnits="userSpaceOnUse"><stop offset="2.1739130434782608%" stop-opacity="1" style="stop-color:rgb(75,174,231)"/><stop offset="97.82608695652173%" stop-opacity="1" style="stop-color:rgb(35,94,164)"/></linearGradient><path d=" M 400.054 368.949 L 381.117 387.886 L 390.493 397.262 L 409.43 378.325 L 428.367 397.262 L 437.743 387.886 L 418.806 368.949 L 418.868 368.887 L 409.491 359.511 L 409.43 359.573 L 409.368 359.511 L 399.992 368.887 L 400.054 368.949 Z " fill-rule="evenodd" fill="url(#_lgradient_1)"/></g><path d=" M 743.203 400.87 L 743.203 375.67 L 747.595 375.67 L 747.595 396.838 L 756.091 396.838 L 756.091 400.87 L 743.203 400.87 L 743.203 400.87 Z  M 765.127 401.23 L 765.127 401.23 Q 762.679 401.23 760.879 399.97 L 760.879 399.97 L 760.879 399.97 Q 759.079 398.71 758.125 396.586 L 758.125 396.586 L 758.125 396.586 Q 757.171 394.462 757.171 391.906 L 757.171 391.906 L 757.171 391.906 Q 757.171 389.35 758.125 387.226 L 758.125 387.226 L 758.125 387.226 Q 759.079 385.102 760.879 383.842 L 760.879 383.842 L 760.879 383.842 Q 762.679 382.582 765.127 382.582 L 765.127 382.582 L 765.127 382.582 Q 767.575 382.582 769.393 383.842 L 769.393 383.842 L 769.393 383.842 Q 771.211 385.102 772.165 387.226 L 772.165 387.226 L 772.165 387.226 Q 773.119 389.35 773.119 391.906 L 773.119 391.906 L 773.119 391.906 Q 773.119 394.462 772.165 396.586 L 772.165 396.586 L 772.165 396.586 Q 771.211 398.71 769.393 399.97 L 769.393 399.97 L 769.393 399.97 Q 767.575 401.23 765.127 401.23 L 765.127 401.23 L 765.127 401.23 Z  M 765.127 397.702 L 765.127 397.702 Q 766.819 397.702 767.773 396.118 L 767.773 396.118 L 767.773 396.118 Q 768.727 394.534 768.727 391.906 L 768.727 391.906 L 768.727 391.906 Q 768.727 389.278 767.773 387.694 L 767.773 387.694 L 767.773 387.694 Q 766.819 386.11 765.127 386.11 L 765.127 386.11 L 765.127 386.11 Q 763.471 386.11 762.517 387.712 L 762.517 387.712 L 762.517 387.712 Q 761.563 389.314 761.563 391.906 L 761.563 391.906 L 761.563 391.906 Q 761.563 394.498 762.517 396.1 L 762.517 396.1 L 762.517 396.1 Q 763.471 397.702 765.127 397.702 L 765.127 397.702 L 765.127 397.702 Z  M 785.611 373.87 L 789.931 373.87 L 789.931 400.87 L 785.863 400.87 L 785.791 399.718 L 785.791 399.718 Q 784.927 400.474 783.937 400.852 L 783.937 400.852 L 783.937 400.852 Q 782.947 401.23 781.651 401.23 L 781.651 401.23 L 781.651 401.23 Q 779.419 401.23 777.799 399.97 L 777.799 399.97 L 777.799 399.97 Q 776.179 398.71 775.351 396.586 L 775.351 396.586 L 775.351 396.586 Q 774.523 394.462 774.523 391.906 L 774.523 391.906 L 774.523 391.906 Q 774.523 389.35 775.351 387.226 L 775.351 387.226 L 775.351 387.226 Q 776.179 385.102 777.799 383.842 L 777.799 383.842 L 777.799 383.842 Q 779.419 382.582 781.651 382.582 L 781.651 382.582 L 781.651 382.582 Q 783.991 382.582 785.611 383.986 L 785.611 383.986 L 785.611 373.87 L 785.611 373.87 Z  M 782.299 397.702 L 782.299 397.702 Q 784.063 397.702 784.945 396.136 L 784.945 396.136 L 784.945 396.136 Q 785.827 394.57 785.827 391.906 L 785.827 391.906 L 785.827 391.906 Q 785.827 389.242 784.945 387.676 L 784.945 387.676 L 784.945 387.676 Q 784.063 386.11 782.299 386.11 L 782.299 386.11 L 782.299 386.11 Q 780.715 386.11 779.815 387.694 L 779.815 387.694 L 779.815 387.694 Q 778.915 389.278 778.915 391.906 L 778.915 391.906 L 778.915 391.906 Q 778.915 394.534 779.815 396.118 L 779.815 396.118 L 779.815 396.118 Q 780.715 397.702 782.299 397.702 L 782.299 397.702 L 782.299 397.702 Z  M 799.651 409.87 L 799.651 409.87 Q 796.411 409.87 794.449 408.538 L 794.449 408.538 L 794.449 408.538 Q 792.487 407.206 792.487 404.83 L 792.487 404.83 L 792.487 404.83 Q 792.487 403.498 793.171 402.49 L 793.171 402.49 L 793.171 402.49 Q 793.855 401.482 795.187 400.69 L 795.187 400.69 L 795.187 400.69 Q 793.639 399.79 793.639 398.206 L 793.639 398.206 L 793.639 398.206 Q 793.639 396.658 795.331 395.65 L 795.331 395.65 L 795.331 395.65 Q 794.035 394.678 793.315 393.112 L 793.315 393.112 L 793.315 393.112 Q 792.595 391.546 792.595 389.674 L 792.595 389.674 L 792.595 389.674 Q 792.595 387.694 793.369 386.074 L 793.369 386.074 L 793.369 386.074 Q 794.143 384.454 795.619 383.518 L 795.619 383.518 L 795.619 383.518 Q 797.095 382.582 799.075 382.582 L 799.075 382.582 L 799.075 382.582 Q 801.415 382.582 803.035 383.878 L 803.035 383.878 L 803.035 383.878 Q 804.511 382.582 806.059 382.582 L 806.059 382.582 L 806.059 382.582 Q 806.527 382.582 806.959 382.654 L 806.959 382.654 L 806.635 385.426 L 806.635 385.426 Q 806.275 385.354 805.915 385.354 L 805.915 385.354 L 805.915 385.354 Q 805.159 385.354 804.547 385.642 L 804.547 385.642 L 804.547 385.642 Q 805.555 387.37 805.555 389.674 L 805.555 389.674 L 805.555 389.674 Q 805.555 391.654 804.781 393.274 L 804.781 393.274 L 804.781 393.274 Q 804.007 394.894 802.531 395.848 L 802.531 395.848 L 802.531 395.848 Q 801.055 396.802 799.075 396.802 L 799.075 396.802 L 799.075 396.802 Q 798.283 396.802 797.707 396.658 L 797.707 396.658 L 797.707 396.658 Q 797.383 396.91 797.383 397.27 L 797.383 397.27 L 797.383 397.27 Q 797.383 397.63 797.635 397.828 L 797.635 397.828 L 797.635 397.828 Q 797.887 398.026 798.499 398.17 L 798.499 398.17 L 802.207 399.034 L 802.207 399.034 Q 804.835 399.646 806.023 400.852 L 806.023 400.852 L 806.023 400.852 Q 807.211 402.058 807.211 404.218 L 807.211 404.218 L 807.211 404.218 Q 807.211 405.91 806.257 407.188 L 806.257 407.188 L 806.257 407.188 Q 805.303 408.466 803.575 409.168 L 803.575 409.168 L 803.575 409.168 Q 801.847 409.87 799.651 409.87 L 799.651 409.87 L 799.651 409.87 Z  M 799.075 393.562 L 799.075 393.562 Q 800.263 393.562 800.929 392.5 L 800.929 392.5 L 800.929 392.5 Q 801.595 391.438 801.595 389.674 L 801.595 389.674 L 801.595 389.674 Q 801.595 387.946 800.929 386.884 L 800.929 386.884 L 800.929 386.884 Q 800.263 385.822 799.075 385.822 L 799.075 385.822 L 799.075 385.822 Q 797.851 385.822 797.203 386.884 L 797.203 386.884 L 797.203 386.884 Q 796.555 387.946 796.555 389.674 L 796.555 389.674 L 796.555 389.674 Q 796.555 391.438 797.203 392.5 L 797.203 392.5 L 797.203 392.5 Q 797.851 393.562 799.075 393.562 L 799.075 393.562 L 799.075 393.562 Z  M 799.759 406.63 L 799.759 406.63 Q 801.415 406.63 802.441 406.072 L 802.441 406.072 L 802.441 406.072 Q 803.467 405.514 803.467 404.47 L 803.467 404.47 L 803.467 404.47 Q 803.467 403.606 802.909 403.12 L 802.909 403.12 L 802.909 403.12 Q 802.351 402.634 800.983 402.31 L 800.983 402.31 L 797.887 401.554 L 797.887 401.554 Q 796.915 402.13 796.429 402.76 L 796.429 402.76 L 796.429 402.76 Q 795.943 403.39 795.943 404.218 L 795.943 404.218 L 795.943 404.218 Q 795.943 405.37 796.987 406 L 796.987 406 L 796.987 406 Q 798.031 406.63 799.759 406.63 L 799.759 406.63 L 799.759 406.63 Z  M 816.535 401.23 L 816.535 401.23 Q 813.799 401.23 811.891 399.97 L 811.891 399.97 L 811.891 399.97 Q 809.983 398.71 809.029 396.586 L 809.029 396.586 L 809.029 396.586 Q 808.075 394.462 808.075 391.87 L 808.075 391.87 L 808.075 391.87 Q 808.075 389.206 808.975 387.1 L 808.975 387.1 L 808.975 387.1 Q 809.875 384.994 811.639 383.788 L 811.639 383.788 L 811.639 383.788 Q 813.403 382.582 815.851 382.582 L 815.851 382.582 L 815.851 382.582 Q 818.911 382.582 820.675 384.742 L 820.675 384.742 L 820.675 384.742 Q 822.439 386.902 822.439 390.538 L 822.439 390.538 L 822.439 390.538 Q 822.439 391.582 822.223 392.842 L 822.223 392.842 L 812.539 392.842 L 812.539 392.842 Q 812.755 395.29 813.979 396.496 L 813.979 396.496 L 813.979 396.496 Q 815.203 397.702 817.003 397.702 L 817.003 397.702 L 817.003 397.702 Q 819.451 397.702 821.647 396.262 L 821.647 396.262 L 821.755 400.042 L 821.755 400.042 Q 819.559 401.23 816.535 401.23 L 816.535 401.23 L 816.535 401.23 Z  M 812.575 389.818 L 818.083 389.818 L 818.083 389.818 Q 818.083 386.11 815.563 386.11 L 815.563 386.11 L 815.563 386.11 Q 813.079 386.11 812.575 389.818 L 812.575 389.818 L 812.575 389.818 Z  M 681.715 400.87 L 681.715 375.67 L 686.107 375.67 L 686.107 385.642 L 695.467 385.642 L 695.467 375.67 L 699.859 375.67 L 699.859 400.87 L 695.467 400.87 L 695.467 389.962 L 686.107 389.962 L 686.107 400.87 L 681.715 400.87 L 681.715 400.87 Z  M 707.455 401.23 L 707.455 401.23 Q 705.439 401.23 704.053 399.916 L 704.053 399.916 L 704.053 399.916 Q 702.667 398.602 702.667 396.226 L 702.667 396.226 L 702.667 396.226 Q 702.667 393.742 704.161 392.248 L 704.161 392.248 L 704.161 392.248 Q 705.655 390.754 707.617 390.106 L 707.617 390.106 L 707.617 390.106 Q 709.579 389.458 711.199 389.386 L 711.199 389.386 L 711.199 389.386 Q 711.199 387.802 710.623 387.118 L 710.623 387.118 L 710.623 387.118 Q 710.047 386.434 708.643 386.434 L 708.643 386.434 L 708.643 386.434 Q 707.563 386.434 706.555 386.776 L 706.555 386.776 L 706.555 386.776 Q 705.547 387.118 704.287 387.802 L 704.287 387.802 L 703.999 384.166 L 703.999 384.166 Q 706.879 382.582 709.795 382.582 L 709.795 382.582 L 709.795 382.582 Q 712.495 382.582 714.025 384.184 L 714.025 384.184 L 714.025 384.184 Q 715.555 385.786 715.555 389.242 L 715.555 389.242 L 715.555 394.678 L 715.555 394.678 Q 715.555 396.01 715.663 396.622 L 715.663 396.622 L 715.663 396.622 Q 715.771 397.234 716.005 397.396 L 716.005 397.396 L 716.005 397.396 Q 716.239 397.558 716.743 397.558 L 716.743 397.558 L 717.319 397.558 L 717.031 401.23 L 715.123 401.23 L 715.123 401.23 Q 714.115 401.23 713.197 400.654 L 713.197 400.654 L 713.197 400.654 Q 712.279 400.078 711.847 399.142 L 711.847 399.142 L 711.847 399.142 Q 710.875 400.186 709.867 400.708 L 709.867 400.708 L 709.867 400.708 Q 708.859 401.23 707.455 401.23 L 707.455 401.23 L 707.455 401.23 Z  M 708.931 397.81 L 708.931 397.81 Q 710.155 397.81 711.235 396.514 L 711.235 396.514 L 711.235 392.41 L 711.235 392.41 Q 709.507 392.626 708.355 393.436 L 708.355 393.436 L 708.355 393.436 Q 707.203 394.246 707.203 395.794 L 707.203 395.794 L 707.203 395.794 Q 707.203 396.838 707.671 397.324 L 707.671 397.324 L 707.671 397.324 Q 708.139 397.81 708.931 397.81 L 708.931 397.81 L 708.931 397.81 Z  M 723.079 401.23 L 723.079 401.23 Q 721.099 401.23 720.109 399.97 L 720.109 399.97 L 720.109 399.97 Q 719.119 398.71 719.119 396.514 L 719.119 396.514 L 719.119 373.87 L 723.439 373.87 L 723.439 395.038 L 723.439 395.038 Q 723.439 396.55 723.745 397.054 L 723.745 397.054 L 723.745 397.054 Q 724.051 397.558 725.059 397.558 L 725.059 397.558 L 724.699 401.23 L 723.079 401.23 L 723.079 401.23 Z  M 731.287 401.23 L 731.287 401.23 Q 729.307 401.23 728.317 399.97 L 728.317 399.97 L 728.317 399.97 Q 727.327 398.71 727.327 396.514 L 727.327 396.514 L 727.327 373.87 L 731.647 373.87 L 731.647 395.038 L 731.647 395.038 Q 731.647 396.55 731.953 397.054 L 731.953 397.054 L 731.953 397.054 Q 732.259 397.558 733.267 397.558 L 733.267 397.558 L 732.907 401.23 L 731.287 401.23 L 731.287 401.23 Z  M 589.879 401.374 L 589.879 401.374 Q 586.531 401.374 583.993 399.754 L 583.993 399.754 L 583.993 399.754 Q 581.455 398.134 580.051 395.164 L 580.051 395.164 L 580.051 395.164 Q 578.647 392.194 578.647 388.27 L 578.647 388.27 L 578.647 388.27 Q 578.647 384.31 580.123 381.34 L 580.123 381.34 L 580.123 381.34 Q 581.599 378.37 584.191 376.768 L 584.191 376.768 L 584.191 376.768 Q 586.783 375.166 590.059 375.166 L 590.059 375.166 L 590.059 375.166 Q 593.263 375.166 595.963 376.354 L 595.963 376.354 L 595.459 380.746 L 595.459 380.746 Q 594.055 380.17 592.993 379.882 L 592.993 379.882 L 592.993 379.882 Q 591.931 379.594 590.635 379.594 L 590.635 379.594 L 590.635 379.594 Q 587.251 379.594 585.361 381.898 L 585.361 381.898 L 585.361 381.898 Q 583.471 384.202 583.471 388.27 L 583.471 388.27 L 583.471 388.27 Q 583.471 392.41 585.217 394.678 L 585.217 394.678 L 585.217 394.678 Q 586.963 396.946 590.275 396.946 L 590.275 396.946 L 590.275 396.946 Q 591.391 396.946 592.291 396.622 L 592.291 396.622 L 592.291 392.266 L 589.411 392.266 L 589.411 388.234 L 596.683 388.234 L 596.683 399.538 L 596.683 399.538 Q 595.459 400.402 593.695 400.888 L 593.695 400.888 L 593.695 400.888 Q 591.931 401.374 589.879 401.374 L 589.879 401.374 L 589.879 401.374 Z  M 599.743 400.87 L 599.743 382.87 L 603.523 382.87 L 603.811 384.778 L 603.811 384.778 Q 604.819 383.662 605.701 383.122 L 605.701 383.122 L 605.701 383.122 Q 606.583 382.582 607.771 382.582 L 607.771 382.582 L 607.771 382.582 Q 608.275 382.582 608.707 382.69 L 608.707 382.69 L 608.383 387.046 L 608.383 387.046 Q 607.843 386.866 607.231 386.866 L 607.231 386.866 L 607.231 386.866 Q 606.367 386.866 605.683 387.262 L 605.683 387.262 L 605.683 387.262 Q 604.999 387.658 604.063 388.594 L 604.063 388.594 L 604.063 400.87 L 599.743 400.87 L 599.743 400.87 Z  M 610.039 380.134 L 610.039 375.67 L 614.359 375.67 L 614.359 380.134 L 610.039 380.134 L 610.039 380.134 Z  M 610.039 400.87 L 610.039 382.87 L 614.359 382.87 L 614.359 400.87 L 610.039 400.87 L 610.039 400.87 Z  M 618.535 400.87 L 618.535 386.542 L 616.519 386.542 L 616.843 382.87 L 618.535 382.87 L 618.535 379.054 L 618.535 379.054 Q 618.535 376.714 619.813 375.292 L 619.813 375.292 L 619.813 375.292 Q 621.091 373.87 623.611 373.87 L 623.611 373.87 L 623.611 373.87 Q 624.979 373.87 625.987 374.23 L 625.987 374.23 L 625.663 377.794 L 625.663 377.794 Q 625.195 377.614 624.655 377.614 L 624.655 377.614 L 624.655 377.614 Q 623.791 377.614 623.323 378.172 L 623.323 378.172 L 623.323 378.172 Q 622.855 378.73 622.855 379.702 L 622.855 379.702 L 622.855 382.87 L 625.951 382.87 L 625.951 386.542 L 622.855 386.542 L 622.855 400.87 L 618.535 400.87 L 618.535 400.87 Z  M 629.083 400.87 L 629.083 386.542 L 627.067 386.542 L 627.391 382.87 L 629.083 382.87 L 629.083 379.054 L 629.083 379.054 Q 629.083 376.714 630.361 375.292 L 630.361 375.292 L 630.361 375.292 Q 631.639 373.87 634.159 373.87 L 634.159 373.87 L 634.159 373.87 Q 635.527 373.87 636.535 374.23 L 636.535 374.23 L 636.211 377.794 L 636.211 377.794 Q 635.743 377.614 635.203 377.614 L 635.203 377.614 L 635.203 377.614 Q 634.339 377.614 633.871 378.172 L 633.871 378.172 L 633.871 378.172 Q 633.403 378.73 633.403 379.702 L 633.403 379.702 L 633.403 382.87 L 636.499 382.87 L 636.499 386.542 L 633.403 386.542 L 633.403 400.87 L 629.083 400.87 L 629.083 400.87 Z  M 638.623 380.134 L 638.623 375.67 L 642.943 375.67 L 642.943 380.134 L 638.623 380.134 L 638.623 380.134 Z  M 638.623 400.87 L 638.623 382.87 L 642.943 382.87 L 642.943 400.87 L 638.623 400.87 L 638.623 400.87 Z  M 651.367 401.23 L 651.367 401.23 Q 649.315 401.23 648.217 400.042 L 648.217 400.042 L 648.217 400.042 Q 647.119 398.854 647.119 396.514 L 647.119 396.514 L 647.119 386.542 L 645.103 386.542 L 645.499 382.87 L 647.119 382.87 L 647.119 378.91 L 651.439 378.442 L 651.439 382.87 L 654.571 382.87 L 654.571 386.542 L 651.439 386.542 L 651.439 395.398 L 651.439 395.398 Q 651.439 396.514 651.889 397.036 L 651.889 397.036 L 651.889 397.036 Q 652.339 397.558 653.311 397.558 L 653.311 397.558 L 654.607 397.558 L 654.211 401.23 L 651.367 401.23 L 651.367 401.23 Z  M 665.191 382.582 L 665.191 382.582 Q 667.891 382.582 669.313 384.364 L 669.313 384.364 L 669.313 384.364 Q 670.735 386.146 670.735 389.17 L 670.735 389.17 L 670.735 400.87 L 666.415 400.87 L 666.415 389.746 L 666.415 389.746 Q 666.415 386.11 663.967 386.11 L 663.967 386.11 L 663.967 386.11 Q 662.275 386.11 661.195 387.658 L 661.195 387.658 L 661.195 400.87 L 656.875 400.87 L 656.875 373.87 L 661.195 373.87 L 661.195 383.914 L 661.195 383.914 Q 662.815 382.582 665.191 382.582 L 665.191 382.582 L 665.191 382.582 Z  M 490.627 407.062 L 490.303 403.174 L 490.303 403.174 Q 491.491 403.174 492.013 402.652 L 492.013 402.652 L 492.013 402.652 Q 492.535 402.13 492.535 400.906 L 492.535 400.906 L 492.535 375.67 L 496.927 375.67 L 496.927 401.734 L 496.927 401.734 Q 496.927 404.398 495.451 405.73 L 495.451 405.73 L 495.451 405.73 Q 493.975 407.062 491.383 407.062 L 491.383 407.062 L 490.627 407.062 L 490.627 407.062 Z  M 504.379 401.23 L 504.379 401.23 Q 502.363 401.23 500.977 399.916 L 500.977 399.916 L 500.977 399.916 Q 499.591 398.602 499.591 396.226 L 499.591 396.226 L 499.591 396.226 Q 499.591 393.742 501.085 392.248 L 501.085 392.248 L 501.085 392.248 Q 502.579 390.754 504.541 390.106 L 504.541 390.106 L 504.541 390.106 Q 506.503 389.458 508.123 389.386 L 508.123 389.386 L 508.123 389.386 Q 508.123 387.802 507.547 387.118 L 507.547 387.118 L 507.547 387.118 Q 506.971 386.434 505.567 386.434 L 505.567 386.434 L 505.567 386.434 Q 504.487 386.434 503.479 386.776 L 503.479 386.776 L 503.479 386.776 Q 502.471 387.118 501.211 387.802 L 501.211 387.802 L 500.923 384.166 L 500.923 384.166 Q 503.803 382.582 506.719 382.582 L 506.719 382.582 L 506.719 382.582 Q 509.419 382.582 510.949 384.184 L 510.949 384.184 L 510.949 384.184 Q 512.479 385.786 512.479 389.242 L 512.479 389.242 L 512.479 394.678 L 512.479 394.678 Q 512.479 396.01 512.587 396.622 L 512.587 396.622 L 512.587 396.622 Q 512.695 397.234 512.929 397.396 L 512.929 397.396 L 512.929 397.396 Q 513.163 397.558 513.667 397.558 L 513.667 397.558 L 514.243 397.558 L 513.955 401.23 L 512.047 401.23 L 512.047 401.23 Q 511.039 401.23 510.121 400.654 L 510.121 400.654 L 510.121 400.654 Q 509.203 400.078 508.771 399.142 L 508.771 399.142 L 508.771 399.142 Q 507.799 400.186 506.791 400.708 L 506.791 400.708 L 506.791 400.708 Q 505.783 401.23 504.379 401.23 L 504.379 401.23 L 504.379 401.23 Z  M 505.855 397.81 L 505.855 397.81 Q 507.079 397.81 508.159 396.514 L 508.159 396.514 L 508.159 392.41 L 508.159 392.41 Q 506.431 392.626 505.279 393.436 L 505.279 393.436 L 505.279 393.436 Q 504.127 394.246 504.127 395.794 L 504.127 395.794 L 504.127 395.794 Q 504.127 396.838 504.595 397.324 L 504.595 397.324 L 504.595 397.324 Q 505.063 397.81 505.855 397.81 L 505.855 397.81 L 505.855 397.81 Z  M 533.683 382.582 L 533.683 382.582 Q 536.563 382.582 538.075 384.364 L 538.075 384.364 L 538.075 384.364 Q 539.587 386.146 539.587 389.17 L 539.587 389.17 L 539.587 400.87 L 535.267 400.87 L 535.267 389.746 L 535.267 389.746 Q 535.267 387.982 534.691 387.046 L 534.691 387.046 L 534.691 387.046 Q 534.115 386.11 532.783 386.11 L 532.783 386.11 L 532.783 386.11 Q 531.451 386.11 530.749 386.884 L 530.749 386.884 L 530.749 386.884 Q 530.047 387.658 530.047 389.17 L 530.047 389.17 L 530.047 400.87 L 525.727 400.87 L 525.727 389.746 L 525.727 389.746 Q 525.727 386.11 523.279 386.11 L 523.279 386.11 L 523.279 386.11 Q 521.587 386.11 520.507 387.658 L 520.507 387.658 L 520.507 400.87 L 516.187 400.87 L 516.187 382.87 L 519.859 382.87 L 520.039 384.31 L 520.039 384.31 Q 521.695 382.582 524.251 382.582 L 524.251 382.582 L 524.251 382.582 Q 525.727 382.582 526.879 383.194 L 526.879 383.194 L 526.879 383.194 Q 528.031 383.806 528.679 384.922 L 528.679 384.922 L 528.679 384.922 Q 529.543 383.806 530.821 383.194 L 530.821 383.194 L 530.821 383.194 Q 532.099 382.582 533.683 382.582 L 533.683 382.582 L 533.683 382.582 Z  M 550.531 401.23 L 550.531 401.23 Q 547.795 401.23 545.887 399.97 L 545.887 399.97 L 545.887 399.97 Q 543.979 398.71 543.025 396.586 L 543.025 396.586 L 543.025 396.586 Q 542.071 394.462 542.071 391.87 L 542.071 391.87 L 542.071 391.87 Q 542.071 389.206 542.971 387.1 L 542.971 387.1 L 542.971 387.1 Q 543.871 384.994 545.635 383.788 L 545.635 383.788 L 545.635 383.788 Q 547.399 382.582 549.847 382.582 L 549.847 382.582 L 549.847 382.582 Q 552.907 382.582 554.671 384.742 L 554.671 384.742 L 554.671 384.742 Q 556.435 386.902 556.435 390.538 L 556.435 390.538 L 556.435 390.538 Q 556.435 391.582 556.219 392.842 L 556.219 392.842 L 546.535 392.842 L 546.535 392.842 Q 546.751 395.29 547.975 396.496 L 547.975 396.496 L 547.975 396.496 Q 549.199 397.702 550.999 397.702 L 550.999 397.702 L 550.999 397.702 Q 553.447 397.702 555.643 396.262 L 555.643 396.262 L 555.751 400.042 L 555.751 400.042 Q 553.555 401.23 550.531 401.23 L 550.531 401.23 L 550.531 401.23 Z  M 546.571 389.818 L 552.079 389.818 L 552.079 389.818 Q 552.079 386.11 549.559 386.11 L 549.559 386.11 L 549.559 386.11 Q 547.075 386.11 546.571 389.818 L 546.571 389.818 L 546.571 389.818 Z  M 563.527 401.23 L 563.527 401.23 Q 562.051 401.23 560.845 400.924 L 560.845 400.924 L 560.845 400.924 Q 559.639 400.618 558.379 399.97 L 558.379 399.97 L 558.775 396.154 L 558.775 396.154 Q 561.295 397.882 563.203 397.882 L 563.203 397.882 L 563.203 397.882 Q 564.427 397.882 565.075 397.414 L 565.075 397.414 L 565.075 397.414 Q 565.723 396.946 565.723 396.118 L 565.723 396.118 L 565.723 396.118 Q 565.723 395.254 565.129 394.696 L 565.129 394.696 L 565.129 394.696 Q 564.535 394.138 562.807 393.31 L 562.807 393.31 L 562.807 393.31 Q 560.503 392.194 559.477 391.024 L 559.477 391.024 L 559.477 391.024 Q 558.451 389.854 558.451 387.802 L 558.451 387.802 L 558.451 387.802 Q 558.451 385.462 560.107 384.022 L 560.107 384.022 L 560.107 384.022 Q 561.763 382.582 564.571 382.582 L 564.571 382.582 L 564.571 382.582 Q 567.091 382.582 569.287 383.914 L 569.287 383.914 L 568.891 387.622 L 568.891 387.622 Q 567.847 386.722 566.893 386.254 L 566.893 386.254 L 566.893 386.254 Q 565.939 385.786 564.859 385.786 L 564.859 385.786 L 564.859 385.786 Q 563.815 385.786 563.185 386.236 L 563.185 386.236 L 563.185 386.236 Q 562.555 386.686 562.555 387.514 L 562.555 387.514 L 562.555 387.514 Q 562.555 388.342 563.221 388.864 L 563.221 388.864 L 563.221 388.864 Q 563.887 389.386 565.903 390.43 L 565.903 390.43 L 565.903 390.43 Q 567.919 391.474 568.873 392.716 L 568.873 392.716 L 568.873 392.716 Q 569.827 393.958 569.827 395.938 L 569.827 395.938 L 569.827 395.938 Q 569.827 398.386 568.117 399.808 L 568.117 399.808 L 568.117 399.808 Q 566.407 401.23 563.527 401.23 L 563.527 401.23 L 563.527 401.23 Z  M 453.259 400.87 L 453.259 375.67 L 461.395 375.67 L 461.395 375.67 Q 464.491 375.67 466.903 377.182 L 466.903 377.182 L 466.903 377.182 Q 469.315 378.694 470.683 381.538 L 470.683 381.538 L 470.683 381.538 Q 472.051 384.382 472.051 388.27 L 472.051 388.27 L 472.051 388.27 Q 472.051 392.158 470.683 395.002 L 470.683 395.002 L 470.683 395.002 Q 469.315 397.846 466.903 399.358 L 466.903 399.358 L 466.903 399.358 Q 464.491 400.87 461.395 400.87 L 461.395 400.87 L 453.259 400.87 L 453.259 400.87 Z  M 457.651 396.838 L 461.395 396.838 L 461.395 396.838 Q 464.275 396.838 465.751 394.57 L 465.751 394.57 L 465.751 394.57 Q 467.227 392.302 467.227 388.27 L 467.227 388.27 L 467.227 388.27 Q 467.227 384.238 465.751 381.97 L 465.751 381.97 L 465.751 381.97 Q 464.275 379.702 461.395 379.702 L 461.395 379.702 L 457.651 379.702 L 457.651 396.838 L 457.651 396.838 Z  M 474.787 400.87 L 474.787 382.87 L 478.567 382.87 L 478.855 384.778 L 478.855 384.778 Q 479.863 383.662 480.745 383.122 L 480.745 383.122 L 480.745 383.122 Q 481.627 382.582 482.815 382.582 L 482.815 382.582 L 482.815 382.582 Q 483.319 382.582 483.751 382.69 L 483.751 382.69 L 483.427 387.046 L 483.427 387.046 Q 482.887 386.866 482.275 386.866 L 482.275 386.866 L 482.275 386.866 Q 481.411 386.866 480.727 387.262 L 480.727 387.262 L 480.727 387.262 Q 480.043 387.658 479.107 388.594 L 479.107 388.594 L 479.107 400.87 L 474.787 400.87 L 474.787 400.87 Z " fill-rule="evenodd" fill="rgb(68,68,68)"/></svg>