<?xml version="1.0" standalone="no"?><!-- Generator: Gravit.io --><svg xmlns="http://www.w3.org/2000/svg" xmlns:xlink="http://www.w3.org/1999/xlink" style="isolation:isolate" viewBox="631.25 325.75 94.5 94.5" width="94.5" height="94.5"><rect x="631.25" y="325.75" width="94.5" height="94.5" transform="matrix(1,0,0,1,0,0)" fill="rgb(215,54,54)"/><path d=" M 661.984 412.963 L 661.984 403.163 L 663.776 403.163 L 663.776 407.041 L 668.256 407.041 L 668.256 403.163 L 670.048 403.163 L 670.048 412.963 L 668.256 412.963 L 668.256 408.721 L 663.776 408.721 L 663.776 412.963 L 661.984 412.963 L 661.984 412.963 Z  M 677.673 412.963 L 676.861 410.639 L 673.291 410.639 L 672.479 412.963 L 670.743 412.963 L 674.229 403.163 L 675.923 403.163 L 679.409 412.963 L 677.673 412.963 L 677.673 412.963 Z  M 673.851 409.071 L 676.301 409.071 L 675.083 405.571 L 673.851 409.071 L 673.851 409.071 Z  M 680.104 412.963 L 680.104 403.163 L 681.896 403.163 L 681.896 411.367 L 685.928 411.367 L 685.928 412.963 L 680.104 412.963 L 680.104 412.963 Z  M 686.679 412.963 L 686.679 403.163 L 688.471 403.163 L 688.471 411.367 L 692.503 411.367 L 692.503 412.963 L 686.679 412.963 L 686.679 412.963 Z  M 666.338 399.551 L 666.338 399.551 Q 664.798 399.551 663.685 398.921 L 663.685 398.921 L 663.685 398.921 Q 662.572 398.291 661.984 397.136 L 661.984 397.136 L 661.984 397.136 Q 661.396 395.981 661.396 394.441 L 661.396 394.441 L 661.396 394.441 Q 661.396 392.929 662.047 391.774 L 662.047 391.774 L 662.047 391.774 Q 662.698 390.619 663.86 389.989 L 663.86 389.989 L 663.86 389.989 Q 665.022 389.359 666.52 389.359 L 666.52 389.359 L 666.52 389.359 Q 667.276 389.359 667.99 389.513 L 667.99 389.513 L 667.99 389.513 Q 668.704 389.667 669.222 389.933 L 669.222 389.933 L 669.026 391.641 L 669.026 391.641 Q 667.808 391.081 666.52 391.081 L 666.52 391.081 L 666.52 391.081 Q 664.952 391.081 664.154 391.998 L 664.154 391.998 L 664.154 391.998 Q 663.356 392.915 663.356 394.413 L 663.356 394.413 L 663.356 394.413 Q 663.356 395.967 664.14 396.898 L 664.14 396.898 L 664.14 396.898 Q 664.924 397.829 666.408 397.829 L 666.408 397.829 L 666.408 397.829 Q 667.01 397.829 667.752 397.675 L 667.752 397.675 L 667.752 395.925 L 666.408 395.925 L 666.408 394.441 L 669.544 394.441 L 669.544 398.809 L 669.544 398.809 Q 668.998 399.131 668.151 399.341 L 668.151 399.341 L 668.151 399.341 Q 667.304 399.551 666.338 399.551 L 666.338 399.551 L 666.338 399.551 Z  M 670.855 399.355 L 670.855 389.555 L 674.439 389.555 L 674.439 389.555 Q 676.007 389.555 676.91 390.304 L 676.91 390.304 L 676.91 390.304 Q 677.813 391.053 677.813 392.523 L 677.813 392.523 L 677.813 392.523 Q 677.813 393.545 677.379 394.196 L 677.379 394.196 L 677.379 394.196 Q 676.945 394.847 676.147 395.239 L 676.147 395.239 L 678.359 399.355 L 676.357 399.355 L 674.467 395.715 L 674.397 395.715 L 672.647 395.715 L 672.647 399.355 L 670.855 399.355 L 670.855 399.355 Z  M 672.647 394.217 L 673.963 394.217 L 673.963 394.217 Q 675.937 394.217 675.937 392.621 L 675.937 392.621 L 675.937 392.621 Q 675.937 391.851 675.489 391.452 L 675.489 391.452 L 675.489 391.452 Q 675.041 391.053 674.033 391.053 L 674.033 391.053 L 672.647 391.053 L 672.647 394.217 L 672.647 394.217 Z  M 679.194 399.355 L 679.194 389.555 L 680.986 389.555 L 680.986 399.355 L 679.194 399.355 L 679.194 399.355 Z  M 682.717 399.355 L 682.717 389.555 L 688.751 389.555 L 688.751 391.291 L 684.509 391.291 L 684.509 393.377 L 687.785 393.377 L 687.785 395.113 L 684.509 395.113 L 684.509 399.355 L 682.717 399.355 L 682.717 399.355 Z  M 689.642 399.355 L 689.642 389.555 L 695.676 389.555 L 695.676 391.291 L 691.434 391.291 L 691.434 393.377 L 694.71 393.377 L 694.71 395.113 L 691.434 395.113 L 691.434 399.355 L 689.642 399.355 L 689.642 399.355 Z  M 696.566 399.355 L 696.566 389.555 L 698.358 389.555 L 698.358 399.355 L 696.566 399.355 L 696.566 399.355 Z  M 701.993 399.355 L 701.993 391.291 L 699.221 391.291 L 699.221 389.555 L 706.557 389.555 L 706.557 391.291 L 703.785 391.291 L 703.785 399.355 L 701.993 399.355 L 701.993 399.355 Z  M 707.42 399.355 L 707.42 389.555 L 709.212 389.555 L 709.212 393.433 L 713.692 393.433 L 713.692 389.555 L 715.484 389.555 L 715.484 399.355 L 713.692 399.355 L 713.692 395.113 L 709.212 395.113 L 709.212 399.355 L 707.42 399.355 L 707.42 399.355 Z  M 661.004 388.155 L 660.85 386.615 L 660.85 386.615 Q 661.466 386.615 661.725 386.349 L 661.725 386.349 L 661.725 386.349 Q 661.984 386.083 661.984 385.411 L 661.984 385.411 L 661.984 375.947 L 663.776 375.947 L 663.776 385.803 L 663.776 385.803 Q 663.776 387.035 663.188 387.595 L 663.188 387.595 L 663.188 387.595 Q 662.6 388.155 661.508 388.155 L 661.508 388.155 L 661.004 388.155 L 661.004 388.155 Z  M 671.826 385.747 L 671.014 383.423 L 667.444 383.423 L 666.632 385.747 L 664.896 385.747 L 668.382 375.947 L 670.076 375.947 L 673.562 385.747 L 671.826 385.747 L 671.826 385.747 Z  M 668.004 381.855 L 670.454 381.855 L 669.236 378.355 L 668.004 381.855 L 668.004 381.855 Z  M 684.65 385.747 L 682.788 385.747 L 681.948 379.181 L 679.442 383.689 L 676.922 379.195 L 676.082 385.747 L 674.22 385.747 L 675.578 375.947 L 677.048 375.947 L 679.442 380.413 L 681.822 375.947 L 683.292 375.947 L 684.65 385.747 L 684.65 385.747 Z  M 686.344 385.747 L 686.344 375.947 L 692.616 375.947 L 692.616 377.683 L 688.178 377.683 L 688.178 379.769 L 691.622 379.769 L 691.622 381.505 L 688.178 381.505 L 688.178 384.011 L 692.756 384.011 L 692.756 385.747 L 686.344 385.747 L 686.344 385.747 Z  M 697.138 385.943 L 697.138 385.943 Q 696.312 385.943 695.367 385.719 L 695.367 385.719 L 695.367 385.719 Q 694.422 385.495 693.89 385.229 L 693.89 385.229 L 694.1 383.325 L 694.1 383.325 Q 695.948 384.221 697.348 384.221 L 697.348 384.221 L 697.348 384.221 Q 698.09 384.221 698.51 383.934 L 698.51 383.934 L 698.51 383.934 Q 698.93 383.647 698.93 383.087 L 698.93 383.087 L 698.93 383.087 Q 698.93 382.667 698.699 382.394 L 698.699 382.394 L 698.699 382.394 Q 698.468 382.121 698.034 381.932 L 698.034 381.932 L 698.034 381.932 Q 697.6 381.743 696.648 381.407 L 696.648 381.407 L 696.648 381.407 Q 695.752 381.099 695.164 380.756 L 695.164 380.756 L 695.164 380.756 Q 694.576 380.413 694.233 379.874 L 694.233 379.874 L 694.233 379.874 Q 693.89 379.335 693.89 378.551 L 693.89 378.551 L 693.89 378.551 Q 693.89 377.291 694.814 376.521 L 694.814 376.521 L 694.814 376.521 Q 695.738 375.751 697.46 375.751 L 697.46 375.751 L 697.46 375.751 Q 698.272 375.751 699.077 375.933 L 699.077 375.933 L 699.077 375.933 Q 699.882 376.115 700.554 376.381 L 700.554 376.381 L 700.372 378.215 L 700.372 378.215 Q 699.504 377.837 698.783 377.648 L 698.783 377.648 L 698.783 377.648 Q 698.062 377.459 697.348 377.459 L 697.348 377.459 L 697.348 377.459 Q 696.55 377.459 696.13 377.725 L 696.13 377.725 L 696.13 377.725 Q 695.71 377.991 695.71 378.495 L 695.71 378.495 L 695.71 378.495 Q 695.71 378.887 695.934 379.139 L 695.934 379.139 L 695.934 379.139 Q 696.158 379.391 696.543 379.559 L 696.543 379.559 L 696.543 379.559 Q 696.928 379.727 697.684 379.965 L 697.684 379.965 L 697.684 379.965 Q 699.378 380.497 700.155 381.19 L 700.155 381.19 L 700.155 381.19 Q 700.932 381.883 700.932 383.087 L 700.932 383.087 L 700.932 383.087 Q 700.932 384.235 700.134 385.089 L 700.134 385.089 L 700.134 385.089 Q 699.336 385.943 697.138 385.943 L 697.138 385.943 L 697.138 385.943 Z  M 661.984 372.139 L 661.984 362.339 L 665.652 362.339 L 665.652 362.339 Q 667.052 362.339 668.151 362.927 L 668.151 362.927 L 668.151 362.927 Q 669.25 363.515 669.866 364.621 L 669.866 364.621 L 669.866 364.621 Q 670.482 365.727 670.482 367.239 L 670.482 367.239 L 670.482 367.239 Q 670.482 368.751 669.866 369.857 L 669.866 369.857 L 669.866 369.857 Q 669.25 370.963 668.151 371.551 L 668.151 371.551 L 668.151 371.551 Q 667.052 372.139 665.652 372.139 L 665.652 372.139 L 661.984 372.139 L 661.984 372.139 Z  M 663.776 370.543 L 665.652 370.543 L 665.652 370.543 Q 667.052 370.543 667.787 369.668 L 667.787 369.668 L 667.787 369.668 Q 668.522 368.793 668.522 367.239 L 668.522 367.239 L 668.522 367.239 Q 668.522 365.685 667.787 364.81 L 667.787 364.81 L 667.787 364.81 Q 667.052 363.935 665.652 363.935 L 665.652 363.935 L 663.776 363.935 L 663.776 370.543 L 663.776 370.543 Z  M 675.881 372.335 L 675.881 372.335 Q 674.495 372.335 673.396 371.698 L 673.396 371.698 L 673.396 371.698 Q 672.297 371.061 671.674 369.906 L 671.674 369.906 L 671.674 369.906 Q 671.051 368.751 671.051 367.239 L 671.051 367.239 L 671.051 367.239 Q 671.051 365.727 671.674 364.572 L 671.674 364.572 L 671.674 364.572 Q 672.297 363.417 673.396 362.78 L 673.396 362.78 L 673.396 362.78 Q 674.495 362.143 675.881 362.143 L 675.881 362.143 L 675.881 362.143 Q 677.267 362.143 678.366 362.78 L 678.366 362.78 L 678.366 362.78 Q 679.465 363.417 680.088 364.572 L 680.088 364.572 L 680.088 364.572 Q 680.711 365.727 680.711 367.239 L 680.711 367.239 L 680.711 367.239 Q 680.711 368.751 680.088 369.906 L 680.088 369.906 L 680.088 369.906 Q 679.465 371.061 678.366 371.698 L 678.366 371.698 L 678.366 371.698 Q 677.267 372.335 675.881 372.335 L 675.881 372.335 L 675.881 372.335 Z  M 675.881 370.599 L 675.881 370.599 Q 677.309 370.599 678.072 369.675 L 678.072 369.675 L 678.072 369.675 Q 678.835 368.751 678.835 367.239 L 678.835 367.239 L 678.835 367.239 Q 678.835 365.727 678.072 364.803 L 678.072 364.803 L 678.072 364.803 Q 677.309 363.879 675.881 363.879 L 675.881 363.879 L 675.881 363.879 Q 674.453 363.879 673.69 364.803 L 673.69 364.803 L 673.69 364.803 Q 672.927 365.727 672.927 367.239 L 672.927 367.239 L 672.927 367.239 Q 672.927 368.751 673.69 369.675 L 673.69 369.675 L 673.69 369.675 Q 674.453 370.599 675.881 370.599 L 675.881 370.599 L 675.881 370.599 Z  M 686.292 372.335 L 686.292 372.335 Q 684.808 372.335 683.667 371.705 L 683.667 371.705 L 683.667 371.705 Q 682.526 371.075 681.896 369.92 L 681.896 369.92 L 681.896 369.92 Q 681.266 368.765 681.266 367.239 L 681.266 367.239 L 681.266 367.239 Q 681.266 365.727 681.917 364.572 L 681.917 364.572 L 681.917 364.572 Q 682.568 363.417 683.723 362.78 L 683.723 362.78 L 683.723 362.78 Q 684.878 362.143 686.348 362.143 L 686.348 362.143 L 686.348 362.143 Q 687.762 362.143 688.882 362.717 L 688.882 362.717 L 688.686 364.425 L 688.686 364.425 Q 688.084 364.159 687.531 364.012 L 687.531 364.012 L 687.531 364.012 Q 686.978 363.865 686.334 363.865 L 686.334 363.865 L 686.334 363.865 Q 684.836 363.865 684.031 364.789 L 684.031 364.789 L 684.031 364.789 Q 683.226 365.713 683.226 367.239 L 683.226 367.239 L 683.226 367.239 Q 683.226 368.765 684.017 369.689 L 684.017 369.689 L 684.017 369.689 Q 684.808 370.613 686.292 370.613 L 686.292 370.613 L 686.292 370.613 Q 686.95 370.613 687.503 370.473 L 687.503 370.473 L 687.503 370.473 Q 688.056 370.333 688.686 370.053 L 688.686 370.053 L 688.882 371.761 L 688.882 371.761 Q 687.664 372.335 686.292 372.335 L 686.292 372.335 L 686.292 372.335 Z  M 691.859 372.139 L 691.859 364.075 L 689.087 364.075 L 689.087 362.339 L 696.423 362.339 L 696.423 364.075 L 693.651 364.075 L 693.651 372.139 L 691.859 372.139 L 691.859 372.139 Z  M 701.528 372.335 L 701.528 372.335 Q 700.142 372.335 699.043 371.698 L 699.043 371.698 L 699.043 371.698 Q 697.944 371.061 697.321 369.906 L 697.321 369.906 L 697.321 369.906 Q 696.698 368.751 696.698 367.239 L 696.698 367.239 L 696.698 367.239 Q 696.698 365.727 697.321 364.572 L 697.321 364.572 L 697.321 364.572 Q 697.944 363.417 699.043 362.78 L 699.043 362.78 L 699.043 362.78 Q 700.142 362.143 701.528 362.143 L 701.528 362.143 L 701.528 362.143 Q 702.914 362.143 704.013 362.78 L 704.013 362.78 L 704.013 362.78 Q 705.112 363.417 705.735 364.572 L 705.735 364.572 L 705.735 364.572 Q 706.358 365.727 706.358 367.239 L 706.358 367.239 L 706.358 367.239 Q 706.358 368.751 705.735 369.906 L 705.735 369.906 L 705.735 369.906 Q 705.112 371.061 704.013 371.698 L 704.013 371.698 L 704.013 371.698 Q 702.914 372.335 701.528 372.335 L 701.528 372.335 L 701.528 372.335 Z  M 701.528 370.599 L 701.528 370.599 Q 702.956 370.599 703.719 369.675 L 703.719 369.675 L 703.719 369.675 Q 704.482 368.751 704.482 367.239 L 704.482 367.239 L 704.482 367.239 Q 704.482 365.727 703.719 364.803 L 703.719 364.803 L 703.719 364.803 Q 702.956 363.879 701.528 363.879 L 701.528 363.879 L 701.528 363.879 Q 700.1 363.879 699.337 364.803 L 699.337 364.803 L 699.337 364.803 Q 698.574 365.727 698.574 367.239 L 698.574 367.239 L 698.574 367.239 Q 698.574 368.751 699.337 369.675 L 699.337 369.675 L 699.337 369.675 Q 700.1 370.599 701.528 370.599 L 701.528 370.599 L 701.528 370.599 Z  M 707.5 372.139 L 707.5 362.339 L 711.084 362.339 L 711.084 362.339 Q 712.652 362.339 713.555 363.088 L 713.555 363.088 L 713.555 363.088 Q 714.458 363.837 714.458 365.307 L 714.458 365.307 L 714.458 365.307 Q 714.458 366.329 714.024 366.98 L 714.024 366.98 L 714.024 366.98 Q 713.59 367.631 712.792 368.023 L 712.792 368.023 L 715.004 372.139 L 713.002 372.139 L 711.112 368.499 L 711.042 368.499 L 709.292 368.499 L 709.292 372.139 L 707.5 372.139 L 707.5 372.139 Z  M 709.292 367.001 L 710.608 367.001 L 710.608 367.001 Q 712.582 367.001 712.582 365.405 L 712.582 365.405 L 712.582 365.405 Q 712.582 364.635 712.134 364.236 L 712.134 364.236 L 712.134 364.236 Q 711.686 363.837 710.678 363.837 L 710.678 363.837 L 709.292 363.837 L 709.292 367.001 L 709.292 367.001 Z " fill-rule="evenodd" fill="rgb(255,255,255)"/></svg>