<?xml version="1.0" standalone="no"?><!-- Generator: Gravit.io --><svg xmlns="http://www.w3.org/2000/svg" xmlns:xlink="http://www.w3.org/1999/xlink" style="isolation:isolate" viewBox="466.483 325.305 423.887 134.142" width="423.887" height="134.142"><path d=" M 689.229 379.3 L 710.897 357.632 L 700.169 346.903 L 678.5 368.572 L 656.831 346.903 L 646.103 357.632 L 667.771 379.3 L 667.701 379.371 L 678.43 390.099 L 678.5 390.029 L 678.57 390.099 L 689.299 379.371 L 689.229 379.3 Z " fill-rule="evenodd" fill="rgb(77,193,182)"/><path d=" M 667.771 336.104 L 646.103 357.773 L 656.831 368.501 L 678.5 346.833 L 700.169 368.501 L 710.897 357.773 L 689.229 336.104 L 689.299 336.034 L 678.57 325.305 L 678.5 325.376 L 678.43 325.305 L 667.701 336.034 L 667.771 336.104 Z " fill-rule="evenodd" fill="rgb(0,150,136)"/><path d=" M 812.158 436.419 L 812.158 402.819 L 818.302 402.819 L 818.302 416.115 L 833.662 416.115 L 833.662 402.819 L 839.806 402.819 L 839.806 436.419 L 833.662 436.419 L 833.662 421.875 L 818.302 421.875 L 818.302 436.419 L 812.158 436.419 L 812.158 436.419 Z  M 851.045 436.899 L 851.045 436.899 Q 848.069 436.899 846.077 434.955 L 846.077 434.955 L 846.077 434.955 Q 844.085 433.011 844.085 429.699 L 844.085 429.699 L 844.085 429.699 Q 844.085 426.579 846.341 424.683 L 846.341 424.683 L 846.341 424.683 Q 848.597 422.787 851.669 421.995 L 851.669 421.995 L 851.669 421.995 Q 854.741 421.203 857.573 421.107 L 857.573 421.107 L 857.573 421.107 Q 857.477 418.995 856.493 418.083 L 856.493 418.083 L 856.493 418.083 Q 855.509 417.171 853.253 417.171 L 853.253 417.171 L 853.253 417.171 Q 851.669 417.171 850.157 417.603 L 850.157 417.603 L 850.157 417.603 Q 848.645 418.035 846.677 418.995 L 846.677 418.995 L 846.149 414.147 L 846.149 414.147 Q 850.517 412.035 854.885 412.035 L 854.885 412.035 L 854.885 412.035 Q 859.109 412.035 861.341 414.339 L 861.341 414.339 L 861.341 414.339 Q 863.573 416.643 863.573 421.683 L 863.573 421.683 L 863.573 428.163 L 863.573 428.163 Q 863.573 429.987 863.741 430.779 L 863.741 430.779 L 863.741 430.779 Q 863.909 431.571 864.317 431.787 L 864.317 431.787 L 864.317 431.787 Q 864.725 432.003 865.685 432.003 L 865.685 432.003 L 866.453 432.003 L 865.925 436.899 L 863.765 436.899 L 863.765 436.899 Q 861.797 436.899 860.453 436.155 L 860.453 436.155 L 860.453 436.155 Q 859.109 435.411 858.389 434.115 L 858.389 434.115 L 858.389 434.115 Q 857.237 435.411 855.245 436.155 L 855.245 436.155 L 855.245 436.155 Q 853.253 436.899 851.045 436.899 L 851.045 436.899 L 851.045 436.899 Z  M 853.541 432.339 L 853.541 432.339 Q 854.453 432.339 855.605 431.883 L 855.605 431.883 L 855.605 431.883 Q 856.757 431.427 857.621 430.611 L 857.621 430.611 L 857.621 425.139 L 857.621 425.139 Q 854.741 425.283 852.533 426.387 L 852.533 426.387 L 852.533 426.387 Q 850.325 427.491 850.325 429.459 L 850.325 429.459 L 850.325 429.459 Q 850.325 430.947 851.093 431.643 L 851.093 431.643 L 851.093 431.643 Q 851.861 432.339 853.541 432.339 L 853.541 432.339 L 853.541 432.339 Z  M 875.483 436.899 L 875.483 436.899 Q 872.411 436.899 870.875 435.147 L 870.875 435.147 L 870.875 435.147 Q 869.339 433.395 869.339 430.611 L 869.339 430.611 L 869.339 400.419 L 875.291 400.419 L 875.291 428.163 L 875.291 428.163 Q 875.291 430.083 875.507 430.875 L 875.507 430.875 L 875.507 430.875 Q 875.723 431.667 876.275 431.835 L 876.275 431.835 L 876.275 431.835 Q 876.827 432.003 878.171 432.003 L 878.171 432.003 L 877.643 436.899 L 875.483 436.899 L 875.483 436.899 Z  M 887.682 436.899 L 887.682 436.899 Q 884.61 436.899 883.074 435.147 L 883.074 435.147 L 883.074 435.147 Q 881.538 433.395 881.538 430.611 L 881.538 430.611 L 881.538 400.419 L 887.49 400.419 L 887.49 428.163 L 887.49 428.163 Q 887.49 430.083 887.706 430.875 L 887.706 430.875 L 887.706 430.875 Q 887.922 431.667 888.474 431.835 L 888.474 431.835 L 888.474 431.835 Q 889.026 432.003 890.37 432.003 L 890.37 432.003 L 889.842 436.899 L 887.682 436.899 L 887.682 436.899 Z  M 673.761 437.091 L 673.761 437.091 Q 668.481 437.091 664.665 434.931 L 664.665 434.931 L 664.665 434.931 Q 660.849 432.771 658.833 428.811 L 658.833 428.811 L 658.833 428.811 Q 656.817 424.851 656.817 419.571 L 656.817 419.571 L 656.817 419.571 Q 656.817 414.387 659.049 410.427 L 659.049 410.427 L 659.049 410.427 Q 661.281 406.467 665.265 404.307 L 665.265 404.307 L 665.265 404.307 Q 669.249 402.147 674.385 402.147 L 674.385 402.147 L 674.385 402.147 Q 676.977 402.147 679.425 402.675 L 679.425 402.675 L 679.425 402.675 Q 681.873 403.203 683.649 404.115 L 683.649 404.115 L 682.977 409.971 L 682.977 409.971 Q 678.801 408.051 674.385 408.051 L 674.385 408.051 L 674.385 408.051 Q 669.009 408.051 666.273 411.195 L 666.273 411.195 L 666.273 411.195 Q 663.537 414.339 663.537 419.475 L 663.537 419.475 L 663.537 419.475 Q 663.537 424.803 666.225 427.995 L 666.225 427.995 L 666.225 427.995 Q 668.913 431.187 674.001 431.187 L 674.001 431.187 L 674.001 431.187 Q 676.065 431.187 678.609 430.659 L 678.609 430.659 L 678.609 424.659 L 674.001 424.659 L 674.001 419.571 L 684.753 419.571 L 684.753 434.547 L 684.753 434.547 Q 682.881 435.651 679.977 436.371 L 679.977 436.371 L 679.977 436.371 Q 677.073 437.091 673.761 437.091 L 673.761 437.091 L 673.761 437.091 Z  M 689.367 436.419 L 689.367 412.419 L 694.935 412.419 L 695.079 414.963 L 695.079 414.963 Q 696.135 413.763 697.791 412.851 L 697.791 412.851 L 697.791 412.851 Q 699.447 411.939 701.271 411.939 L 701.271 411.939 L 701.271 411.939 Q 701.847 411.939 702.327 412.035 L 702.327 412.035 L 701.895 417.891 L 701.895 417.891 Q 700.983 417.651 699.831 417.651 L 699.831 417.651 L 699.831 417.651 Q 698.343 417.651 697.095 418.347 L 697.095 418.347 L 697.095 418.347 Q 695.847 419.043 695.319 420.051 L 695.319 420.051 L 695.319 436.419 L 689.367 436.419 L 689.367 436.419 Z  M 704.782 408.771 L 704.782 402.819 L 710.734 402.819 L 710.734 408.771 L 704.782 408.771 L 704.782 408.771 Z  M 704.782 436.419 L 704.782 412.419 L 710.734 412.419 L 710.734 436.419 L 704.782 436.419 L 704.782 436.419 Z  M 717.317 436.419 L 717.317 417.315 L 713.909 417.315 L 714.437 412.419 L 717.317 412.419 L 717.317 407.331 L 717.317 407.331 Q 717.317 404.115 719.213 402.267 L 719.213 402.267 L 719.213 402.267 Q 721.109 400.419 724.613 400.419 L 724.613 400.419 L 724.613 400.419 Q 726.581 400.419 728.501 400.851 L 728.501 400.851 L 727.973 405.651 L 727.973 405.651 Q 727.157 405.411 726.101 405.411 L 726.101 405.411 L 726.101 405.411 Q 723.269 405.411 723.269 408.387 L 723.269 408.387 L 723.269 412.419 L 728.549 412.419 L 728.549 417.315 L 723.269 417.315 L 723.269 436.419 L 717.317 436.419 L 717.317 436.419 Z  M 733.212 436.419 L 733.212 417.315 L 729.804 417.315 L 730.332 412.419 L 733.212 412.419 L 733.212 407.331 L 733.212 407.331 Q 733.212 404.115 735.108 402.267 L 735.108 402.267 L 735.108 402.267 Q 737.004 400.419 740.508 400.419 L 740.508 400.419 L 740.508 400.419 Q 742.476 400.419 744.396 400.851 L 744.396 400.851 L 743.868 405.651 L 743.868 405.651 Q 743.052 405.411 741.996 405.411 L 741.996 405.411 L 741.996 405.411 Q 739.164 405.411 739.164 408.387 L 739.164 408.387 L 739.164 412.419 L 744.444 412.419 L 744.444 417.315 L 739.164 417.315 L 739.164 436.419 L 733.212 436.419 L 733.212 436.419 Z  M 747.667 408.771 L 747.667 402.819 L 753.619 402.819 L 753.619 408.771 L 747.667 408.771 L 747.667 408.771 Z  M 747.667 436.419 L 747.667 412.419 L 753.619 412.419 L 753.619 436.419 L 747.667 436.419 L 747.667 436.419 Z  M 766.585 436.899 L 766.585 436.899 Q 763.417 436.899 761.785 435.051 L 761.785 435.051 L 761.785 435.051 Q 760.153 433.203 760.153 430.611 L 760.153 430.611 L 760.153 417.315 L 756.745 417.315 L 757.273 412.419 L 760.153 412.419 L 760.153 407.139 L 766.105 406.515 L 766.105 412.419 L 771.385 412.419 L 771.385 417.315 L 766.105 417.315 L 766.105 428.163 L 766.105 428.163 Q 766.105 430.083 766.321 430.827 L 766.321 430.827 L 766.321 430.827 Q 766.537 431.571 767.233 431.787 L 767.233 431.787 L 767.233 431.787 Q 767.929 432.003 769.753 432.003 L 769.753 432.003 L 771.385 432.003 L 770.857 436.899 L 766.585 436.899 L 766.585 436.899 Z  M 786.944 412.035 L 786.944 412.035 Q 791.504 412.035 793.736 414.987 L 793.736 414.987 L 793.736 414.987 Q 795.968 417.939 795.968 423.075 L 795.968 423.075 L 795.968 436.419 L 790.016 436.419 L 790.016 423.507 L 790.016 423.507 Q 790.016 420.099 788.912 418.515 L 788.912 418.515 L 788.912 418.515 Q 787.808 416.931 785.408 416.931 L 785.408 416.931 L 785.408 416.931 Q 782.576 416.931 780.752 418.995 L 780.752 418.995 L 780.752 436.419 L 774.8 436.419 L 774.8 400.419 L 780.752 400.419 L 780.752 413.955 L 780.752 413.955 Q 782.192 413.043 783.68 412.539 L 783.68 412.539 L 783.68 412.539 Q 785.168 412.035 786.944 412.035 L 786.944 412.035 L 786.944 412.035 Z  M 523.048 444.675 L 522.52 439.395 L 522.52 439.395 Q 524.632 439.395 525.52 438.483 L 525.52 438.483 L 525.52 438.483 Q 526.408 437.571 526.408 435.267 L 526.408 435.267 L 526.408 402.819 L 532.552 402.819 L 532.552 436.611 L 532.552 436.611 Q 532.552 440.835 530.536 442.755 L 530.536 442.755 L 530.536 442.755 Q 528.52 444.675 524.776 444.675 L 524.776 444.675 L 523.048 444.675 L 523.048 444.675 Z  M 543.791 436.899 L 543.791 436.899 Q 540.815 436.899 538.823 434.955 L 538.823 434.955 L 538.823 434.955 Q 536.831 433.011 536.831 429.699 L 536.831 429.699 L 536.831 429.699 Q 536.831 426.579 539.087 424.683 L 539.087 424.683 L 539.087 424.683 Q 541.343 422.787 544.415 421.995 L 544.415 421.995 L 544.415 421.995 Q 547.487 421.203 550.319 421.107 L 550.319 421.107 L 550.319 421.107 Q 550.223 418.995 549.239 418.083 L 549.239 418.083 L 549.239 418.083 Q 548.255 417.171 545.999 417.171 L 545.999 417.171 L 545.999 417.171 Q 544.415 417.171 542.903 417.603 L 542.903 417.603 L 542.903 417.603 Q 541.391 418.035 539.423 418.995 L 539.423 418.995 L 538.895 414.147 L 538.895 414.147 Q 543.263 412.035 547.631 412.035 L 547.631 412.035 L 547.631 412.035 Q 551.855 412.035 554.087 414.339 L 554.087 414.339 L 554.087 414.339 Q 556.319 416.643 556.319 421.683 L 556.319 421.683 L 556.319 428.163 L 556.319 428.163 Q 556.319 429.987 556.487 430.779 L 556.487 430.779 L 556.487 430.779 Q 556.655 431.571 557.063 431.787 L 557.063 431.787 L 557.063 431.787 Q 557.471 432.003 558.431 432.003 L 558.431 432.003 L 559.199 432.003 L 558.671 436.899 L 556.511 436.899 L 556.511 436.899 Q 554.543 436.899 553.199 436.155 L 553.199 436.155 L 553.199 436.155 Q 551.855 435.411 551.135 434.115 L 551.135 434.115 L 551.135 434.115 Q 549.983 435.411 547.991 436.155 L 547.991 436.155 L 547.991 436.155 Q 545.999 436.899 543.791 436.899 L 543.791 436.899 L 543.791 436.899 Z  M 546.287 432.339 L 546.287 432.339 Q 547.199 432.339 548.351 431.883 L 548.351 431.883 L 548.351 431.883 Q 549.503 431.427 550.367 430.611 L 550.367 430.611 L 550.367 425.139 L 550.367 425.139 Q 547.487 425.283 545.279 426.387 L 545.279 426.387 L 545.279 426.387 Q 543.071 427.491 543.071 429.459 L 543.071 429.459 L 543.071 429.459 Q 543.071 430.947 543.839 431.643 L 543.839 431.643 L 543.839 431.643 Q 544.607 432.339 546.287 432.339 L 546.287 432.339 L 546.287 432.339 Z  M 589.013 412.035 L 589.013 412.035 Q 593.813 412.035 596.141 414.939 L 596.141 414.939 L 596.141 414.939 Q 598.469 417.843 598.469 423.075 L 598.469 423.075 L 598.469 436.419 L 592.517 436.419 L 592.517 423.507 L 592.517 423.507 Q 592.517 420.099 591.461 418.515 L 591.461 418.515 L 591.461 418.515 Q 590.405 416.931 588.005 416.931 L 588.005 416.931 L 588.005 416.931 Q 585.653 416.931 584.453 418.539 L 584.453 418.539 L 584.453 418.539 Q 583.253 420.147 583.253 423.075 L 583.253 423.075 L 583.253 436.419 L 577.301 436.419 L 577.301 423.507 L 577.301 423.507 Q 577.301 420.099 576.197 418.515 L 576.197 418.515 L 576.197 418.515 Q 575.093 416.931 572.693 416.931 L 572.693 416.931 L 572.693 416.931 Q 569.861 416.931 568.037 418.995 L 568.037 418.995 L 568.037 436.419 L 562.085 436.419 L 562.085 412.419 L 567.173 412.419 L 567.365 414.339 L 567.365 414.339 Q 570.629 412.035 574.421 412.035 L 574.421 412.035 L 574.421 412.035 Q 579.029 412.035 581.285 415.347 L 581.285 415.347 L 581.285 415.347 Q 582.533 413.763 584.549 412.899 L 584.549 412.899 L 584.549 412.899 Q 586.565 412.035 589.013 412.035 L 589.013 412.035 L 589.013 412.035 Z  M 614.94 436.899 L 614.94 436.899 Q 610.764 436.899 607.812 435.195 L 607.812 435.195 L 607.812 435.195 Q 604.86 433.491 603.396 430.635 L 603.396 430.635 L 603.396 430.635 Q 601.932 427.779 601.932 424.275 L 601.932 424.275 L 601.932 424.275 Q 601.932 420.915 603.324 418.131 L 603.324 418.131 L 603.324 418.131 Q 604.716 415.347 607.356 413.691 L 607.356 413.691 L 607.356 413.691 Q 609.996 412.035 613.644 412.035 L 613.644 412.035 L 613.644 412.035 Q 617.004 412.035 619.332 413.427 L 619.332 413.427 L 619.332 413.427 Q 621.66 414.819 622.836 417.171 L 622.836 417.171 L 622.836 417.171 Q 624.012 419.523 624.012 422.451 L 624.012 422.451 L 624.012 422.451 Q 624.012 423.891 623.628 425.715 L 623.628 425.715 L 608.124 425.715 L 608.124 425.715 Q 608.604 428.883 610.62 430.443 L 610.62 430.443 L 610.62 430.443 Q 612.636 432.003 615.468 432.003 L 615.468 432.003 L 615.468 432.003 Q 619.356 432.003 622.668 430.035 L 622.668 430.035 L 622.956 435.075 L 622.956 435.075 Q 621.42 435.891 619.38 436.395 L 619.38 436.395 L 619.38 436.395 Q 617.34 436.899 614.94 436.899 L 614.94 436.899 L 614.94 436.899 Z  M 608.268 421.683 L 617.964 421.683 L 617.964 421.683 Q 617.964 419.811 616.908 418.371 L 616.908 418.371 L 616.908 418.371 Q 615.852 416.931 613.644 416.931 L 613.644 416.931 L 613.644 416.931 Q 611.436 416.931 610.092 418.227 L 610.092 418.227 L 610.092 418.227 Q 608.748 419.523 608.268 421.683 L 608.268 421.683 L 608.268 421.683 Z  M 634.483 436.899 L 634.483 436.899 Q 632.179 436.899 630.283 436.467 L 630.283 436.467 L 630.283 436.467 Q 628.387 436.035 626.371 435.123 L 626.371 435.123 L 626.899 430.035 L 626.899 430.035 Q 628.915 431.235 630.667 431.835 L 630.667 431.835 L 630.667 431.835 Q 632.419 432.435 634.291 432.435 L 634.291 432.435 L 634.291 432.435 Q 637.939 432.435 637.939 430.035 L 637.939 430.035 L 637.939 430.035 Q 637.939 428.739 636.979 428.043 L 636.979 428.043 L 636.979 428.043 Q 636.019 427.347 633.523 426.387 L 633.523 426.387 L 633.523 426.387 Q 629.971 425.091 628.291 423.435 L 628.291 423.435 L 628.291 423.435 Q 626.611 421.779 626.611 418.947 L 626.611 418.947 L 626.611 418.947 Q 626.611 415.827 629.011 413.883 L 629.011 413.883 L 629.011 413.883 Q 631.411 411.939 635.491 411.939 L 635.491 411.939 L 635.491 411.939 Q 639.571 411.939 642.931 413.811 L 642.931 413.811 L 642.403 418.899 L 642.403 418.899 Q 640.579 417.651 638.971 416.979 L 638.971 416.979 L 638.971 416.979 Q 637.363 416.307 635.587 416.307 L 635.587 416.307 L 635.587 416.307 Q 634.051 416.307 633.211 416.931 L 633.211 416.931 L 633.211 416.931 Q 632.371 417.555 632.371 418.707 L 632.371 418.707 L 632.371 418.707 Q 632.371 419.619 632.875 420.195 L 632.875 420.195 L 632.875 420.195 Q 633.379 420.771 634.291 421.227 L 634.291 421.227 L 634.291 421.227 Q 635.203 421.683 637.315 422.499 L 637.315 422.499 L 637.315 422.499 Q 640.819 423.843 642.355 425.451 L 642.355 425.451 L 642.355 425.451 Q 643.891 427.059 643.891 429.747 L 643.891 429.747 L 643.891 429.747 Q 643.891 433.155 641.443 435.027 L 641.443 435.027 L 641.443 435.027 Q 638.995 436.899 634.483 436.899 L 634.483 436.899 L 634.483 436.899 Z  M 466.483 436.419 L 466.483 402.819 L 479.059 402.819 L 479.059 402.819 Q 483.859 402.819 487.627 404.835 L 487.627 404.835 L 487.627 404.835 Q 491.395 406.851 493.507 410.643 L 493.507 410.643 L 493.507 410.643 Q 495.619 414.435 495.619 419.619 L 495.619 419.619 L 495.619 419.619 Q 495.619 424.803 493.507 428.595 L 493.507 428.595 L 493.507 428.595 Q 491.395 432.387 487.627 434.403 L 487.627 434.403 L 487.627 434.403 Q 483.859 436.419 479.059 436.419 L 479.059 436.419 L 466.483 436.419 L 466.483 436.419 Z  M 472.627 430.947 L 479.059 430.947 L 479.059 430.947 Q 483.859 430.947 486.379 427.947 L 486.379 427.947 L 486.379 427.947 Q 488.899 424.947 488.899 419.619 L 488.899 419.619 L 488.899 419.619 Q 488.899 414.291 486.379 411.291 L 486.379 411.291 L 486.379 411.291 Q 483.859 408.291 479.059 408.291 L 479.059 408.291 L 472.627 408.291 L 472.627 430.947 L 472.627 430.947 Z  M 499.706 436.419 L 499.706 412.419 L 505.274 412.419 L 505.418 414.963 L 505.418 414.963 Q 506.474 413.763 508.13 412.851 L 508.13 412.851 L 508.13 412.851 Q 509.786 411.939 511.61 411.939 L 511.61 411.939 L 511.61 411.939 Q 512.186 411.939 512.666 412.035 L 512.666 412.035 L 512.234 417.891 L 512.234 417.891 Q 511.322 417.651 510.17 417.651 L 510.17 417.651 L 510.17 417.651 Q 508.682 417.651 507.434 418.347 L 507.434 418.347 L 507.434 418.347 Q 506.186 419.043 505.658 420.051 L 505.658 420.051 L 505.658 436.419 L 499.706 436.419 L 499.706 436.419 Z " fill-rule="evenodd" fill="rgb(68,68,68)"/><path d=" M 731.12 452.571 L 731.12 452.571 Q 732.218 452.931 732.812 453.723 L 732.812 453.723 L 732.812 453.723 Q 733.406 454.515 733.406 455.685 L 733.406 455.685 L 733.406 455.685 Q 733.406 456.855 732.839 457.701 L 732.839 457.701 L 732.839 457.701 Q 732.272 458.547 731.273 458.997 L 731.273 458.997 L 731.273 458.997 Q 730.274 459.447 728.996 459.447 L 728.996 459.447 L 728.996 459.447 Q 727.106 459.447 725.414 458.547 L 725.414 458.547 L 725.9 456.819 L 725.9 456.819 Q 726.674 457.251 727.421 457.485 L 727.421 457.485 L 727.421 457.485 Q 728.168 457.719 729.014 457.719 L 729.014 457.719 L 729.014 457.719 Q 730.112 457.719 730.742 457.188 L 730.742 457.188 L 730.742 457.188 Q 731.372 456.657 731.372 455.721 L 731.372 455.721 L 731.372 455.721 Q 731.372 454.695 730.697 454.137 L 730.697 454.137 L 730.697 454.137 Q 730.022 453.579 728.672 453.579 L 728.672 453.579 L 727.682 453.579 L 727.682 451.779 L 728.672 451.779 L 728.672 451.779 Q 729.752 451.779 730.364 451.275 L 730.364 451.275 L 730.364 451.275 Q 730.976 450.771 730.976 449.871 L 730.976 449.871 L 730.976 449.871 Q 730.976 448.989 730.472 448.53 L 730.472 448.53 L 730.472 448.53 Q 729.968 448.071 729.032 448.071 L 729.032 448.071 L 729.032 448.071 Q 728.312 448.071 727.655 448.323 L 727.655 448.323 L 727.655 448.323 Q 726.998 448.575 726.278 449.025 L 726.278 449.025 L 725.954 447.153 L 725.954 447.153 Q 727.43 446.343 729.266 446.343 L 729.266 446.343 L 729.266 446.343 Q 731.012 446.343 731.993 447.243 L 731.993 447.243 L 731.993 447.243 Q 732.974 448.143 732.974 449.619 L 732.974 449.619 L 732.974 449.619 Q 732.974 450.645 732.488 451.41 L 732.488 451.41 L 732.488 451.41 Q 732.002 452.175 731.12 452.571 L 731.12 452.571 L 731.12 452.571 Z  M 742.837 459.195 L 742.837 449.403 L 742.837 449.403 Q 741.919 450.087 741.091 450.303 L 741.091 450.303 L 740.839 448.557 L 740.839 448.557 Q 741.523 448.359 742.27 447.783 L 742.27 447.783 L 742.27 447.783 Q 743.017 447.207 743.341 446.595 L 743.341 446.595 L 744.763 446.595 L 744.763 459.195 L 742.837 459.195 L 742.837 459.195 Z  M 757.687 451.635 L 757.687 451.635 Q 758.749 451.635 759.604 452.13 L 759.604 452.13 L 759.604 452.13 Q 760.459 452.625 760.936 453.489 L 760.936 453.489 L 760.936 453.489 Q 761.413 454.353 761.413 455.433 L 761.413 455.433 L 761.413 455.433 Q 761.413 456.603 760.9 457.512 L 760.9 457.512 L 760.9 457.512 Q 760.387 458.421 759.442 458.934 L 759.442 458.934 L 759.442 458.934 Q 758.497 459.447 757.273 459.447 L 757.273 459.447 L 757.273 459.447 Q 755.977 459.447 755.005 458.862 L 755.005 458.862 L 755.005 458.862 Q 754.033 458.277 753.52 457.215 L 753.52 457.215 L 753.52 457.215 Q 753.007 456.153 753.007 454.767 L 753.007 454.767 L 753.007 454.767 Q 753.007 452.877 753.844 451.203 L 753.844 451.203 L 753.844 451.203 Q 754.681 449.529 755.968 448.296 L 755.968 448.296 L 755.968 448.296 Q 757.255 447.063 758.659 446.343 L 758.659 446.343 L 760.009 447.513 L 760.009 447.513 Q 758.551 448.251 757.219 449.511 L 757.219 449.511 L 757.219 449.511 Q 755.887 450.771 755.293 452.319 L 755.293 452.319 L 755.293 452.319 Q 756.283 451.635 757.687 451.635 L 757.687 451.635 L 757.687 451.635 Z  M 757.291 457.791 L 757.291 457.791 Q 758.263 457.791 758.884 457.134 L 758.884 457.134 L 758.884 457.134 Q 759.505 456.477 759.505 455.505 L 759.505 455.505 L 759.505 455.505 Q 759.505 454.551 758.884 453.921 L 758.884 453.921 L 758.884 453.921 Q 758.263 453.291 757.291 453.291 L 757.291 453.291 L 757.291 453.291 Q 756.301 453.291 755.68 453.921 L 755.68 453.921 L 755.68 453.921 Q 755.059 454.551 755.059 455.523 L 755.059 455.523 L 755.059 455.523 Q 755.059 456.513 755.68 457.152 L 755.68 457.152 L 755.68 457.152 Q 756.301 457.791 757.291 457.791 L 757.291 457.791 L 757.291 457.791 Z  M 770.538 459.195 L 770.538 449.403 L 770.538 449.403 Q 769.62 450.087 768.792 450.303 L 768.792 450.303 L 768.54 448.557 L 768.54 448.557 Q 769.224 448.359 769.971 447.783 L 769.971 447.783 L 769.971 447.783 Q 770.718 447.207 771.042 446.595 L 771.042 446.595 L 772.464 446.595 L 772.464 459.195 L 770.538 459.195 L 770.538 459.195 Z  M 669.113 459.195 L 669.113 446.595 L 671.129 446.595 L 676.997 455.469 L 676.997 446.595 L 678.977 446.595 L 678.977 459.195 L 677.321 459.195 L 671.075 449.799 L 671.075 459.195 L 669.113 459.195 L 669.113 459.195 Z  M 692.944 459.447 L 692.944 459.447 Q 691.144 459.447 689.74 458.637 L 689.74 458.637 L 689.74 458.637 Q 688.336 457.827 687.535 456.342 L 687.535 456.342 L 687.535 456.342 Q 686.734 454.857 686.734 452.895 L 686.734 452.895 L 686.734 452.895 Q 686.734 450.933 687.535 449.448 L 687.535 449.448 L 687.535 449.448 Q 688.336 447.963 689.74 447.153 L 689.74 447.153 L 689.74 447.153 Q 691.144 446.343 692.944 446.343 L 692.944 446.343 L 692.944 446.343 Q 694.744 446.343 696.148 447.153 L 696.148 447.153 L 696.148 447.153 Q 697.552 447.963 698.353 449.448 L 698.353 449.448 L 698.353 449.448 Q 699.154 450.933 699.154 452.895 L 699.154 452.895 L 699.154 452.895 Q 699.154 454.857 698.353 456.342 L 698.353 456.342 L 698.353 456.342 Q 697.552 457.827 696.148 458.637 L 696.148 458.637 L 696.148 458.637 Q 694.744 459.447 692.944 459.447 L 692.944 459.447 L 692.944 459.447 Z  M 692.944 457.539 L 692.944 457.539 Q 694.276 457.539 695.203 456.936 L 695.203 456.936 L 695.203 456.936 Q 696.13 456.333 696.598 455.28 L 696.598 455.28 L 696.598 455.28 Q 697.066 454.227 697.066 452.895 L 697.066 452.895 L 697.066 452.895 Q 697.066 451.563 696.598 450.51 L 696.598 450.51 L 696.598 450.51 Q 696.13 449.457 695.203 448.854 L 695.203 448.854 L 695.203 448.854 Q 694.276 448.251 692.944 448.251 L 692.944 448.251 L 692.944 448.251 Q 691.612 448.251 690.685 448.854 L 690.685 448.854 L 690.685 448.854 Q 689.758 449.457 689.281 450.51 L 689.281 450.51 L 689.281 450.51 Q 688.804 451.563 688.804 452.895 L 688.804 452.895 L 688.804 452.895 Q 688.804 454.227 689.281 455.28 L 689.281 455.28 L 689.281 455.28 Q 689.758 456.333 690.685 456.936 L 690.685 456.936 L 690.685 456.936 Q 691.612 457.539 692.944 457.539 L 692.944 457.539 L 692.944 457.539 Z  M 706.371 459.195 L 706.371 457.053 L 708.495 457.053 L 708.495 459.195 L 706.371 459.195 L 706.371 459.195 Z  M 573.087 459.195 L 573.087 446.595 L 575.049 446.595 L 575.049 457.431 L 580.575 457.431 L 580.575 459.195 L 573.087 459.195 L 573.087 459.195 Z  M 593.246 459.447 L 593.246 459.447 Q 591.446 459.447 590.042 458.637 L 590.042 458.637 L 590.042 458.637 Q 588.638 457.827 587.837 456.342 L 587.837 456.342 L 587.837 456.342 Q 587.036 454.857 587.036 452.895 L 587.036 452.895 L 587.036 452.895 Q 587.036 450.933 587.837 449.448 L 587.837 449.448 L 587.837 449.448 Q 588.638 447.963 590.042 447.153 L 590.042 447.153 L 590.042 447.153 Q 591.446 446.343 593.246 446.343 L 593.246 446.343 L 593.246 446.343 Q 595.046 446.343 596.45 447.153 L 596.45 447.153 L 596.45 447.153 Q 597.854 447.963 598.655 449.448 L 598.655 449.448 L 598.655 449.448 Q 599.456 450.933 599.456 452.895 L 599.456 452.895 L 599.456 452.895 Q 599.456 454.857 598.655 456.342 L 598.655 456.342 L 598.655 456.342 Q 597.854 457.827 596.45 458.637 L 596.45 458.637 L 596.45 458.637 Q 595.046 459.447 593.246 459.447 L 593.246 459.447 L 593.246 459.447 Z  M 593.246 457.539 L 593.246 457.539 Q 594.578 457.539 595.505 456.936 L 595.505 456.936 L 595.505 456.936 Q 596.432 456.333 596.9 455.28 L 596.9 455.28 L 596.9 455.28 Q 597.368 454.227 597.368 452.895 L 597.368 452.895 L 597.368 452.895 Q 597.368 451.563 596.9 450.51 L 596.9 450.51 L 596.9 450.51 Q 596.432 449.457 595.505 448.854 L 595.505 448.854 L 595.505 448.854 Q 594.578 448.251 593.246 448.251 L 593.246 448.251 L 593.246 448.251 Q 591.914 448.251 590.987 448.854 L 590.987 448.854 L 590.987 448.854 Q 590.06 449.457 589.583 450.51 L 589.583 450.51 L 589.583 450.51 Q 589.106 451.563 589.106 452.895 L 589.106 452.895 L 589.106 452.895 Q 589.106 454.227 589.583 455.28 L 589.583 455.28 L 589.583 455.28 Q 590.06 456.333 590.987 456.936 L 590.987 456.936 L 590.987 456.936 Q 591.914 457.539 593.246 457.539 L 593.246 457.539 L 593.246 457.539 Z  M 607.232 459.195 L 607.232 446.595 L 611.912 446.595 L 611.912 446.595 Q 613.73 446.595 615.152 447.351 L 615.152 447.351 L 615.152 447.351 Q 616.574 448.107 617.366 449.529 L 617.366 449.529 L 617.366 449.529 Q 618.158 450.951 618.158 452.895 L 618.158 452.895 L 618.158 452.895 Q 618.158 454.839 617.366 456.261 L 617.366 456.261 L 617.366 456.261 Q 616.574 457.683 615.152 458.439 L 615.152 458.439 L 615.152 458.439 Q 613.73 459.195 611.912 459.195 L 611.912 459.195 L 607.232 459.195 L 607.232 459.195 Z  M 609.194 457.431 L 611.912 457.431 L 611.912 457.431 Q 613.892 457.431 614.945 456.216 L 614.945 456.216 L 614.945 456.216 Q 615.998 455.001 615.998 452.895 L 615.998 452.895 L 615.998 452.895 Q 615.998 450.789 614.945 449.574 L 614.945 449.574 L 614.945 449.574 Q 613.892 448.359 611.912 448.359 L 611.912 448.359 L 609.194 448.359 L 609.194 457.431 L 609.194 457.431 Z  M 631.441 459.447 L 631.441 459.447 Q 629.605 459.447 628.183 458.637 L 628.183 458.637 L 628.183 458.637 Q 626.761 457.827 625.969 456.333 L 625.969 456.333 L 625.969 456.333 Q 625.177 454.839 625.177 452.877 L 625.177 452.877 L 625.177 452.877 Q 625.177 450.933 626.014 449.448 L 626.014 449.448 L 626.014 449.448 Q 626.851 447.963 628.345 447.153 L 628.345 447.153 L 628.345 447.153 Q 629.839 446.343 631.729 446.343 L 631.729 446.343 L 631.729 446.343 Q 632.683 446.343 633.61 446.541 L 633.61 446.541 L 633.61 446.541 Q 634.537 446.739 635.239 447.063 L 635.239 447.063 L 635.041 448.863 L 635.041 448.863 Q 633.385 448.179 631.765 448.179 L 631.765 448.179 L 631.765 448.179 Q 629.569 448.179 628.453 449.475 L 628.453 449.475 L 628.453 449.475 Q 627.337 450.771 627.337 452.877 L 627.337 452.877 L 627.337 452.877 Q 627.337 455.037 628.462 456.324 L 628.462 456.324 L 628.462 456.324 Q 629.587 457.611 631.747 457.611 L 631.747 457.611 L 631.747 457.611 Q 632.827 457.611 633.691 457.341 L 633.691 457.341 L 633.691 454.569 L 631.819 454.569 L 631.819 452.877 L 635.653 452.877 L 635.653 458.493 L 635.653 458.493 Q 634.915 458.925 633.808 459.186 L 633.808 459.186 L 633.808 459.186 Q 632.701 459.447 631.441 459.447 L 631.441 459.447 L 631.441 459.447 Z  M 643.644 459.195 L 643.644 446.595 L 651.492 446.595 L 651.492 448.431 L 645.624 448.431 L 645.624 451.689 L 650.232 451.689 L 650.232 453.525 L 645.624 453.525 L 645.624 457.359 L 651.654 457.359 L 651.654 459.195 L 643.644 459.195 L 643.644 459.195 Z " fill-rule="evenodd" fill="rgb(134,133,133)"/></svg>